<?xml version="1.0" encoding="UTF-8"?>
<svg id="Layer_1" data-name="Layer 1" xmlns="http://www.w3.org/2000/svg" viewBox="0 0 337.82 76">
  <defs>
    <style>
      .cls-1 {
        fill: #65768b;
        fill-rule: evenodd;
        stroke-width: 0px;
      }
    </style>
  </defs>
  <polygon class="cls-1" points="88.13 63.26 88.13 52.21 93.23 52.21 93.23 23.47 88.13 23.47 88.13 12.56 112.28 12.56 120.46 31.79 128.83 12.56 153.44 12.56 153.44 23.47 148.31 23.47 148.31 52.21 153.44 52.21 153.44 63.26 129.4 63.26 129.4 52.21 134.46 52.21 134.46 30.89 124.99 52.21 116.45 52.21 106.9 30.89 106.9 52.21 112.28 52.21 112.28 63.26 88.13 63.26"/>
  <polygon class="cls-1" points="192.23 63.26 192.23 52.21 195.57 52.21 195.57 39.94 192.23 39.94 192.23 28.85 195.57 28.85 195.57 17.9 208.85 17.9 208.85 28.85 212.08 28.85 212.08 39.94 208.85 39.94 208.85 52.21 212.08 52.21 212.08 63.26 192.23 63.26 192.23 63.26"/>
  <path class="cls-1" d="M38.25,0C17.3,0,0,16.58,0,37.86c0,18.69,12.56,32.44,29.86,36.99v-41.62c0-.72.11-1.65,1.04-1.65.86,0,1.11.93,1.11,1.65v42.2c2.08.32,4.13.57,6.24.57s4.16-.25,6.24-.57h0v-42.2c0-.75.25-1.65,1.15-1.65s1,.97,1,1.65v41.62c17.3-4.56,29.86-18.3,29.86-36.99C76.51,16.58,59.21,0,38.25,0ZM58.92,53.79h0s0,0,0,0c0,0,0,0,0,0v-22.5c0-6.42-3.34-12.38-10.55-12.38-4.74,0-8.58,3.19-10.12,7.54-1.33-4.38-5.6-7.54-10.16-7.54-7.21,0-10.55,5.96-10.55,12.38v22.5c-3.66-4.49-5.49-10.27-5.49-16.04,0-14.24,11.91-25.98,26.19-25.98s26.16,11.73,26.16,25.98c0,5.78-1.83,11.56-5.49,16.04Z"/>
  <path class="cls-1" d="M173.29,52.86c-2.44,0-4.56-1.62-4.56-4.16v-.07h23.5c-.22-11.59-7.93-21.14-20.28-21.14-10.37,0-19.12,8.29-19.12,18.73,0,11.19,9.44,18.55,20.16,18.55,5.92,0,11.99-2.3,15.75-7.03,1.65-2.12,3.13-4.56,3.48-7.29h-14.53c-.72,1.76-2.62,2.41-4.41,2.41ZM172.93,39.22c2.41,0,4.09,1.69,4.49,3.95h-8.76c.32-2.26,1.83-3.95,4.27-3.95Z"/>
  <path class="cls-1" d="M254.35,39.94v-11.09h-16.29v3.16c-2.48-2.55-6.14-3.8-9.65-3.8-9.51,0-16.47,8.65-16.47,17.8s6.6,18.09,16.32,18.09c3.45,0,7.29-.97,9.8-3.48v2.66h16.29v-11.05h-3.19v-12.27h3.19ZM232.46,51.75c-3.02,0-5.53-2.59-5.53-5.6s2.48-5.6,5.53-5.6,5.49,2.55,5.49,5.6-2.48,5.6-5.49,5.6Z"/>
  <path class="cls-1" d="M282.19,28.42c-3.52,0-7,1.18-9.72,3.45V12.56h-16.9v10.91h3.41v28.74h-3.41v11.05h16.9v-2.8c2.62,2.37,6.28,3.2,9.72,3.2,9.69,0,16.4-7.9,16.4-17.37s-6.71-17.87-16.4-17.87ZM278.32,51.75c-3.02,0-5.49-2.55-5.49-5.57s2.48-5.53,5.49-5.53,5.49,2.55,5.49,5.53-2.48,5.57-5.49,5.57Z"/>
  <path class="cls-1" d="M318.58,27.81h0c-10.08,0-19.24,7.93-19.23,18.3,0,10.34,9.19,18.26,19.23,18.26s19.23-7.93,19.23-18.26-9.15-18.3-19.23-18.3ZM318.47,51.6c-3.01,0-5.53-2.55-5.53-5.56s2.52-5.6,5.53-5.6,5.53,2.55,5.53,5.6-2.48,5.56-5.53,5.56Z"/>
</svg>