<?xml version="1.0" encoding="utf-8"?>
<!-- Generator: Adobe Illustrator 28.2.0, SVG Export Plug-In . SVG Version: 6.00 Build 0)  -->
<svg version="1.1" id="Layer_1" xmlns="http://www.w3.org/2000/svg" xmlns:xlink="http://www.w3.org/1999/xlink" x="0px" y="0px"
	 viewBox="0 0 350 250" style="enable-background:new 0 0 350 250;" xml:space="preserve">
<style type="text/css">
	.st0{fill:#64758A;}
</style>
<path class="st0" d="M258.6,109.1c1.5-1,3.1-3,4.4-2.8c1.5,0.2,3.6,2.4,3.6,3.7c0,1.4-2.1,3.6-3.6,3.8c-1.3,0.2-2.9-1.8-4.4-2.9
	C258.2,110.6,258.1,109.5,258.6,109.1L258.6,109.1z"/>
<path class="st0" d="M347,131.5c-1.7,0.2-3.1,0.1-4.4,0.4c-4,0.9-8,2-11.9,3.1c-3.5,0.9-5.6,0.3-6.8-3.6c-1.9-6-6.8-8.8-12.5-6.5
	c-6.1,2.5-11.6,6.3-17.8,9.8c0-1.2-0.1-3.3,0-5.3c0.3-2.9-0.9-5.2-3.5-5.7c-1.2-0.3-4.1,1.4-4.2,2.5c-0.4,4.2-3.3,5.3-6.4,6.4
	c-4.5,1.6-9.1,3.2-13.7,4.2c-1.3,0.3-3.6-0.9-4.5-2.1c-2.2-2.9-0.8-5.2,1.9-7.2c2.4-1.9,3.5-4.7,1-7.2c-2.2-2.2-5.1-1.6-7.5,0.3
	c-0.8,0.7-1.4,1.7-2.1,2.5c-1.7,1.8-3.2,3.9-5.2,5.2c-3.1,2-6.6,3.4-10,4.9c-9.8,4.4-9.9,4.4-16.1-4.1c-3.1-4.2-7-6.6-12.3-5.8
	c-5,0.7-8.3,3.7-10.9,8c0.4-2.2,1.1-4.1,2.2-5.8c3.7-5.9,7.9-11.5,11.1-17.7c2.2-4.4,0.3-8.7-3.2-10.3c-3.1-1.4-6.7,0-8.9,4.7
	c-2.8,6-4.7,12.5-7,18.8c-0.5,1.4-0.7,3.2-1.6,4.1c-7.4,6.8-15.4,12.5-25.8,13.4c-3.8,0.3-7.7-0.4-10.7-3.9c0.9-0.3,1.2-0.6,1.6-0.6
	c6.2-1.1,12.4-2.1,18.6-3.2c2.9-0.5,4.9-2,4.7-5.3c-0.3-3.3-2.3-5.3-5.6-5.6c-2.3-0.2-4.8-0.2-6.9,0.5c-8.7,2.9-17.3,6-25.9,9.1
	c-4.5,1.6-9,3.5-13.9,5.5c2.6-6.8,1.4-8.9-5-10.1c-1.8-0.3-3.5-0.5-5.3-1c-3.1-0.7-6.5-0.7-8.2-4.4c-0.4-0.9-4-1.5-5-0.7
	c-1.4,1.1-3,4.3-2.4,5.3c2.2,3.4,0.1,5.4-1.7,7.5c-3.8,4.6-9,6.1-14.7,6.4c-7.5,0.4-9.8-2.4-9.1-9.9c0.6-6.6,1.2-13.2,1.1-19.8
	c-0.1-6.8-3.3-12.4-9.1-16.2c-4.6-3.1-5.6-3.6-12.3-5.3c-1.5-0.3-4.2-0.4-5.8,0c-11,2.3-18.9,8.8-24.9,18.1c-0.6,1-2.4,1.6-3.7,1.6
	c-6.7,0.2-13.5,0.1-20.2,0.2v6.6h19.5c-0.7,3.8-1.4,7-1.9,10.3c-1.2,9.7,3.8,17.4,13,20.4c14.8,4.8,31.5-4.9,35.5-20.5
	c2.8-10.8-1.8-16.8-13-16.9c-7.1,0-14.2,0-22,0c4.5-6.2,9.3-10.6,16-12.3c12.2-3.1,22.5,5,22.4,17.6c-0.1,5.2-0.7,10.4-1.3,15.6
	c-1.3,11.1,3.9,17.3,15,17.2c11.4-0.1,20.2-4.7,25-15.6c3.8,0.9,7.3,1.7,11.2,2.6c-1,1.3-2,2.1-2.3,3c-0.5,2-1.4,4.5-0.7,6.1
	c0.6,1.3,3.3,2.1,5.2,2.2c2,0.1,4-0.7,5.9-1.4c6-2.2,12-4.6,18.1-6.9c2.3,6,7,8.7,12.7,10.1c8.4,2,15.7-1,22.8-4.8
	c3.3-1.8,6.4-4,9.7-6.1c0.6,1.7,1,3.2,1.7,4.5c0.8,1.4,1.6,2.9,2.8,4c3.2,3.1,7,1.9,8.1-2.4c0.5-2.1,0.8-4.4,1.6-6.4
	c1.8-4.5,6.2-5.2,9.5-1.7c1.2,1.3,2.2,2.9,3.3,4.2c5.2,6.7,9.9,8.1,17.6,4.9c5.3-2.1,10.4-4.7,15.7-7.1c0.3,0.6,0.6,1,0.8,1.5
	c2.9,7.2,6.3,9.3,13.7,7.4c6.5-1.6,12.9-4,19.4-6c0.2,0.4,0.5,0.9,0.7,1.4c3.5,7,6,7.1,11.5,1.9c3.6-3.4,8-6.1,12.3-8.8
	c3-1.9,5.1-0.4,6.3,2.9c2.3,6.5,5.5,8.6,12.2,7.4c5.8-1.1,11.4-2.7,17.4-4.2C347.5,135.7,347.2,133.7,347,131.5L347,131.5z
	 M204.1,108.5c1.2-2.7,2.6-4.8,3.1-4.6c0.5,0.2,0,2.6-1.2,5.4c-1.2,2.7-2.6,4.8-3.1,4.6C202.4,113.6,202.9,111.2,204.1,108.5z
	 M35.5,113.3c3.2,0,6.3,0,9.5,0c4.1,0,8.3-0.1,12.4,0c3.7,0.1,5.5,2.2,5.2,5.8C61.6,131,47.6,141,36.2,138c-8-2.1-10.9-7.9-9-18
	C28.5,113.5,28.7,113.3,35.5,113.3z"/>
</svg>
