<?xml version="1.0" encoding="UTF-8"?>
<svg xmlns="http://www.w3.org/2000/svg" xmlns:xlink="http://www.w3.org/1999/xlink" viewBox="0 0 393.33 184.94">
  <defs>
    <style>
      .cls-1 {
        filter: url(#drop-shadow-24);
      }

      .cls-2 {
        fill: url(#linear-gradient-17);
      }

      .cls-2, .cls-3, .cls-4, .cls-5, .cls-6, .cls-7, .cls-8, .cls-9, .cls-10, .cls-11, .cls-12, .cls-13, .cls-14, .cls-15, .cls-16, .cls-17, .cls-18, .cls-19, .cls-20, .cls-21, .cls-22, .cls-23, .cls-24, .cls-25, .cls-26 {
        stroke-width: 0px;
      }

      .cls-3 {
        fill: url(#linear-gradient-19);
      }

      .cls-4 {
        fill: url(#linear-gradient);
      }

      .cls-5 {
        fill: url(#linear-gradient-12);
      }

      .cls-5, .cls-7, .cls-12, .cls-14, .cls-15, .cls-19, .cls-21, .cls-22, .cls-23, .cls-24, .cls-25, .cls-26 {
        mix-blend-mode: multiply;
      }

      .cls-6 {
        fill: #fecf06;
      }

      .cls-7 {
        fill: url(#linear-gradient-16);
      }

      .cls-8 {
        fill: url(#linear-gradient-21);
      }

      .cls-27 {
        fill: #ffd006;
        font-family: BebasNeueBold, 'Bebas Neue';
        font-size: 45px;
        letter-spacing: .06em;
      }

      .cls-28 {
        isolation: isolate;
      }

      .cls-10 {
        fill: url(#linear-gradient-2);
        filter: url(#drop-shadow-21);
      }

      .cls-11 {
        fill: url(#linear-gradient-15);
      }

      .cls-12 {
        fill: url(#linear-gradient-14);
      }

      .cls-13 {
        fill: url(#linear-gradient-11);
      }

      .cls-14 {
        fill: url(#linear-gradient-5);
      }

      .cls-29 {
        filter: url(#drop-shadow-23);
      }

      .cls-15 {
        fill: url(#linear-gradient-4);
      }

      .cls-16 {
        fill: url(#linear-gradient-13);
      }

      .cls-17 {
        fill: url(#linear-gradient-23);
      }

      .cls-30 {
        filter: url(#drop-shadow-22);
      }

      .cls-18 {
        fill: url(#linear-gradient-7);
      }

      .cls-19 {
        fill: url(#linear-gradient-18);
      }

      .cls-20 {
        fill: url(#linear-gradient-9);
      }

      .cls-21 {
        fill: url(#linear-gradient-10);
      }

      .cls-22 {
        fill: url(#linear-gradient-3);
      }

      .cls-23 {
        fill: url(#linear-gradient-8);
      }

      .cls-24 {
        fill: url(#linear-gradient-6);
      }

      .cls-25 {
        fill: url(#linear-gradient-20);
      }

      .cls-26 {
        fill: url(#linear-gradient-22);
      }

      .cls-31 {
        filter: url(#drop-shadow-25);
      }
    </style>
    <linearGradient id="linear-gradient" x1="308.87" y1="197.82" x2="87.33" y2="-23.72" gradientUnits="userSpaceOnUse">
      <stop offset="0" stop-color="#000"/>
      <stop offset=".06" stop-color="#050505"/>
      <stop offset=".69" stop-color="#333"/>
      <stop offset="1" stop-color="#454545"/>
    </linearGradient>
    <linearGradient id="linear-gradient-2" x1="16.95" y1="85.59" x2="376.34" y2="85.59" gradientUnits="userSpaceOnUse">
      <stop offset="0" stop-color="#000"/>
      <stop offset=".35" stop-color="#454545"/>
      <stop offset=".56" stop-color="#333"/>
      <stop offset=".96" stop-color="#050505"/>
      <stop offset="1" stop-color="#000"/>
    </linearGradient>
    <filter id="drop-shadow-21" filterUnits="userSpaceOnUse">
      <feOffset dx="7" dy="7"/>
      <feGaussianBlur result="blur" stdDeviation="5"/>
      <feFlood flood-color="#000" flood-opacity=".5"/>
      <feComposite in2="blur" operator="in"/>
      <feComposite in="SourceGraphic"/>
    </filter>
    <linearGradient id="linear-gradient-3" x1="29.64" y1="85.59" x2="363.64" y2="85.59" gradientUnits="userSpaceOnUse">
      <stop offset="0" stop-color="#fbd518" stop-opacity="0"/>
      <stop offset=".4" stop-color="#f9d318" stop-opacity=".01"/>
      <stop offset=".55" stop-color="#f5cf18" stop-opacity=".06"/>
      <stop offset=".66" stop-color="#ecc719" stop-opacity=".14"/>
      <stop offset=".75" stop-color="#e1bb1a" stop-opacity=".25"/>
      <stop offset=".82" stop-color="#d2ac1b" stop-opacity=".4"/>
      <stop offset=".89" stop-color="#bf9a1c" stop-opacity=".59"/>
      <stop offset=".95" stop-color="#aa851e" stop-opacity=".8"/>
      <stop offset="1" stop-color="#967120"/>
    </linearGradient>
    <linearGradient id="linear-gradient-4" x1="29.64" y1="85.59" x2="363.64" y2="85.59" gradientUnits="userSpaceOnUse">
      <stop offset="0" stop-color="#967120"/>
      <stop offset=".05" stop-color="#aa851e" stop-opacity=".8"/>
      <stop offset=".11" stop-color="#bf9a1c" stop-opacity=".59"/>
      <stop offset=".18" stop-color="#d2ac1b" stop-opacity=".4"/>
      <stop offset=".25" stop-color="#e1bb1a" stop-opacity=".25"/>
      <stop offset=".34" stop-color="#ecc719" stop-opacity=".14"/>
      <stop offset=".45" stop-color="#f5cf18" stop-opacity=".06"/>
      <stop offset=".6" stop-color="#f9d318" stop-opacity=".01"/>
      <stop offset="1" stop-color="#fbd518" stop-opacity="0"/>
    </linearGradient>
    <linearGradient id="linear-gradient-5" x1="196.64" y1="16.45" x2="196.64" y2="155.32" xlink:href="#linear-gradient-4"/>
    <linearGradient id="linear-gradient-6" x1="196.64" y1="16.45" x2="196.64" y2="155.32" xlink:href="#linear-gradient-3"/>
    <filter id="drop-shadow-22" filterUnits="userSpaceOnUse">
      <feOffset dx="1.07" dy="1.07"/>
      <feGaussianBlur result="blur-2" stdDeviation="1.07"/>
      <feFlood flood-color="#8c5819" flood-opacity=".75"/>
      <feComposite in2="blur-2" operator="in"/>
      <feComposite in="SourceGraphic"/>
    </filter>
    <linearGradient id="linear-gradient-7" x1="41.55" y1="25.3" x2="51.74" y2="35.49" gradientUnits="userSpaceOnUse">
      <stop offset="0" stop-color="#fbd518"/>
      <stop offset=".16" stop-color="#fbda1d"/>
      <stop offset=".35" stop-color="#fce92c"/>
      <stop offset=".38" stop-color="#fdec2f"/>
      <stop offset=".53" stop-color="#e7c224"/>
      <stop offset=".67" stop-color="#d9a51c"/>
      <stop offset=".74" stop-color="#d49b1a"/>
      <stop offset=".86" stop-color="#c59116"/>
      <stop offset="1" stop-color="#b18411"/>
    </linearGradient>
    <linearGradient id="linear-gradient-8" x1="51.08" y1="34.83" x2="41.49" y2="25.25" gradientUnits="userSpaceOnUse">
      <stop offset="0" stop-color="#967120"/>
      <stop offset=".37" stop-color="#b9941d" stop-opacity=".65"/>
      <stop offset="1" stop-color="#fbd518" stop-opacity="0"/>
    </linearGradient>
    <linearGradient id="linear-gradient-9" x1="43.23" y1="26.98" x2="49.9" y2="33.65" gradientUnits="userSpaceOnUse">
      <stop offset="0" stop-color="#b18411"/>
      <stop offset=".14" stop-color="#c59116"/>
      <stop offset=".26" stop-color="#d49b1a"/>
      <stop offset=".33" stop-color="#d9a51c"/>
      <stop offset=".47" stop-color="#e7c224"/>
      <stop offset=".62" stop-color="#fdec2f"/>
      <stop offset=".65" stop-color="#fce92c"/>
      <stop offset=".84" stop-color="#fbda1d"/>
      <stop offset="1" stop-color="#fbd518"/>
    </linearGradient>
    <linearGradient id="linear-gradient-10" x1="43.23" y1="26.98" x2="49.9" y2="33.65" xlink:href="#linear-gradient-8"/>
    <filter id="drop-shadow-23" filterUnits="userSpaceOnUse">
      <feOffset dx="1.07" dy="1.07"/>
      <feGaussianBlur result="blur-3" stdDeviation="1.07"/>
      <feFlood flood-color="#8c5819" flood-opacity=".75"/>
      <feComposite in2="blur-3" operator="in"/>
      <feComposite in="SourceGraphic"/>
    </filter>
    <linearGradient id="linear-gradient-11" x1="342.02" y1="25.3" x2="352.21" y2="35.49" xlink:href="#linear-gradient-7"/>
    <linearGradient id="linear-gradient-12" x1="351.55" y1="34.83" x2="341.96" y2="25.24" xlink:href="#linear-gradient-8"/>
    <linearGradient id="linear-gradient-13" x1="343.7" y1="26.98" x2="350.37" y2="33.65" xlink:href="#linear-gradient-9"/>
    <linearGradient id="linear-gradient-14" x1="343.7" y1="26.98" x2="350.37" y2="33.65" xlink:href="#linear-gradient-8"/>
    <filter id="drop-shadow-24" filterUnits="userSpaceOnUse">
      <feOffset dx="1.07" dy="1.07"/>
      <feGaussianBlur result="blur-4" stdDeviation="1.07"/>
      <feFlood flood-color="#8c5819" flood-opacity=".75"/>
      <feComposite in2="blur-4" operator="in"/>
      <feComposite in="SourceGraphic"/>
    </filter>
    <linearGradient id="linear-gradient-15" x1="41.55" y1="136.16" x2="51.74" y2="146.35" xlink:href="#linear-gradient-7"/>
    <linearGradient id="linear-gradient-16" x1="51.08" y1="145.69" x2="41.49" y2="136.11" xlink:href="#linear-gradient-8"/>
    <linearGradient id="linear-gradient-17" x1="43.23" y1="137.84" x2="49.9" y2="144.51" xlink:href="#linear-gradient-9"/>
    <linearGradient id="linear-gradient-18" x1="43.23" y1="137.84" x2="49.9" y2="144.51" xlink:href="#linear-gradient-8"/>
    <filter id="drop-shadow-25" filterUnits="userSpaceOnUse">
      <feOffset dx="1.07" dy="1.07"/>
      <feGaussianBlur result="blur-5" stdDeviation="1.07"/>
      <feFlood flood-color="#8c5819" flood-opacity=".75"/>
      <feComposite in2="blur-5" operator="in"/>
      <feComposite in="SourceGraphic"/>
    </filter>
    <linearGradient id="linear-gradient-19" x1="342.02" y1="136.16" x2="352.21" y2="146.35" xlink:href="#linear-gradient-7"/>
    <linearGradient id="linear-gradient-20" x1="351.55" y1="145.69" x2="341.96" y2="136.11" xlink:href="#linear-gradient-8"/>
    <linearGradient id="linear-gradient-21" x1="343.7" y1="137.84" x2="350.37" y2="144.51" xlink:href="#linear-gradient-9"/>
    <linearGradient id="linear-gradient-22" x1="343.7" y1="137.84" x2="350.37" y2="144.51" xlink:href="#linear-gradient-8"/>
    <linearGradient id="linear-gradient-23" x1="196.64" y1="52.53" x2="196.64" y2="117.2" gradientUnits="userSpaceOnUse">
      <stop offset="0" stop-color="#454545"/>
      <stop offset=".31" stop-color="#333"/>
      <stop offset=".94" stop-color="#050505"/>
      <stop offset="1" stop-color="#000"/>
    </linearGradient>
  </defs>
  <g class="cls-28">
    <g id="OBJECTS">
      <path class="cls-4" d="M46.37,167.06c-6.45,0-12.52-2.01-17.09-5.67l-7.95-6.37c-4.56-3.66-7.08-8.52-7.08-13.69V29.86c0-5.17,2.51-10.04,7.08-13.69l7.95-6.37c4.56-3.66,10.63-5.67,17.09-5.67h300.54c6.45,0,12.52,2.01,17.09,5.67l7.95,6.37c4.56,3.66,7.08,8.52,7.08,13.69v111.46c0,5.17-2.51,10.04-7.08,13.69l-7.95,6.37c-4.56,3.66-10.63,5.67-17.09,5.67H46.37Z"/>
      <path class="cls-10" d="M370.05,17.69l-7.95-6.37c-4.06-3.25-9.45-5.04-15.18-5.04H46.37c-5.74,0-11.13,1.79-15.18,5.04l-7.95,6.37c-4.06,3.25-6.29,7.57-6.29,12.17v111.46c0,4.6,2.23,8.92,6.29,12.17l7.95,6.37c4.06,3.25,9.45,5.04,15.18,5.04h300.54c5.74,0,11.13-1.79,15.18-5.04l7.95-6.37c4.06-3.25,6.29-7.57,6.29-12.17V29.86c0-4.6-2.23-8.92-6.29-12.17Z"/>
      <path class="cls-6" d="M346.91,16.45H46.37c-2.33,0-4.56.74-6.21,2.06l-7.95,6.37c-1.65,1.32-2.57,3.11-2.57,4.97v111.46c0,1.87.92,3.66,2.57,4.97l7.95,6.37c1.65,1.32,3.88,2.06,6.21,2.06h300.54c2.33,0,4.56-.74,6.21-2.06l7.95-6.37c1.65-1.32,2.57-3.11,2.57-4.97V29.86c0-1.87-.92-3.66-2.57-4.97l-7.95-6.37c-1.65-1.32-3.88-2.06-6.21-2.06Z"/>
      <polygon class="cls-9" points="119.4 154.73 100.4 154.73 29.65 98.01 29.65 82.8 119.4 154.73"/>
      <polygon class="cls-9" points="363.64 107.83 363.64 123.05 230.64 16.45 249.63 16.45 363.64 107.83"/>
      <path class="cls-9" d="M347.17,59.97c-1.15.19-2.31.28-3.42.01-.6-.14-1.19-.4-1.54-.82-.2-.24-.31-.52-.47-.78-.7-1.19-2.39-1.96-4.03-1.84-.54.04-1.08.17-1.61.1-.73-.1-1.34-.56-2.08-.61-.23-.02-.49,0-.67-.12-.18-.12-.2-.34-.21-.53,0-.57-.02-1.14-.03-1.71,0-.27,0-.56.16-.8.16-.23.45-.38.71-.55.7-.45,1.18-1.1,1.4-1.8l-42.52-34.08h-19l89.76,71.93v-15.21l-16.47-13.2Z"/>
      <path class="cls-9" d="M336.13,16.45h-7.86c.08.13.14.27.14.41.01.3-.16.58-.21.87-.27,1.43,2.09,2.64,1.55,4.02-1.33,0-2.66-.01-4-.02-.77-.65-1.66-1.22-2.63-1.67-.62-.29-1.38-.52-2.06-.47l42.58,34.13v-15.22l-27.51-22.05Z"/>
      <path class="cls-9" d="M76.62,16.45h-18.99l121.51,97.39c.19.04.37.07.55.12.74.21,1.48.54,2.25.42.54-.08.99-.38,1.47-.59,1.97-.85,4.76-.06,5.62,1.59.16.31.26.64.51.91.43.46,1.19.62,1.89.75,1.54.28,3.08.57,4.62.85.37.07.77.15,1.03.38.4.37.26.94.44,1.4.17.44.63.87.42,1.29-.18.37-.77.49-1.05.82-.45.53.12,1.23.16,1.87.04.54-.31,1.05-.75,1.47-.47.45-1.11.81-1.81,1.04l35.65,28.57h18.98L76.62,16.45Z"/>
      <path class="cls-9" d="M119.87,16.45h-18.98l21.49,17.22c.33-.37.61-.75.67-1.19.45-.13.9-.26,1.35-.39.35-.24.59-.59.67-.95.23-1.04-.69-2.36.33-3.02.43-.15.99,0,1.2.34,1.41,1.32,2.04,3.14,1.69,4.85.92.31,1.84.62,2.76.93.32.11.66.23.89.44.85.79-.36,2.02,0,3.03.83-.21,1.74.28,2.12.91.38.63.36,1.36.34,2.06-.03.81-.07,1.63-.24,2.43l139.28,111.63h18.98L119.87,16.45Z"/>
      <path class="cls-9" d="M319.62,141.88c-1.96.22-3.95.19-5.9-.08-.78-.65-.82-1.65-1.24-2.49-.42-.84-1.78-1.57-2.6-.95-.57,1.04-1.14,2.09-1.72,3.13-1.08-.42-1.47-1.47-1.9-2.37-.43-.9-1.29-1.89-2.49-1.8.11-.77.21-1.57-.03-2.32-.25-.75-.93-1.47-1.88-1.63-.35-.48.5-.98.59-1.53.05-.31-.15-.61-.24-.91-.25-.79.34-1.65,1.23-2.01L163.12,16.45h-18.98l172.52,138.28h18.99l-16.03-12.85Z"/>
      <path class="cls-9" d="M242.38,45.31s-.09.02-.14.03c-.8.12-1.61-.1-2.38-.31-.79-.22-1.58-.44-2.37-.66-.73-.2-1.58-.51-1.7-1.13-.08-.41.21-.79.33-1.19.67.18,1.36.04,2.06-.09l-31.82-25.51h-18.99l22.45,18c.34-.63,1.39-.97,2.17-.66.19.08.37.19.58.21.51.05,1-.41,1.47-.25.62.21.21,1.05.65,1.46.14.12.34.19.53.24,1.03.28,2.13.42,3.23.39.24,0,.49-.02.7.07.14.06.25.16.37.24.65.45,1.8.64,1.82,1.32.01.53-.7.84-1.1,1.26-.58.61-.49,1.45-.37,2.21-.38.21-.8.43-1.23.58l79.54,63.75c.55,0,1.1.04,1.65.12.53.07,1.16.29,1.18.71,1.22.59,2.69.85,4.1.7.4-.04.81-.11,1.21-.07.92.11,1.53.8,2.04,1.42.17.21.35.44.39.69.07.5-.41.93-.77,1.35-.37.41-.62,1.03-.17,1.39.8.46,1.22,1.32,1.01,2.09,0,.03-.02.06-.03.09l46.43,37.21,5.84-4.68c1.32-1.06,2.17-2.43,2.46-3.89l-121.15-97.1Z"/>
      <path class="cls-9" d="M64.7,41.56c-.7.27-1.41.51-2.18.57-.95.08-2-.17-2.53-.8-.38-.45-.47-1.07-1.01-1.4-1.11-.68-2.63.47-4.02.33.2-.45-.31-.9-.83-1.12-.52-.23-1.14-.4-1.41-.82-.23-.36-.14-.79-.15-1.19-.02-1.1-.91-2.16-2.17-2.6-.22-.08-.47-.15-.59-.31-.23-.3.09-.67.35-.95.71-.8.94-1.83.7-2.79l-12.81-10.26-5.84,4.67c-1.33,1.06-2.18,2.43-2.47,3.89l32.15,25.76c.25-.04.49-.08.74-.11-.46-1,.64-2.24,1.97-2.22,1.23.02,2.2.95,2.44,1.91.24.97-.06,1.96-.37,2.92-.08.24-.16.49-.39.67-.08.06-.17.1-.26.14l120.88,96.89h18.99L64.7,41.56Z"/>
      <path class="cls-9" d="M136.8,134.01c-1.58.15-3.17.23-4.76.24-.81,0-1.74-.06-2.2-.59-.51-.59-.14-1.43-.45-2.1-.3-.65-1.2-1.03-2.07-1.06-.87-.04-1.71.19-2.53.42-.01-.27-.03-.54-.04-.81-.69.16-1.49-.35-1.45-.93-.83-.1-1.65-.29-2.42-.56.09-.76.18-1.54-.1-2.27-.37-.94-1.35-1.78-1.21-2.76.12-.83.99-1.42,1.61-2.12L29.65,48.13v15.21l114.01,91.38h18.99l-25.85-20.72Z"/>
      <path class="cls-9" d="M51.55,135.02s0,0,0,.01c-2.19.43-4.48.55-6.73.33.04-1.3-1.39-2.52-3.02-2.57-.86-.03-1.88.19-2.48-.31-.47-.4-.41-1.07-.89-1.47-.39-.32-1.08-.41-1.26-.84-.19-.46.37-.87.59-1.32.57-1.16-1.17-2.62-.21-3.59.24-.24.59-.38.89-.56.04-.02.07-.06.11-.08l-8.92-7.15v15.22l27.51,22.05h18.99l-24.59-19.71Z"/>
      <path class="cls-22" d="M346.91,16.45H46.37c-2.33,0-4.56.74-6.21,2.06l-7.95,6.37c-1.65,1.32-2.57,3.11-2.57,4.97v111.46c0,1.87.92,3.66,2.57,4.97l7.95,6.37c1.65,1.32,3.88,2.06,6.21,2.06h300.54c2.33,0,4.56-.74,6.21-2.06l7.95-6.37c1.65-1.32,2.57-3.11,2.57-4.97V29.86c0-1.87-.92-3.66-2.57-4.97l-7.95-6.37c-1.65-1.32-3.88-2.06-6.21-2.06Z"/>
      <path class="cls-15" d="M346.91,16.45H46.37c-2.33,0-4.56.74-6.21,2.06l-7.95,6.37c-1.65,1.32-2.57,3.11-2.57,4.97v111.46c0,1.87.92,3.66,2.57,4.97l7.95,6.37c1.65,1.32,3.88,2.06,6.21,2.06h300.54c2.33,0,4.56-.74,6.21-2.06l7.95-6.37c1.65-1.32,2.57-3.11,2.57-4.97V29.86c0-1.87-.92-3.66-2.57-4.97l-7.95-6.37c-1.65-1.32-3.88-2.06-6.21-2.06Z"/>
      <path class="cls-14" d="M346.91,16.45H46.37c-2.33,0-4.56.74-6.21,2.06l-7.95,6.37c-1.65,1.32-2.57,3.11-2.57,4.97v111.46c0,1.87.92,3.66,2.57,4.97l7.95,6.37c1.65,1.32,3.88,2.06,6.21,2.06h300.54c2.33,0,4.56-.74,6.21-2.06l7.95-6.37c1.65-1.32,2.57-3.11,2.57-4.97V29.86c0-1.87-.92-3.66-2.57-4.97l-7.95-6.37c-1.65-1.32-3.88-2.06-6.21-2.06Z"/>
      <path class="cls-24" d="M363.64,29.86v111.47c0,.37-.04.73-.11,1.09-.29,1.46-1.14,2.83-2.46,3.89l-5.84,4.68-2.12,1.69c-1.64,1.32-3.88,2.06-6.21,2.06H46.37c-2.32,0-4.56-.74-6.21-2.06l-7.95-6.37c-1.65-1.32-2.57-3.11-2.57-4.98V29.86c0-.37.04-.73.11-1.09.29-1.46,1.14-2.83,2.47-3.89l5.84-4.67,2.11-1.7c1.65-1.32,3.88-2.06,6.21-2.06h300.54c2.33,0,4.57.74,6.21,2.06l7.96,6.37c1.64,1.32,2.57,3.11,2.57,4.98Z"/>
      <g class="cls-30">
        <path class="cls-18" d="M53.49,30.16c0,3.13-3.17,5.67-7.08,5.67s-7.08-2.54-7.08-5.67,3.17-5.67,7.08-5.67,7.08,2.54,7.08,5.67Z"/>
        <path class="cls-23" d="M53.49,30.16c0,3.13-3.17,5.67-7.08,5.67s-7.08-2.54-7.08-5.67,3.17-5.67,7.08-5.67,7.08,2.54,7.08,5.67Z"/>
        <path class="cls-20" d="M51.04,30.16c0,2.05-2.07,3.71-4.63,3.71s-4.63-1.66-4.63-3.71,2.07-3.71,4.63-3.71,4.63,1.66,4.63,3.71Z"/>
        <path class="cls-21" d="M51.04,30.16c0,2.05-2.07,3.71-4.63,3.71s-4.63-1.66-4.63-3.71,2.07-3.71,4.63-3.71,4.63,1.66,4.63,3.71Z"/>
      </g>
      <g class="cls-29">
        <path class="cls-13" d="M353.96,30.16c0,3.13-3.17,5.67-7.08,5.67s-7.08-2.54-7.08-5.67,3.17-5.67,7.08-5.67,7.08,2.54,7.08,5.67Z"/>
        <path class="cls-5" d="M353.96,30.16c0,3.13-3.17,5.67-7.08,5.67s-7.08-2.54-7.08-5.67,3.17-5.67,7.08-5.67,7.08,2.54,7.08,5.67Z"/>
        <path class="cls-16" d="M351.51,30.16c0,2.05-2.07,3.71-4.63,3.71s-4.63-1.66-4.63-3.71,2.07-3.71,4.63-3.71,4.63,1.66,4.63,3.71Z"/>
        <path class="cls-12" d="M351.51,30.16c0,2.05-2.07,3.71-4.63,3.71s-4.63-1.66-4.63-3.71,2.07-3.71,4.63-3.71,4.63,1.66,4.63,3.71Z"/>
      </g>
      <g class="cls-1">
        <path class="cls-11" d="M53.49,141.02c0,3.13-3.17,5.67-7.08,5.67s-7.08-2.54-7.08-5.67,3.17-5.67,7.08-5.67,7.08,2.54,7.08,5.67Z"/>
        <path class="cls-7" d="M53.49,141.02c0,3.13-3.17,5.67-7.08,5.67s-7.08-2.54-7.08-5.67,3.17-5.67,7.08-5.67,7.08,2.54,7.08,5.67Z"/>
        <path class="cls-2" d="M51.04,141.02c0,2.05-2.07,3.71-4.63,3.71s-4.63-1.66-4.63-3.71,2.07-3.71,4.63-3.71,4.63,1.66,4.63,3.71Z"/>
        <path class="cls-19" d="M51.04,141.02c0,2.05-2.07,3.71-4.63,3.71s-4.63-1.66-4.63-3.71,2.07-3.71,4.63-3.71,4.63,1.66,4.63,3.71Z"/>
      </g>
      <g class="cls-31">
        <path class="cls-3" d="M353.96,141.02c0,3.13-3.17,5.67-7.08,5.67s-7.08-2.54-7.08-5.67,3.17-5.67,7.08-5.67,7.08,2.54,7.08,5.67Z"/>
        <path class="cls-25" d="M353.96,141.02c0,3.13-3.17,5.67-7.08,5.67s-7.08-2.54-7.08-5.67,3.17-5.67,7.08-5.67,7.08,2.54,7.08,5.67Z"/>
        <path class="cls-8" d="M351.51,141.02c0,2.05-2.07,3.71-4.63,3.71s-4.63-1.66-4.63-3.71,2.07-3.71,4.63-3.71,4.63,1.66,4.63,3.71Z"/>
        <path class="cls-26" d="M351.51,141.02c0,2.05-2.07,3.71-4.63,3.71s-4.63-1.66-4.63-3.71,2.07-3.71,4.63-3.71,4.63,1.66,4.63,3.71Z"/>
      </g>
      <rect class="cls-17" x="29.65" y="53.72" width="333.99" height="63.74"/>
      <text class="cls-27" transform="translate(63.67 100.55)"><tspan x="0" y="0">ЧТО ТАКОЕ AWP?</tspan></text>
    </g>
  </g>
</svg>