<?xml version="1.0" encoding="UTF-8"?>
<svg id="_2" data-name="2" xmlns="http://www.w3.org/2000/svg" viewBox="0 0 65 65">
  <defs>
    <style>
      .cls-1 {
        fill: #1e81ce;
      }

      .cls-1, .cls-2, .cls-3 {
        stroke-width: 0px;
      }

      .cls-2 {
        fill: #fff;
      }

      .cls-3 {
        fill: #9bc9ff;
      }
    </style>
  </defs>
  <g id="_788_Business_Gear_Settings" data-name="788, Business, Gear, Settings">
    <g>
      <path class="cls-3" d="M36.16,17.47c1.42.37,2.76.97,4.03,1.64l4.92-3.95,4.62,4.62-3.95,4.92c.75,1.27,1.34,2.61,1.64,4.03l6.26.67v6.56l-6.26.67c-.37,1.42-.97,2.76-1.64,4.03l3.95,4.92-4.62,4.62-4.92-3.95c-1.27.75-2.61,1.34-4.03,1.64l-.67,6.26h-6.56l-.67-6.26c-1.42-.37-2.76-.97-4.03-1.64l-4.92,3.95-4.62-4.62,3.95-4.92c-.75-1.27-1.34-2.61-1.64-4.03l-6.26-.67v-6.56l6.26-.67c.37-1.42.97-2.76,1.64-4.03l-3.95-4.92,4.62-4.62,4.92,3.95c1.27-.75,2.61-1.34,4.03-1.64l.67-6.26h6.56l.67,6.26Z"/>
      <path class="cls-2" d="M20.8,32.68c0-6.26,5.14-11.41,11.41-11.41s11.41,5.14,11.41,11.41-5.14,11.41-11.41,11.41-11.41-5.14-11.41-11.41h0Z"/>
      <path class="cls-3" d="M50.84,12.62c1.04,0,1.86.82,1.86,1.86s-.82,1.86-1.86,1.86-1.86-.82-1.86-1.86.82-1.86,1.86-1.86Z"/>
      <path class="cls-3" d="M13.57,49.01c1.27,0,2.31,1.04,2.31,2.31s-1.04,2.31-2.31,2.31-2.31-1.04-2.31-2.31,1.04-2.31,2.31-2.31Z"/>
      <path class="cls-3" d="M41.08,31.34v2.68l-2.61.3c-.15.6-.37,1.12-.67,1.64l1.64,2.01-1.94,1.94-2.01-1.64c-.52.3-1.04.52-1.64.67l-.3,2.61h-2.68l-.3-2.61c-.6-.15-1.12-.37-1.64-.67l-2.01,1.64-1.94-1.94,1.64-2.01c-.3-.52-.52-1.04-.67-1.64l-2.61-.3v-2.68l2.61-.3c.15-.6.37-1.12.67-1.64l-1.64-2.01,1.94-1.94,2.01,1.64c.52-.3,1.04-.52,1.64-.67l.3-2.61h2.68l.3,2.61c.6.15,1.12.37,1.64.67l2.01-1.64,1.94,1.94-1.64,2.01c.3.52.52,1.04.67,1.64l2.61.3ZM36.01,32.68c0-2.09-1.71-3.8-3.8-3.8s-3.8,1.71-3.8,3.8,1.71,3.8,3.8,3.8,3.8-1.71,3.8-3.8Z"/>
      <path class="cls-1" d="M51.51,40.66c.37,0,.67.3.67.67s-.3.67-.67.67-.67-.3-.67-.67.3-.67.67-.67Z"/>
      <path class="cls-1" d="M41.75,50.42c.37,0,.67.3.67.67s-.3.67-.67.67-.67-.3-.67-.67.3-.67.67-.67Z"/>
      <path class="cls-1" d="M40.33,12.7c.37,0,.67.3.67.67s-.3.67-.67.67-.67-.3-.67-.67.3-.67.67-.67Z"/>
      <path class="cls-1" d="M23.56,51.84c.37,0,.67.3.67.67s-.3.67-.67.67-.67-.3-.67-.67.3-.67.67-.67Z"/>
      <path class="cls-1" d="M23.11,11.28c.37,0,.67.3.67.67s-.3.67-.67.67-.67-.3-.67-.67.3-.67.67-.67Z"/>
      <path class="cls-1" d="M13.34,15.91c.37,0,.67.3.67.67s-.3.67-.67.67-.67-.3-.67-.67.3-.67.67-.67Z"/>
      <path class="cls-1" d="M12.89,39.69c.37,0,.67.3.67.67s-.3.67-.67.67-.67-.3-.67-.67.3-.67.67-.67Z"/>
      <path class="cls-1" d="M32.2,36.93c-2.39,0-4.32-1.94-4.32-4.25s1.94-4.32,4.32-4.32,4.25,1.94,4.25,4.32-1.86,4.25-4.25,4.25ZM32.2,29.32c-1.86,0-3.35,1.49-3.35,3.35s1.49,3.35,3.35,3.35,3.35-1.49,3.35-3.35-1.49-3.35-3.35-3.35Z"/>
      <path class="cls-1" d="M32.2,44.53c-6.56,0-11.85-5.29-11.85-11.85s5.37-11.85,11.85-11.85,11.85,5.29,11.85,11.85-5.29,11.85-11.85,11.85ZM32.2,21.72c-6.04,0-10.96,4.92-10.96,10.96s4.92,10.96,10.96,10.96,10.96-4.92,10.96-10.96-4.92-10.96-10.96-10.96Z"/>
      <path class="cls-1" d="M35.48,54.6h-6.56c-.22,0-.45-.15-.45-.45l-.6-5.96c-1.27-.37-2.46-.82-3.58-1.49l-4.7,3.88c-.15.15-.45.15-.6,0l-4.62-4.62c-.15-.15-.15-.45,0-.6l3.8-4.62c-.67-1.12-1.12-2.31-1.49-3.58l-5.96-.6c-.22,0-.45-.22-.45-.45v-6.56c0-.22.15-.45.45-.45l5.96-.6c.37-1.27.82-2.46,1.49-3.58l-3.88-4.85c-.15-.15-.15-.45,0-.6l4.62-4.62c.15-.15.45-.15.6,0l4.62,3.8c1.12-.67,2.31-1.12,3.58-1.49l.6-5.96c0-.22.22-.45.45-.45h6.56c.22,0,.45.15.45.45l.6,5.96c1.19.37,2.39.82,3.58,1.49l4.62-3.8c.15-.15.45-.15.6,0l4.62,4.62c.15.15.15.45,0,.6l-3.8,4.62c.67,1.12,1.12,2.31,1.49,3.58l5.96.6c.22,0,.45.22.45.45v6.56c0,.22-.15.45-.45.45l-5.96.6c-.37,1.19-.82,2.39-1.49,3.58l3.8,4.62c.15.15.15.45,0,.6l-4.62,4.62c-.15.15-.45.15-.6,0l-4.62-3.8c-1.12.67-2.31,1.12-3.58,1.49l-.6,5.96c.15.45-.07.6-.3.6ZM29.37,53.7h5.74l.6-5.82c0-.22.15-.37.37-.37,1.34-.37,2.68-.89,3.88-1.64.15-.07.37-.07.52.07l4.55,3.73,4.03-4.03-3.73-4.55c-.15-.15-.15-.37-.07-.52.75-1.27,1.27-2.53,1.64-3.88.07-.22.22-.3.37-.37l5.82-.6v-5.74l-5.82-.6c-.22,0-.37-.15-.37-.37-.37-1.34-.89-2.68-1.64-3.88-.07-.15-.07-.37.07-.52l3.73-4.55-4.03-4.03-4.55,3.73c-.15.15-.37.15-.52.07-1.27-.75-2.54-1.27-3.88-1.64-.22-.07-.3-.22-.37-.37l-.6-5.82h-5.74l-.6,5.82c0,.22-.15.37-.37.37-1.34.37-2.68.89-3.88,1.64-.15.07-.37.07-.52-.07l-4.55-3.73-4.03,4.03,3.73,4.55c.15.15.15.37.07.52-.75,1.27-1.27,2.53-1.64,3.88-.08.22-.22.3-.37.37l-5.82.6v5.74l5.82.6c.22,0,.37.15.37.37.37,1.34.89,2.68,1.64,3.88.08.15.08.37-.07.52l-3.73,4.55,4.03,4.03,4.55-3.73c.15-.15.37-.15.52-.07,1.27.75,2.53,1.27,3.88,1.64.22.07.3.22.37.37l.6,5.82Z"/>
      <path class="cls-1" d="M33.55,42h-2.68c-.22,0-.45-.15-.45-.45l-.22-2.31c-.37-.15-.82-.3-1.19-.52l-1.79,1.42c-.15.15-.45.15-.6,0l-1.94-1.94c-.15-.15-.15-.45,0-.6l1.42-1.79c-.22-.37-.37-.75-.52-1.19l-2.31-.15c-.22,0-.45-.22-.45-.45v-2.68c0-.22.15-.45.45-.45l2.31-.22c.15-.45.3-.82.52-1.19l-1.42-1.79c-.15-.15-.15-.45,0-.6l1.94-1.94c.15-.15.45-.15.6,0l1.79,1.42c.37-.22.75-.37,1.19-.52l.22-2.31c0-.22.22-.45.45-.45h2.68c.22,0,.45.15.45.45l.22,2.31c.37.15.82.3,1.19.52l1.79-1.42c.15-.15.45-.15.6,0l1.94,1.94c.15.15.15.45,0,.6l-1.42,1.79c.22.37.37.75.52,1.19l2.31.22c.22,0,.45.22.45.45v2.68c0,.22-.15.45-.45.45l-2.31.22c-.15.37-.3.82-.52,1.19l1.42,1.79c.15.15.15.45,0,.6l-1.94,1.94c-.15.15-.45.15-.6,0l-1.79-1.42c-.37.22-.75.37-1.19.52l-.22,2.31c0,.22-.22.37-.45.37ZM31.24,41.1h1.86l.22-2.16c0-.22.15-.37.37-.37.52-.15,1.04-.37,1.57-.67.15-.07.37-.07.52.07l1.71,1.42,1.34-1.34-1.42-1.79c-.15-.15-.15-.37-.07-.52.3-.52.52-1.04.67-1.57.08-.22.22-.3.37-.37l2.16-.22v-1.86l-2.16-.22c-.22,0-.37-.15-.37-.37-.15-.52-.37-1.04-.67-1.57-.08-.15-.08-.37.07-.52l1.42-1.71-1.34-1.34-1.71,1.49c-.15.15-.37.15-.52.07-.52-.3-1.04-.52-1.57-.67-.22-.07-.3-.22-.37-.37l-.22-2.16h-1.86l-.22,2.16c0,.22-.15.37-.37.37-.52.15-1.04.37-1.57.67-.15.07-.37.07-.52-.07l-1.71-1.34-1.34,1.34,1.34,1.71c.15.15.15.37.08.52-.3.52-.52,1.04-.67,1.57-.07.22-.22.3-.37.37l-2.16.22v1.86l2.16.22c.22,0,.37.15.37.37.15.52.37,1.04.67,1.57.07.15.07.37-.08.52l-1.34,1.71,1.34,1.34,1.71-1.42c.15-.15.37-.15.52-.07.52.3,1.04.52,1.57.67.22.07.3.22.37.37l.22,2.09Z"/>
      <path class="cls-1" d="M32.2,21.72c-.22,0-.45-.22-.45-.45v-2.54c0-.22.22-.45.45-.45s.45.22.45.45v2.54c0,.22-.15.45-.45.45Z"/>
      <path class="cls-1" d="M32.2,47.14c-.22,0-.45-.22-.45-.45v-2.53c0-.22.22-.45.45-.45s.45.22.45.45v2.53c0,.22-.15.45-.45.45Z"/>
      <path class="cls-1" d="M20.8,33.13h-2.54c-.22,0-.45-.22-.45-.45s.22-.45.45-.45h2.54c.22,0,.45.22.45.45s-.22.45-.45.45Z"/>
      <path class="cls-1" d="M46.22,33.13h-2.53c-.22,0-.45-.22-.45-.45s.22-.45.45-.45h2.53c.22,0,.45.22.45.45s-.22.45-.45.45Z"/>
      <path class="cls-1" d="M50.84,16.87c-1.27,0-2.31-1.04-2.31-2.31s1.04-2.31,2.31-2.31,2.31,1.04,2.31,2.31c0,1.19-1.04,2.31-2.31,2.31ZM50.84,13.15c-.75,0-1.42.6-1.42,1.42s.6,1.42,1.42,1.42,1.42-.6,1.42-1.42-.67-1.42-1.42-1.42Z"/>
      <path class="cls-1" d="M13.57,54.15c-1.57,0-2.83-1.27-2.83-2.83s1.27-2.83,2.83-2.83,2.83,1.27,2.83,2.83-1.27,2.83-2.83,2.83ZM13.57,49.45c-1.04,0-1.86.82-1.86,1.86s.82,1.86,1.86,1.86,1.86-.82,1.86-1.86-.82-1.86-1.86-1.86Z"/>
      <path class="cls-3" d="M36.16,17.47c1.42.37,2.76.97,4.03,1.64l4.92-3.95,4.62,4.62-3.95,4.92c.75,1.27,1.34,2.61,1.64,4.03l6.26.67v6.56l-6.26.67c-.37,1.42-.97,2.76-1.64,4.03l3.95,4.92-4.62,4.62-4.92-3.95c-1.27.75-2.61,1.34-4.03,1.64l-.67,6.26h-6.56l-.67-6.26c-1.42-.37-2.76-.97-4.03-1.64l-4.92,3.95-4.62-4.62,3.95-4.92c-.75-1.27-1.34-2.61-1.64-4.03l-6.26-.67v-6.56l6.26-.67c.37-1.42.97-2.76,1.64-4.03l-3.95-4.92,4.62-4.62,4.92,3.95c1.27-.75,2.61-1.34,4.03-1.64l.67-6.26h6.56l.67,6.26Z"/>
      <path class="cls-2" d="M20.8,32.68c0-6.26,5.14-11.41,11.41-11.41s11.41,5.14,11.41,11.41-5.14,11.41-11.41,11.41-11.41-5.14-11.41-11.41h0Z"/>
      <path class="cls-3" d="M50.84,12.62c1.04,0,1.86.82,1.86,1.86s-.82,1.86-1.86,1.86-1.86-.82-1.86-1.86.82-1.86,1.86-1.86Z"/>
      <path class="cls-3" d="M13.57,49.01c1.27,0,2.31,1.04,2.31,2.31s-1.04,2.31-2.31,2.31-2.31-1.04-2.31-2.31,1.04-2.31,2.31-2.31Z"/>
      <path class="cls-3" d="M41.08,31.34v2.68l-2.61.3c-.15.6-.37,1.12-.67,1.64l1.64,2.01-1.94,1.94-2.01-1.64c-.52.3-1.04.52-1.64.67l-.3,2.61h-2.68l-.3-2.61c-.6-.15-1.12-.37-1.64-.67l-2.01,1.64-1.94-1.94,1.64-2.01c-.3-.52-.52-1.04-.67-1.64l-2.61-.3v-2.68l2.61-.3c.15-.6.37-1.12.67-1.64l-1.64-2.01,1.94-1.94,2.01,1.64c.52-.3,1.04-.52,1.64-.67l.3-2.61h2.68l.3,2.61c.6.15,1.12.37,1.64.67l2.01-1.64,1.94,1.94-1.64,2.01c.3.52.52,1.04.67,1.64l2.61.3ZM36.01,32.68c0-2.09-1.71-3.8-3.8-3.8s-3.8,1.71-3.8,3.8,1.71,3.8,3.8,3.8,3.8-1.71,3.8-3.8Z"/>
      <path class="cls-1" d="M51.51,40.66c.37,0,.67.3.67.67s-.3.67-.67.67-.67-.3-.67-.67.3-.67.67-.67Z"/>
      <path class="cls-1" d="M41.75,50.42c.37,0,.67.3.67.67s-.3.67-.67.67-.67-.3-.67-.67.3-.67.67-.67Z"/>
      <path class="cls-1" d="M40.33,12.7c.37,0,.67.3.67.67s-.3.67-.67.67-.67-.3-.67-.67.3-.67.67-.67Z"/>
      <path class="cls-1" d="M23.56,51.84c.37,0,.67.3.67.67s-.3.67-.67.67-.67-.3-.67-.67.3-.67.67-.67Z"/>
      <path class="cls-1" d="M23.11,11.28c.37,0,.67.3.67.67s-.3.67-.67.67-.67-.3-.67-.67.3-.67.67-.67Z"/>
      <path class="cls-1" d="M13.34,15.91c.37,0,.67.3.67.67s-.3.67-.67.67-.67-.3-.67-.67.3-.67.67-.67Z"/>
      <path class="cls-1" d="M12.89,39.69c.37,0,.67.3.67.67s-.3.67-.67.67-.67-.3-.67-.67.3-.67.67-.67Z"/>
      <path class="cls-1" d="M32.2,36.93c-2.39,0-4.32-1.94-4.32-4.25s1.94-4.32,4.32-4.32,4.25,1.94,4.25,4.32-1.86,4.25-4.25,4.25ZM32.2,29.32c-1.86,0-3.35,1.49-3.35,3.35s1.49,3.35,3.35,3.35,3.35-1.49,3.35-3.35-1.49-3.35-3.35-3.35Z"/>
      <path class="cls-1" d="M32.2,44.53c-6.56,0-11.85-5.29-11.85-11.85s5.37-11.85,11.85-11.85,11.85,5.29,11.85,11.85-5.29,11.85-11.85,11.85ZM32.2,21.72c-6.04,0-10.96,4.92-10.96,10.96s4.92,10.96,10.96,10.96,10.96-4.92,10.96-10.96-4.92-10.96-10.96-10.96Z"/>
      <path class="cls-1" d="M35.48,54.6h-6.56c-.22,0-.45-.15-.45-.45l-.6-5.96c-1.27-.37-2.46-.82-3.58-1.49l-4.7,3.88c-.15.15-.45.15-.6,0l-4.62-4.62c-.15-.15-.15-.45,0-.6l3.8-4.62c-.67-1.12-1.12-2.31-1.49-3.58l-5.96-.6c-.22,0-.45-.22-.45-.45v-6.56c0-.22.15-.45.45-.45l5.96-.6c.37-1.27.82-2.46,1.49-3.58l-3.88-4.85c-.15-.15-.15-.45,0-.6l4.62-4.62c.15-.15.45-.15.6,0l4.62,3.8c1.12-.67,2.31-1.12,3.58-1.49l.6-5.96c0-.22.22-.45.45-.45h6.56c.22,0,.45.15.45.45l.6,5.96c1.19.37,2.39.82,3.58,1.49l4.62-3.8c.15-.15.45-.15.6,0l4.62,4.62c.15.15.15.45,0,.6l-3.8,4.62c.67,1.12,1.12,2.31,1.49,3.58l5.96.6c.22,0,.45.22.45.45v6.56c0,.22-.15.45-.45.45l-5.96.6c-.37,1.19-.82,2.39-1.49,3.58l3.8,4.62c.15.15.15.45,0,.6l-4.62,4.62c-.15.15-.45.15-.6,0l-4.62-3.8c-1.12.67-2.31,1.12-3.58,1.49l-.6,5.96c.15.45-.07.6-.3.6ZM29.37,53.7h5.74l.6-5.82c0-.22.15-.37.37-.37,1.34-.37,2.68-.89,3.88-1.64.15-.07.37-.07.52.07l4.55,3.73,4.03-4.03-3.73-4.55c-.15-.15-.15-.37-.07-.52.75-1.27,1.27-2.53,1.64-3.88.07-.22.22-.3.37-.37l5.82-.6v-5.74l-5.82-.6c-.22,0-.37-.15-.37-.37-.37-1.34-.89-2.68-1.64-3.88-.07-.15-.07-.37.07-.52l3.73-4.55-4.03-4.03-4.55,3.73c-.15.15-.37.15-.52.07-1.27-.75-2.54-1.27-3.88-1.64-.22-.07-.3-.22-.37-.37l-.6-5.82h-5.74l-.6,5.82c0,.22-.15.37-.37.37-1.34.37-2.68.89-3.88,1.64-.15.07-.37.07-.52-.07l-4.55-3.73-4.03,4.03,3.73,4.55c.15.15.15.37.07.52-.75,1.27-1.27,2.53-1.64,3.88-.08.22-.22.3-.37.37l-5.82.6v5.74l5.82.6c.22,0,.37.15.37.37.37,1.34.89,2.68,1.64,3.88.08.15.08.37-.07.52l-3.73,4.55,4.03,4.03,4.55-3.73c.15-.15.37-.15.52-.07,1.27.75,2.53,1.27,3.88,1.64.22.07.3.22.37.37l.6,5.82Z"/>
      <path class="cls-1" d="M33.55,42h-2.68c-.22,0-.45-.15-.45-.45l-.22-2.31c-.37-.15-.82-.3-1.19-.52l-1.79,1.42c-.15.15-.45.15-.6,0l-1.94-1.94c-.15-.15-.15-.45,0-.6l1.42-1.79c-.22-.37-.37-.75-.52-1.19l-2.31-.15c-.22,0-.45-.22-.45-.45v-2.68c0-.22.15-.45.45-.45l2.31-.22c.15-.45.3-.82.52-1.19l-1.42-1.79c-.15-.15-.15-.45,0-.6l1.94-1.94c.15-.15.45-.15.6,0l1.79,1.42c.37-.22.75-.37,1.19-.52l.22-2.31c0-.22.22-.45.45-.45h2.68c.22,0,.45.15.45.45l.22,2.31c.37.15.82.3,1.19.52l1.79-1.42c.15-.15.45-.15.6,0l1.94,1.94c.15.15.15.45,0,.6l-1.42,1.79c.22.37.37.75.52,1.19l2.31.22c.22,0,.45.22.45.45v2.68c0,.22-.15.45-.45.45l-2.31.22c-.15.37-.3.82-.52,1.19l1.42,1.79c.15.15.15.45,0,.6l-1.94,1.94c-.15.15-.45.15-.6,0l-1.79-1.42c-.37.22-.75.37-1.19.52l-.22,2.31c0,.22-.22.37-.45.37ZM31.24,41.1h1.86l.22-2.16c0-.22.15-.37.37-.37.52-.15,1.04-.37,1.57-.67.15-.07.37-.07.52.07l1.71,1.42,1.34-1.34-1.42-1.79c-.15-.15-.15-.37-.07-.52.3-.52.52-1.04.67-1.57.08-.22.22-.3.37-.37l2.16-.22v-1.86l-2.16-.22c-.22,0-.37-.15-.37-.37-.15-.52-.37-1.04-.67-1.57-.08-.15-.08-.37.07-.52l1.42-1.71-1.34-1.34-1.71,1.49c-.15.15-.37.15-.52.07-.52-.3-1.04-.52-1.57-.67-.22-.07-.3-.22-.37-.37l-.22-2.16h-1.86l-.22,2.16c0,.22-.15.37-.37.37-.52.15-1.04.37-1.57.67-.15.07-.37.07-.52-.07l-1.71-1.34-1.34,1.34,1.34,1.71c.15.15.15.37.08.52-.3.52-.52,1.04-.67,1.57-.07.22-.22.3-.37.37l-2.16.22v1.86l2.16.22c.22,0,.37.15.37.37.15.52.37,1.04.67,1.57.07.15.07.37-.08.52l-1.34,1.71,1.34,1.34,1.71-1.42c.15-.15.37-.15.52-.07.52.3,1.04.52,1.57.67.22.07.3.22.37.37l.22,2.09Z"/>
      <path class="cls-1" d="M32.2,21.72c-.22,0-.45-.22-.45-.45v-2.54c0-.22.22-.45.45-.45s.45.22.45.45v2.54c0,.22-.15.45-.45.45Z"/>
      <path class="cls-1" d="M32.2,47.14c-.22,0-.45-.22-.45-.45v-2.53c0-.22.22-.45.45-.45s.45.22.45.45v2.53c0,.22-.15.45-.45.45Z"/>
      <path class="cls-1" d="M20.8,33.13h-2.54c-.22,0-.45-.22-.45-.45s.22-.45.45-.45h2.54c.22,0,.45.22.45.45s-.22.45-.45.45Z"/>
      <path class="cls-1" d="M46.22,33.13h-2.53c-.22,0-.45-.22-.45-.45s.22-.45.45-.45h2.53c.22,0,.45.22.45.45s-.22.45-.45.45Z"/>
      <path class="cls-1" d="M50.84,16.87c-1.27,0-2.31-1.04-2.31-2.31s1.04-2.31,2.31-2.31,2.31,1.04,2.31,2.31c0,1.19-1.04,2.31-2.31,2.31ZM50.84,13.15c-.75,0-1.42.6-1.42,1.42s.6,1.42,1.42,1.42,1.42-.6,1.42-1.42-.67-1.42-1.42-1.42Z"/>
      <path class="cls-1" d="M13.57,54.15c-1.57,0-2.83-1.27-2.83-2.83s1.27-2.83,2.83-2.83,2.83,1.27,2.83,2.83-1.27,2.83-2.83,2.83ZM13.57,49.45c-1.04,0-1.86.82-1.86,1.86s.82,1.86,1.86,1.86,1.86-.82,1.86-1.86-.82-1.86-1.86-1.86Z"/>
    </g>
  </g>
</svg>