<?xml version="1.0" encoding="UTF-8"?>
<svg id="_1" data-name="1" xmlns="http://www.w3.org/2000/svg" viewBox="0 0 65 65">
  <defs>
    <style>
      .cls-1 {
        fill: #1e81ce;
      }

      .cls-1, .cls-2, .cls-3 {
        stroke-width: 0px;
      }

      .cls-2 {
        fill: #fff;
      }

      .cls-3 {
        fill: #9bc9ff;
      }
    </style>
  </defs>
  <g id="_780_Bag_Briefcase_Business_Document" data-name="780, Bag, Briefcase, Business, Document">
    <g>
      <path class="cls-3" d="M37.92,25.94v4.51l-5.56.68.98,3.31h-7.07l.98-3.31-6.24-.75v-4.36c.6-.45.98-1.13.98-1.88v-2.93h-.98v-4.74h16.91v4.74h-.98v2.86c.08.75.38,1.43.98,1.88Z"/>
      <path class="cls-2" d="M50.62,13.24c1.05,0,1.88.83,1.88,1.88s-.83,1.88-1.88,1.88-1.88-.83-1.88-1.88.83-1.88,1.88-1.88Z"/>
      <path class="cls-2" d="M17.25,45.18c1.83,0,3.31,1.48,3.31,3.31s-1.48,3.31-3.31,3.31-3.31-1.48-3.31-3.31,1.48-3.31,3.31-3.31Z"/>
      <path class="cls-3" d="M35.66,13.69h-11.73c0-.75.3-1.5.83-2.03.53-.53,1.2-.83,2.03-.83h6.09c1.5.08,2.78,1.28,2.78,2.86Z"/>
      <rect class="cls-2" x="24.76" y="19.78" width="9.4" height="4.74"/>
      <path class="cls-2" d="M39.35,23.09h2.33v.98c0,.75-.38,1.43-.98,1.88-.38.3-.9.45-1.43.45s-1.05-.15-1.43-.45c-.6-.45-.98-1.13-.98-1.88v-.98h2.48Z"/>
      <path class="cls-2" d="M19.58,23.09h2.33v.98c0,.75-.38,1.43-.98,1.88-.38.3-.9.45-1.43.45s-1.05-.15-1.43-.45c-.6-.45-.98-1.13-.98-1.88v-.98h2.48Z"/>
      <polygon class="cls-3" points="41.68 21.21 41.68 23.09 39.35 23.09 39.35 21.21 40.77 21.21 41.68 21.21"/>
      <polygon class="cls-3" points="39.35 21.21 39.35 23.09 37.02 23.09 37.02 21.21 37.92 21.21 39.35 21.21"/>
      <polygon class="cls-3" points="21.98 21.21 21.98 23.09 19.58 23.09 19.58 21.21 21.01 21.21 21.98 21.21"/>
      <polygon class="cls-3" points="19.58 21.21 19.58 23.09 17.25 23.09 17.25 21.21 18.22 21.21 19.58 21.21"/>
      <polygon class="cls-2" points="40.77 16.55 40.77 21.21 39.35 21.21 37.92 21.21 37.92 16.55 40.77 16.55"/>
      <path class="cls-2" d="M40.77,25.94v4.13l-2.86.38v-4.51c.38.3.9.45,1.43.45s.98-.23,1.43-.45Z"/>
      <polygon class="cls-2" points="21.01 16.55 21.01 21.21 19.58 21.21 18.22 21.21 18.22 16.55 21.01 16.55"/>
      <path class="cls-2" d="M21.01,25.94v4.36l-2.86-.38v-4.06c.38.3.9.45,1.43.45s1.05-.15,1.43-.38Z"/>
      <path class="cls-3" d="M31.45,34.36v1.2c0,.9-.75,1.65-1.65,1.65s-1.65-.75-1.65-1.65v-1.2h3.31Z"/>
      <path class="cls-2" d="M14.92,38.57v-9.02l3.31.38,2.86.38,6.24.75-1.05,3.31h1.88v1.2c0,.9.75,1.65,1.65,1.65s1.65-.75,1.65-1.65v-1.2h1.88l-.98-3.31,5.56-.68,2.86-.38,3.83-.45v3.46h-9.02v4.74h-2.86v4.74h-15.18c-1.5,0-2.71-1.2-2.71-2.71v-1.2h.08Z"/>
      <path class="cls-3" d="M18.22,25.94v4.06l-3.31-.38-.68-.15c-1.13-.15-2.03-1.13-2.03-2.33v-8.34c0-1.28,1.05-2.33,2.33-2.33h3.68v4.74h-.98v2.86c0,.75.38,1.43.98,1.88Z"/>
      <path class="cls-3" d="M47.39,18.8v8.27c0,1.2-.9,2.18-2.03,2.33l-.83.08-3.83.45v-4.13c.6-.45.98-1.13.98-1.88v-2.71h-.98v-4.74h4.36c1.28.07,2.33,1.05,2.33,2.33Z"/>
      <polygon class="cls-2" points="35.59 37.67 35.59 52.25 35.51 52.25 32.73 52.25 32.73 42.33 32.73 37.67 35.59 37.67"/>
      <path class="cls-2" d="M52.95,37.22h-4.21v-4.21c1.73,1.65,2.48,2.41,4.21,4.21Z"/>
      <polygon class="cls-3" points="52.95 37.22 52.95 54.13 35.59 54.13 35.59 52.25 35.59 37.67 35.59 32.93 44.61 32.93 48.74 32.93 48.74 37.22 52.95 37.22"/>
      <path class="cls-1" d="M52.73,19.85c.37,0,.68.3.68.68s-.3.68-.68.68-.68-.3-.68-.68.3-.68.68-.68Z"/>
      <circle class="cls-1" cx="50.4" cy="28.95" r=".68"/>
      <path class="cls-1" d="M41,11.81c.37,0,.68.3.68.68s-.3.68-.68.68-.68-.3-.68-.68.3-.68.68-.68Z"/>
      <path class="cls-1" d="M28.75,49.92c.37,0,.68.3.68.68s-.3.68-.68.68-.68-.3-.68-.68.3-.68.68-.68Z"/>
      <path class="cls-1" d="M15.14,11.36c.37,0,.68.3.68.68s-.3.68-.68.68-.68-.3-.68-.68.3-.68.68-.68Z"/>
      <path class="cls-1" d="M11.84,39.1c.37,0,.68.3.68.68s-.3.68-.68.68-.68-.3-.68-.68.3-.68.68-.68Z"/>
      <path class="cls-1" d="M29.8,37.67c-1.2,0-2.1-.98-2.1-2.1v-1.2c0-.23.23-.45.45-.45s.45.23.45.45v1.2c0,.68.53,1.2,1.2,1.2s1.2-.53,1.2-1.2v-1.2c0-.23.22-.45.45-.45s.45.23.45.45v1.2c0,1.13-.98,2.1-2.1,2.1Z"/>
      <path class="cls-1" d="M35.66,14.14h-1.88c-.23,0-.45-.23-.45-.45s.23-.45.45-.45h1.35c-.23-1.05-1.2-1.88-2.33-1.88h-6.09c-.6,0-1.2.23-1.65.68-.3.3-.53.75-.68,1.2h1.35c.23,0,.45.23.45.45s-.23.45-.45.45h-1.88c-.23,0-.45-.23-.45-.45,0-.9.38-1.73.98-2.33.6-.6,1.43-.98,2.33-.98h6.09c1.8,0,3.31,1.5,3.31,3.31,0,.23-.23.45-.45.45Z"/>
      <path class="cls-1" d="M33.78,17c-.23,0-.45-.23-.45-.45v-2.33h-7.07v2.33c0,.23-.22.45-.45.45s-.45-.23-.45-.45v-2.86c0-.23.23-.45.45-.45h7.97c.23,0,.45.23.45.45v2.86c0,.23-.23.45-.45.45Z"/>
      <path class="cls-1" d="M21.01,21.66c-.23,0-.45-.23-.45-.45v-4.74c0-.23.23-.45.45-.45s.45.23.45.45v4.74c0,.23-.23.45-.45.45Z"/>
      <path class="cls-1" d="M18.22,21.66c-.22,0-.45-.23-.45-.45v-4.74c0-.23.23-.45.45-.45s.45.23.45.45v4.74c0,.23-.23.45-.45.45Z"/>
      <path class="cls-1" d="M19.58,26.84c-.6,0-1.2-.23-1.73-.6-.75-.53-1.13-1.35-1.13-2.26v-2.78c0-.23.23-.45.45-.45h4.74c.23,0,.45.23.45.45v2.86c0,.9-.38,1.73-1.13,2.26-.45.3-1.05.53-1.65.53ZM17.7,21.66v2.33c0,.6.3,1.13.75,1.5.3.23.75.38,1.13.38s.83-.15,1.13-.38c.45-.38.75-.9.75-1.5v-2.33h-3.76Z"/>
      <path class="cls-1" d="M21.98,23.54h-4.74c-.23,0-.45-.23-.45-.45s.23-.45.45-.45h4.74c.23,0,.45.23.45.45s-.23.45-.45.45Z"/>
      <path class="cls-1" d="M19.58,24.96c-.23,0-.45-.23-.45-.45v-3.31c0-.23.23-.45.45-.45s.45.23.45.45v3.31c.08.23-.15.45-.45.45Z"/>
      <path class="cls-1" d="M40.77,21.66c-.23,0-.45-.23-.45-.45v-4.74c0-.23.23-.45.45-.45s.45.23.45.45v4.74c0,.23-.22.45-.45.45Z"/>
      <path class="cls-1" d="M37.92,21.66c-.23,0-.45-.23-.45-.45v-4.74c0-.23.23-.45.45-.45s.45.23.45.45v4.74c0,.23-.22.45-.45.45Z"/>
      <path class="cls-1" d="M21.01,30.75c-.23,0-.45-.23-.45-.45v-4.36c0-.23.23-.45.45-.45s.45.23.45.45v4.36c0,.23-.23.45-.45.45Z"/>
      <path class="cls-1" d="M18.22,30.45c-.22,0-.45-.23-.45-.45v-4.06c0-.23.23-.45.45-.45s.45.23.45.45v4.06c0,.23-.23.45-.45.45Z"/>
      <path class="cls-1" d="M40.77,30.53c-.23,0-.45-.23-.45-.45v-4.13c0-.23.23-.45.45-.45s.45.23.45.45v4.13c0,.23-.22.45-.45.45Z"/>
      <path class="cls-1" d="M37.92,30.83c-.23,0-.45-.23-.45-.45v-4.51c0-.23.23-.45.45-.45s.45.23.45.45v4.51c0,.23-.22.45-.45.45Z"/>
      <path class="cls-1" d="M39.35,26.84c-.6,0-1.2-.23-1.73-.6-.75-.53-1.13-1.35-1.13-2.26v-2.78c0-.23.23-.45.45-.45h4.74c.23,0,.45.23.45.45v2.86c0,.9-.38,1.73-1.13,2.26-.45.3-1.05.53-1.65.53ZM37.47,21.66v2.33c0,.6.3,1.13.75,1.5.3.23.75.38,1.13.38s.83-.15,1.13-.38c.45-.38.75-.9.75-1.5v-2.33h-3.76Z"/>
      <path class="cls-1" d="M41.68,23.54h-4.74c-.23,0-.45-.23-.45-.45s.23-.45.45-.45h4.74c.23,0,.45.23.45.45s-.22.45-.45.45Z"/>
      <path class="cls-1" d="M39.35,24.96c-.23,0-.45-.23-.45-.45v-3.31c0-.23.23-.45.45-.45s.45.23.45.45v3.31c0,.23-.23.45-.45.45Z"/>
      <path class="cls-1" d="M33.33,34.81h-7.07c-.15,0-.3-.08-.38-.15-.08-.15-.15-.3-.08-.38l.75-2.78-12.48-1.58c-1.43-.15-2.48-1.35-2.48-2.78v-8.27c0-1.58,1.28-2.78,2.78-2.78h30.67c1.58,0,2.78,1.28,2.78,2.78v8.27c0,1.43-1.05,2.63-2.48,2.78l-12.48,1.58.75,2.78c.08.15,0,.3-.08.38.08.08-.07.15-.23.15ZM26.87,33.91h5.79l-.75-2.71c-.07-.15,0-.3.08-.38.08-.15.23-.23.3-.23l13-1.65c.9-.15,1.65-.9,1.65-1.8v-8.27c0-1.05-.83-1.88-1.88-1.88H14.47c-1.05,0-1.88.83-1.88,1.88v8.27c0,.9.68,1.73,1.65,1.8l13,1.65c.15,0,.23.07.3.23.08.15.08.23.08.38l-.75,2.71Z"/>
      <path class="cls-1" d="M34.16,24.96h-9.4c-.22,0-.45-.23-.45-.45v-4.74c0-.23.23-.45.45-.45h9.4c.23,0,.45.23.45.45v4.74c0,.23-.23.45-.45.45ZM25.22,24.06h8.49v-3.76h-8.49v3.76Z"/>
      <path class="cls-1" d="M32.73,42.85h-15.18c-1.73,0-3.16-1.43-3.16-3.16v-10c0-.23.23-.45.45-.45s.45.23.45.45v10c0,1.2.98,2.18,2.18,2.18h15.18c.23,0,.45.23.45.45s-.08.53-.38.53Z"/>
      <path class="cls-1" d="M44.61,33.46c-.23,0-.45-.23-.45-.45v-3.31c0-.23.23-.45.45-.45s.45.23.45.45v3.31c0,.23-.23.45-.45.45Z"/>
      <path class="cls-1" d="M35.51,52.7h-2.71c-.22,0-.45-.23-.45-.45v-14.58c0-.23.23-.45.45-.45h2.86c.23,0,.45.23.45.45s-.23.45-.45.45h-2.33v13.6h2.25c.23,0,.45.23.45.45-.07.3-.3.53-.53.53Z"/>
      <path class="cls-1" d="M52.95,54.58h-17.36c-.23,0-.45-.23-.45-.45v-21.2c0-.23.23-.45.45-.45h13.15c.15,0,.23.07.3.15l4.21,4.21c.08.08.15.23.15.3v16.91c0,.3-.23.53-.45.53ZM36.04,53.6h16.46v-16.24l-3.98-3.98h-12.48v20.22Z"/>
      <path class="cls-1" d="M52.95,37.67h-4.21c-.23,0-.45-.23-.45-.45v-4.21c0-.23.23-.45.45-.45s.45.23.45.45v3.76h3.76c.23,0,.45.23.45.45s-.23.45-.45.45Z"/>
      <path class="cls-1" d="M49.64,49.39h-10.75c-.23,0-.45-.23-.45-.45s.23-.45.45-.45h10.82c.22,0,.45.23.45.45s-.23.45-.53.45Z"/>
      <path class="cls-1" d="M49.64,47.06h-10.75c-.23,0-.45-.23-.45-.45s.23-.45.45-.45h10.82c.22,0,.45.23.45.45s-.23.45-.53.45Z"/>
      <path class="cls-1" d="M49.64,44.73h-10.75c-.23,0-.45-.23-.45-.45s.23-.45.45-.45h10.82c.22,0,.45.23.45.45s-.23.45-.53.45Z"/>
      <path class="cls-1" d="M44.53,42.33h-5.64c-.23,0-.45-.23-.45-.45s.23-.45.45-.45h5.64c.23,0,.45.23.45.45s-.22.45-.45.45Z"/>
      <path class="cls-1" d="M17.25,52.25c-2.1,0-3.76-1.65-3.76-3.76s1.65-3.76,3.76-3.76,3.76,1.65,3.76,3.76-1.65,3.76-3.76,3.76ZM17.25,45.64c-1.58,0-2.86,1.28-2.86,2.86s1.28,2.78,2.86,2.78,2.86-1.28,2.86-2.86-1.28-2.78-2.86-2.78Z"/>
      <path class="cls-1" d="M50.62,17.45c-1.28,0-2.33-1.05-2.33-2.33s1.05-2.33,2.33-2.33,2.33,1.05,2.33,2.33-1.05,2.33-2.33,2.33ZM50.62,13.69c-.75,0-1.43.6-1.43,1.43s.6,1.43,1.43,1.43,1.43-.6,1.43-1.43-.68-1.43-1.43-1.43Z"/>
      <path class="cls-1" d="M26.64,39.1h-11.73c-.23,0-.45-.23-.45-.45s.23-.45.45-.45h11.73c.23,0,.45.23.45.45s-.23.45-.45.45Z"/>
      <path class="cls-3" d="M37.92,25.94v4.51l-5.56.68.98,3.31h-7.07l.98-3.31-6.24-.75v-4.36c.6-.45.98-1.13.98-1.88v-2.93h-.98v-4.74h16.91v4.74h-.98v2.86c.08.75.38,1.43.98,1.88Z"/>
      <path class="cls-2" d="M50.62,13.24c1.05,0,1.88.83,1.88,1.88s-.83,1.88-1.88,1.88-1.88-.83-1.88-1.88.83-1.88,1.88-1.88Z"/>
      <path class="cls-2" d="M17.25,45.18c1.83,0,3.31,1.48,3.31,3.31s-1.48,3.31-3.31,3.31-3.31-1.48-3.31-3.31,1.48-3.31,3.31-3.31Z"/>
      <path class="cls-3" d="M35.66,13.69h-11.73c0-.75.3-1.5.83-2.03.53-.53,1.2-.83,2.03-.83h6.09c1.5.08,2.78,1.28,2.78,2.86Z"/>
      <rect class="cls-2" x="24.76" y="19.78" width="9.4" height="4.74"/>
      <path class="cls-2" d="M39.35,23.09h2.33v.98c0,.75-.38,1.43-.98,1.88-.38.3-.9.45-1.43.45s-1.05-.15-1.43-.45c-.6-.45-.98-1.13-.98-1.88v-.98h2.48Z"/>
      <path class="cls-2" d="M19.58,23.09h2.33v.98c0,.75-.38,1.43-.98,1.88-.38.3-.9.45-1.43.45s-1.05-.15-1.43-.45c-.6-.45-.98-1.13-.98-1.88v-.98h2.48Z"/>
      <polygon class="cls-3" points="41.68 21.21 41.68 23.09 39.35 23.09 39.35 21.21 40.77 21.21 41.68 21.21"/>
      <polygon class="cls-3" points="39.35 21.21 39.35 23.09 37.02 23.09 37.02 21.21 37.92 21.21 39.35 21.21"/>
      <polygon class="cls-3" points="21.98 21.21 21.98 23.09 19.58 23.09 19.58 21.21 21.01 21.21 21.98 21.21"/>
      <polygon class="cls-3" points="19.58 21.21 19.58 23.09 17.25 23.09 17.25 21.21 18.22 21.21 19.58 21.21"/>
      <polygon class="cls-2" points="40.77 16.55 40.77 21.21 39.35 21.21 37.92 21.21 37.92 16.55 40.77 16.55"/>
      <path class="cls-2" d="M40.77,25.94v4.13l-2.86.38v-4.51c.38.3.9.45,1.43.45s.98-.23,1.43-.45Z"/>
      <polygon class="cls-2" points="21.01 16.55 21.01 21.21 19.58 21.21 18.22 21.21 18.22 16.55 21.01 16.55"/>
      <path class="cls-2" d="M21.01,25.94v4.36l-2.86-.38v-4.06c.38.3.9.45,1.43.45s1.05-.15,1.43-.38Z"/>
      <path class="cls-3" d="M31.45,34.36v1.2c0,.9-.75,1.65-1.65,1.65s-1.65-.75-1.65-1.65v-1.2h3.31Z"/>
      <path class="cls-2" d="M14.92,38.57v-9.02l3.31.38,2.86.38,6.24.75-1.05,3.31h1.88v1.2c0,.9.75,1.65,1.65,1.65s1.65-.75,1.65-1.65v-1.2h1.88l-.98-3.31,5.56-.68,2.86-.38,3.83-.45v3.46h-9.02v4.74h-2.86v4.74h-15.18c-1.5,0-2.71-1.2-2.71-2.71v-1.2h.08Z"/>
      <path class="cls-3" d="M18.22,25.94v4.06l-3.31-.38-.68-.15c-1.13-.15-2.03-1.13-2.03-2.33v-8.34c0-1.28,1.05-2.33,2.33-2.33h3.68v4.74h-.98v2.86c0,.75.38,1.43.98,1.88Z"/>
      <path class="cls-3" d="M47.39,18.8v8.27c0,1.2-.9,2.18-2.03,2.33l-.83.08-3.83.45v-4.13c.6-.45.98-1.13.98-1.88v-2.71h-.98v-4.74h4.36c1.28.07,2.33,1.05,2.33,2.33Z"/>
      <polygon class="cls-2" points="35.59 37.67 35.59 52.25 35.51 52.25 32.73 52.25 32.73 42.33 32.73 37.67 35.59 37.67"/>
      <path class="cls-2" d="M52.95,37.22h-4.21v-4.21c1.73,1.65,2.48,2.41,4.21,4.21Z"/>
      <polygon class="cls-3" points="52.95 37.22 52.95 54.13 35.59 54.13 35.59 52.25 35.59 37.67 35.59 32.93 44.61 32.93 48.74 32.93 48.74 37.22 52.95 37.22"/>
      <path class="cls-1" d="M52.73,19.85c.37,0,.68.3.68.68s-.3.68-.68.68-.68-.3-.68-.68.3-.68.68-.68Z"/>
      <circle class="cls-1" cx="50.4" cy="28.95" r=".68"/>
      <path class="cls-1" d="M41,11.81c.37,0,.68.3.68.68s-.3.68-.68.68-.68-.3-.68-.68.3-.68.68-.68Z"/>
      <path class="cls-1" d="M28.75,49.92c.37,0,.68.3.68.68s-.3.68-.68.68-.68-.3-.68-.68.3-.68.68-.68Z"/>
      <path class="cls-1" d="M15.14,11.36c.37,0,.68.3.68.68s-.3.68-.68.68-.68-.3-.68-.68.3-.68.68-.68Z"/>
      <path class="cls-1" d="M11.84,39.1c.37,0,.68.3.68.68s-.3.68-.68.68-.68-.3-.68-.68.3-.68.68-.68Z"/>
      <path class="cls-1" d="M29.8,37.67c-1.2,0-2.1-.98-2.1-2.1v-1.2c0-.23.23-.45.45-.45s.45.23.45.45v1.2c0,.68.53,1.2,1.2,1.2s1.2-.53,1.2-1.2v-1.2c0-.23.22-.45.45-.45s.45.23.45.45v1.2c0,1.13-.98,2.1-2.1,2.1Z"/>
      <path class="cls-1" d="M35.66,14.14h-1.88c-.23,0-.45-.23-.45-.45s.23-.45.45-.45h1.35c-.23-1.05-1.2-1.88-2.33-1.88h-6.09c-.6,0-1.2.23-1.65.68-.3.3-.53.75-.68,1.2h1.35c.23,0,.45.23.45.45s-.23.45-.45.45h-1.88c-.23,0-.45-.23-.45-.45,0-.9.38-1.73.98-2.33.6-.6,1.43-.98,2.33-.98h6.09c1.8,0,3.31,1.5,3.31,3.31,0,.23-.23.45-.45.45Z"/>
      <path class="cls-1" d="M33.78,17c-.23,0-.45-.23-.45-.45v-2.33h-7.07v2.33c0,.23-.22.45-.45.45s-.45-.23-.45-.45v-2.86c0-.23.23-.45.45-.45h7.97c.23,0,.45.23.45.45v2.86c0,.23-.23.45-.45.45Z"/>
      <path class="cls-1" d="M21.01,21.66c-.23,0-.45-.23-.45-.45v-4.74c0-.23.23-.45.45-.45s.45.23.45.45v4.74c0,.23-.23.45-.45.45Z"/>
      <path class="cls-1" d="M18.22,21.66c-.22,0-.45-.23-.45-.45v-4.74c0-.23.23-.45.45-.45s.45.23.45.45v4.74c0,.23-.23.45-.45.45Z"/>
      <path class="cls-1" d="M19.58,26.84c-.6,0-1.2-.23-1.73-.6-.75-.53-1.13-1.35-1.13-2.26v-2.78c0-.23.23-.45.45-.45h4.74c.23,0,.45.23.45.45v2.86c0,.9-.38,1.73-1.13,2.26-.45.3-1.05.53-1.65.53ZM17.7,21.66v2.33c0,.6.3,1.13.75,1.5.3.23.75.38,1.13.38s.83-.15,1.13-.38c.45-.38.75-.9.75-1.5v-2.33h-3.76Z"/>
      <path class="cls-1" d="M21.98,23.54h-4.74c-.23,0-.45-.23-.45-.45s.23-.45.45-.45h4.74c.23,0,.45.23.45.45s-.23.45-.45.45Z"/>
      <path class="cls-1" d="M19.58,24.96c-.23,0-.45-.23-.45-.45v-3.31c0-.23.23-.45.45-.45s.45.23.45.45v3.31c.08.23-.15.45-.45.45Z"/>
      <path class="cls-1" d="M40.77,21.66c-.23,0-.45-.23-.45-.45v-4.74c0-.23.23-.45.45-.45s.45.23.45.45v4.74c0,.23-.22.45-.45.45Z"/>
      <path class="cls-1" d="M37.92,21.66c-.23,0-.45-.23-.45-.45v-4.74c0-.23.23-.45.45-.45s.45.23.45.45v4.74c0,.23-.22.45-.45.45Z"/>
      <path class="cls-1" d="M21.01,30.75c-.23,0-.45-.23-.45-.45v-4.36c0-.23.23-.45.45-.45s.45.23.45.45v4.36c0,.23-.23.45-.45.45Z"/>
      <path class="cls-1" d="M18.22,30.45c-.22,0-.45-.23-.45-.45v-4.06c0-.23.23-.45.45-.45s.45.23.45.45v4.06c0,.23-.23.45-.45.45Z"/>
      <path class="cls-1" d="M40.77,30.53c-.23,0-.45-.23-.45-.45v-4.13c0-.23.23-.45.45-.45s.45.23.45.45v4.13c0,.23-.22.45-.45.45Z"/>
      <path class="cls-1" d="M37.92,30.83c-.23,0-.45-.23-.45-.45v-4.51c0-.23.23-.45.45-.45s.45.23.45.45v4.51c0,.23-.22.45-.45.45Z"/>
      <path class="cls-1" d="M39.35,26.84c-.6,0-1.2-.23-1.73-.6-.75-.53-1.13-1.35-1.13-2.26v-2.78c0-.23.23-.45.45-.45h4.74c.23,0,.45.23.45.45v2.86c0,.9-.38,1.73-1.13,2.26-.45.3-1.05.53-1.65.53ZM37.47,21.66v2.33c0,.6.3,1.13.75,1.5.3.23.75.38,1.13.38s.83-.15,1.13-.38c.45-.38.75-.9.75-1.5v-2.33h-3.76Z"/>
      <path class="cls-1" d="M41.68,23.54h-4.74c-.23,0-.45-.23-.45-.45s.23-.45.45-.45h4.74c.23,0,.45.23.45.45s-.22.45-.45.45Z"/>
      <path class="cls-1" d="M39.35,24.96c-.23,0-.45-.23-.45-.45v-3.31c0-.23.23-.45.45-.45s.45.23.45.45v3.31c0,.23-.23.45-.45.45Z"/>
      <path class="cls-1" d="M33.33,34.81h-7.07c-.15,0-.3-.08-.38-.15-.08-.15-.15-.3-.08-.38l.75-2.78-12.48-1.58c-1.43-.15-2.48-1.35-2.48-2.78v-8.27c0-1.58,1.28-2.78,2.78-2.78h30.67c1.58,0,2.78,1.28,2.78,2.78v8.27c0,1.43-1.05,2.63-2.48,2.78l-12.48,1.58.75,2.78c.08.15,0,.3-.08.38.08.08-.07.15-.23.15ZM26.87,33.91h5.79l-.75-2.71c-.07-.15,0-.3.08-.38.08-.15.23-.23.3-.23l13-1.65c.9-.15,1.65-.9,1.65-1.8v-8.27c0-1.05-.83-1.88-1.88-1.88H14.47c-1.05,0-1.88.83-1.88,1.88v8.27c0,.9.68,1.73,1.65,1.8l13,1.65c.15,0,.23.07.3.23.08.15.08.23.08.38l-.75,2.71Z"/>
      <path class="cls-1" d="M34.16,24.96h-9.4c-.22,0-.45-.23-.45-.45v-4.74c0-.23.23-.45.45-.45h9.4c.23,0,.45.23.45.45v4.74c0,.23-.23.45-.45.45ZM25.22,24.06h8.49v-3.76h-8.49v3.76Z"/>
      <path class="cls-1" d="M32.73,42.85h-15.18c-1.73,0-3.16-1.43-3.16-3.16v-10c0-.23.23-.45.45-.45s.45.23.45.45v10c0,1.2.98,2.18,2.18,2.18h15.18c.23,0,.45.23.45.45s-.08.53-.38.53Z"/>
      <path class="cls-1" d="M44.61,33.46c-.23,0-.45-.23-.45-.45v-3.31c0-.23.23-.45.45-.45s.45.23.45.45v3.31c0,.23-.23.45-.45.45Z"/>
      <path class="cls-1" d="M35.51,52.7h-2.71c-.22,0-.45-.23-.45-.45v-14.58c0-.23.23-.45.45-.45h2.86c.23,0,.45.23.45.45s-.23.45-.45.45h-2.33v13.6h2.25c.23,0,.45.23.45.45-.07.3-.3.53-.53.53Z"/>
      <path class="cls-1" d="M52.95,54.58h-17.36c-.23,0-.45-.23-.45-.45v-21.2c0-.23.23-.45.45-.45h13.15c.15,0,.23.07.3.15l4.21,4.21c.08.08.15.23.15.3v16.91c0,.3-.23.53-.45.53ZM36.04,53.6h16.46v-16.24l-3.98-3.98h-12.48v20.22Z"/>
      <path class="cls-1" d="M52.95,37.67h-4.21c-.23,0-.45-.23-.45-.45v-4.21c0-.23.23-.45.45-.45s.45.23.45.45v3.76h3.76c.23,0,.45.23.45.45s-.23.45-.45.45Z"/>
      <path class="cls-1" d="M49.64,49.39h-10.75c-.23,0-.45-.23-.45-.45s.23-.45.45-.45h10.82c.22,0,.45.23.45.45s-.23.45-.53.45Z"/>
      <path class="cls-1" d="M49.64,47.06h-10.75c-.23,0-.45-.23-.45-.45s.23-.45.45-.45h10.82c.22,0,.45.23.45.45s-.23.45-.53.45Z"/>
      <path class="cls-1" d="M49.64,44.73h-10.75c-.23,0-.45-.23-.45-.45s.23-.45.45-.45h10.82c.22,0,.45.23.45.45s-.23.45-.53.45Z"/>
      <path class="cls-1" d="M44.53,42.33h-5.64c-.23,0-.45-.23-.45-.45s.23-.45.45-.45h5.64c.23,0,.45.23.45.45s-.22.45-.45.45Z"/>
      <path class="cls-1" d="M17.25,52.25c-2.1,0-3.76-1.65-3.76-3.76s1.65-3.76,3.76-3.76,3.76,1.65,3.76,3.76-1.65,3.76-3.76,3.76ZM17.25,45.64c-1.58,0-2.86,1.28-2.86,2.86s1.28,2.78,2.86,2.78,2.86-1.28,2.86-2.86-1.28-2.78-2.86-2.78Z"/>
      <path class="cls-1" d="M50.62,17.45c-1.28,0-2.33-1.05-2.33-2.33s1.05-2.33,2.33-2.33,2.33,1.05,2.33,2.33-1.05,2.33-2.33,2.33ZM50.62,13.69c-.75,0-1.43.6-1.43,1.43s.6,1.43,1.43,1.43,1.43-.6,1.43-1.43-.68-1.43-1.43-1.43Z"/>
      <path class="cls-1" d="M26.64,39.1h-11.73c-.23,0-.45-.23-.45-.45s.23-.45.45-.45h11.73c.23,0,.45.23.45.45s-.23.45-.45.45Z"/>
    </g>
  </g>
</svg>