<?xml version="1.0" encoding="UTF-8"?>
<svg id="_1" data-name="1" xmlns="http://www.w3.org/2000/svg" viewBox="0 0 65 65">
  <defs>
    <style>
      .cls-1 {
        fill: #1e81ce;
      }

      .cls-1, .cls-2, .cls-3 {
        stroke-width: 0px;
      }

      .cls-2 {
        fill: #fff;
      }

      .cls-3 {
        fill: #9bc9ff;
      }
    </style>
  </defs>
  <g id="_785_Path_Strategy_Tactics_Case" data-name="785, Path, Strategy, Tactics, Case">
    <g>
      <path class="cls-2" d="M47.42,39.6v3.76l-5.64,5.64h-18.34l-5.64-5.64v-3.91h29.54l.08.15Z"/>
      <path class="cls-3" d="M50.2,37.05c0,1.2-.9,2.18-2.03,2.33-2.1.3-12.33,1.58-13,1.65l.98,3.31h-7.07l.98-3.31c-.68-.07-10.9-1.35-13-1.65-1.13-.15-2.03-1.13-2.03-2.33v-8.27c0-1.28,1.05-2.33,2.33-2.33h30.59c1.28,0,2.33,1.05,2.33,2.33-.07.75-.07,7.14-.07,8.27Z"/>
      <path class="cls-3" d="M47.42,49v.08c0,1.73-1.43,3.23-3.23,3.23h-23.15c-1.73,0-3.23-1.43-3.23-3.23v-.08h29.62Z"/>
      <path class="cls-3" d="M49.75,14.72c1.28,0,2.33,1.05,2.33,2.33s-1.05,2.33-2.33,2.33-2.33-1.05-2.33-2.33,1.05-2.33,2.33-2.33Z"/>
      <path class="cls-3" d="M13.82,46.14c.9,0,1.65.75,1.65,1.65s-.75,1.65-1.65,1.65-1.65-.75-1.65-1.65.75-1.65,1.65-1.65Z"/>
      <path class="cls-2" d="M38.47,23.59h-11.73c0-.75.3-1.5.83-2.03.53-.53,1.2-.83,2.03-.83h6.09c1.5.07,2.78,1.35,2.78,2.86Z"/>
      <polygon class="cls-3" points="47.42 43.36 47.42 49 41.78 49 47.42 43.36"/>
      <polygon class="cls-3" points="23.44 49 17.8 49 17.8 43.36 23.44 49"/>
      <polygon class="cls-2" points="19.08 26.45 21.11 29.98 17.05 29.98 19.08 26.45"/>
      <path class="cls-3" d="M34.26,44.26v1.2c0,.9-.75,1.65-1.65,1.65s-1.65-.75-1.65-1.65v-1.2h3.31Z"/>
      <path class="cls-1" d="M52.83,23.67c.37,0,.68.3.68.68s-.3.68-.68.68-.68-.3-.68-.68.3-.68.68-.68Z"/>
      <path class="cls-1" d="M52.83,40.58c.37,0,.68.3.68.68s-.3.68-.68.68-.68-.3-.68-.68.3-.68.68-.68Z"/>
      <path class="cls-1" d="M49.97,49c.37,0,.68.3.68.68s-.3.68-.68.68-.68-.3-.68-.68.3-.68.68-.68Z"/>
      <path class="cls-1" d="M43.88,12.39c.37,0,.68.3.68.68s-.3.68-.68.68-.68-.3-.68-.68.3-.68.68-.68Z"/>
      <path class="cls-1" d="M41.55,20.81c.37,0,.68.3.68.68s-.3.68-.68.68-.68-.3-.68-.68.3-.68.68-.68Z"/>
      <path class="cls-1" d="M29.3,12.39c.37,0,.68.3.68.68s-.3.68-.68.68-.68-.3-.68-.68.3-.68.68-.68Z"/>
      <path class="cls-1" d="M15.7,16.15c.37,0,.68.3.68.68s-.3.68-.68.68-.68-.3-.68-.68.3-.68.68-.68Z"/>
      <path class="cls-1" d="M14.79,41.48c.37,0,.68.3.68.68s-.3.68-.68.68-.68-.3-.68-.68.3-.68.68-.68Z"/>
      <path class="cls-1" d="M36.14,44.79h-1.88c-.23,0-.45-.23-.45-.45s.23-.45.45-.45h1.28l-.75-2.71c-.08-.15,0-.3.08-.38.08-.15.23-.23.3-.23l13-1.65c.9-.15,1.65-.9,1.65-1.8v-8.34c0-1.05-.83-1.88-1.88-1.88h-11.27c-.22,0-.45-.23-.45-.45s.23-.45.45-.45h11.27c1.58,0,2.78,1.28,2.78,2.78v8.27c0,1.43-1.05,2.63-2.48,2.78l-12.48,1.58.75,2.78c.07.15,0,.3-.08.38,0,.15-.15.23-.3.23Z"/>
      <path class="cls-1" d="M30.96,44.79h-1.88c-.15,0-.3-.08-.38-.15-.08-.15-.15-.3-.08-.38l.75-2.78-12.48-1.58c-1.43-.15-2.48-1.35-2.48-2.78v-8.34c0-1.58,1.28-2.78,2.78-2.78h11.27c.23,0,.45.23.45.45s-.23.45-.45.45h-11.27c-1.05,0-1.88.83-1.88,1.88v8.27c0,.9.68,1.73,1.65,1.8l13,1.65c.15,0,.22.08.3.23.08.15.08.23.08.38l-.75,2.71h1.28c.23,0,.45.23.45.45.07.3-.08.53-.38.53Z"/>
      <path class="cls-1" d="M32.61,47.57c-1.2,0-2.1-.98-2.1-2.1v-1.2c0-.23.23-.45.45-.45h3.31c.23,0,.45.23.45.45v1.2c0,1.13-.9,2.1-2.1,2.1ZM31.41,44.79v.68c0,.68.53,1.2,1.2,1.2s1.2-.53,1.2-1.2v-.68h-2.41Z"/>
      <path class="cls-1" d="M44.18,52.75h-23.15c-2.03,0-3.68-1.65-3.68-3.68v-9.47c0-.23.23-.45.45-.45s.45.23.45.45v9.47c0,1.5,1.2,2.71,2.71,2.71h23.23c1.5,0,2.71-1.2,2.71-2.71v-9.47c0-.23.23-.45.45-.45s.45.23.45.45v9.47c.08,2.03-1.58,3.68-3.61,3.68Z"/>
      <path class="cls-1" d="M47.42,49.45h-29.62c-.23,0-.45-.23-.45-.45s.23-.45.45-.45h29.62c.22,0,.45.23.45.45s-.23.45-.45.45Z"/>
      <path class="cls-1" d="M41.78,49.45c-.15,0-.23-.08-.3-.15-.15-.15-.15-.45,0-.68l5.64-5.64c.15-.15.45-.15.68,0,.15.15.15.45,0,.68l-5.64,5.64c-.15.08-.3.15-.38.15Z"/>
      <path class="cls-1" d="M23.44,49.45c-.15,0-.23-.08-.3-.15l-5.64-5.64c-.15-.15-.15-.45,0-.68.15-.15.45-.15.68,0l5.64,5.64c.15.15.15.45,0,.68-.15.08-.23.15-.38.15Z"/>
      <path class="cls-1" d="M38.47,24.12h-1.88c-.23,0-.45-.23-.45-.45s.23-.45.45-.45h1.35c-.23-1.05-1.2-1.88-2.33-1.88h-6.09c-.6,0-1.2.23-1.65.68-.3.3-.53.75-.68,1.2h1.35c.23,0,.45.23.45.45s-.23.45-.45.45h-1.88c-.23,0-.45-.23-.45-.45,0-.9.38-1.73.98-2.33.6-.6,1.43-.98,2.33-.98h6.09c1.8,0,3.31,1.5,3.31,3.31,0,.23-.15.45-.45.45Z"/>
      <path class="cls-1" d="M22.31,25.39c-.08,0-.23,0-.3-.15l-1.73-1.43c-.75-.6-1.13-1.58-1.13-2.56s.45-1.88,1.2-2.48l4.21-3.53c.23-.15.53-.15.68.08.15.23.15.53-.08.68l-4.21,3.53c-.53.45-.83,1.13-.83,1.8s.3,1.35.83,1.8l1.73,1.43c.23.15.23.45.08.68-.23.08-.38.15-.45.15Z"/>
      <path class="cls-1" d="M18.03,34.41c-.15,0-.3-.08-.38-.23-.15-.23-.08-.53.15-.68l5.26-3.38c.6-.38.98-.9,1.05-1.58s-.08-1.35-.53-1.88c-.08-.08-.15-.23-.3-.3l-1.35-1.2c-.23-.15-.23-.45-.08-.68.15-.23.45-.23.68-.08l1.35,1.2c.15.15.3.23.38.38.6.75.83,1.65.68,2.56-.15.9-.68,1.73-1.5,2.26l-5.26,3.38c.07.23,0,.23-.15.23Z"/>
      <path class="cls-1" d="M24.87,20.06c-.22,0-.45-.23-.45-.45v-3.53h-3.53c-.23,0-.45-.23-.45-.45s.23-.45.45-.45h3.98c.23,0,.45.23.45.45v3.98c0,.23-.23.45-.45.45Z"/>
      <path class="cls-1" d="M21.11,30.43h-4.06c-.15,0-.3-.08-.38-.23-.08-.15-.08-.3,0-.45l2.03-3.53c.08-.15.23-.23.38-.23h0c.15,0,.3.08.38.23l2.03,3.46c.08.08.08.15.08.3,0,.23-.23.45-.45.45ZM17.88,29.45h2.41l-1.2-2.1-1.2,2.1Z"/>
      <path class="cls-1" d="M22.54,36.74c-.15,0-.23-.08-.3-.15-.15-.15-.15-.45,0-.68l2.86-2.86c.15-.15.45-.15.68,0,.15.15.15.45,0,.68l-2.93,2.86c-.08.15-.23.15-.3.15Z"/>
      <path class="cls-1" d="M25.32,36.74c-.15,0-.23-.08-.3-.15l-2.86-2.86c-.15-.15-.15-.45,0-.68.15-.15.45-.15.68,0l2.86,2.86c.15.15.15.45,0,.68-.15.15-.23.15-.38.15Z"/>
      <path class="cls-1" d="M36.59,26.9h-7.97c-.22,0-.45-.23-.45-.45v-2.86c0-.23.23-.45.45-.45h7.97c.23,0,.45.23.45.45v2.86c0,.23-.15.45-.45.45ZM29.08,26h7.07v-1.88h-7.07v1.88Z"/>
      <path class="cls-1" d="M50.2,35.39h-21.12c-.23,0-.45-.23-.45-.45s.23-.45.45-.45h21.12c.22,0,.45.23.45.45s-.15.45-.45.45Z"/>
      <path class="cls-1" d="M50.2,32.54h-21.12c-.23,0-.45-.23-.45-.45s.23-.45.45-.45h21.12c.22,0,.45.23.45.45.08.23-.15.45-.45.45Z"/>
      <path class="cls-1" d="M49.75,19.83c-1.58,0-2.86-1.28-2.86-2.86s1.28-2.86,2.86-2.86,2.86,1.28,2.86,2.86-1.28,2.86-2.86,2.86ZM49.75,15.17c-1.05,0-1.88.83-1.88,1.88s.83,1.88,1.88,1.88,1.88-.83,1.88-1.88-.83-1.88-1.88-1.88Z"/>
      <path class="cls-1" d="M13.82,49.9c-1.2,0-2.1-.98-2.1-2.1s.98-2.1,2.1-2.1,2.1.98,2.1,2.1-.9,2.1-2.1,2.1ZM13.82,46.67c-.68,0-1.2.53-1.2,1.2s.53,1.2,1.2,1.2,1.2-.53,1.2-1.2-.53-1.2-1.2-1.2Z"/>
      <path class="cls-2" d="M47.42,39.6v3.76l-5.64,5.64h-18.34l-5.64-5.64v-3.91h29.54l.08.15Z"/>
      <path class="cls-3" d="M50.2,37.05c0,1.2-.9,2.18-2.03,2.33-2.1.3-12.33,1.58-13,1.65l.98,3.31h-7.07l.98-3.31c-.68-.07-10.9-1.35-13-1.65-1.13-.15-2.03-1.13-2.03-2.33v-8.27c0-1.28,1.05-2.33,2.33-2.33h30.59c1.28,0,2.33,1.05,2.33,2.33-.07.75-.07,7.14-.07,8.27Z"/>
      <path class="cls-3" d="M47.42,49v.08c0,1.73-1.43,3.23-3.23,3.23h-23.15c-1.73,0-3.23-1.43-3.23-3.23v-.08h29.62Z"/>
      <path class="cls-3" d="M49.75,14.72c1.28,0,2.33,1.05,2.33,2.33s-1.05,2.33-2.33,2.33-2.33-1.05-2.33-2.33,1.05-2.33,2.33-2.33Z"/>
      <path class="cls-3" d="M13.82,46.14c.9,0,1.65.75,1.65,1.65s-.75,1.65-1.65,1.65-1.65-.75-1.65-1.65.75-1.65,1.65-1.65Z"/>
      <path class="cls-2" d="M38.47,23.59h-11.73c0-.75.3-1.5.83-2.03.53-.53,1.2-.83,2.03-.83h6.09c1.5.07,2.78,1.35,2.78,2.86Z"/>
      <polygon class="cls-3" points="47.42 43.36 47.42 49 41.78 49 47.42 43.36"/>
      <polygon class="cls-3" points="23.44 49 17.8 49 17.8 43.36 23.44 49"/>
      <polygon class="cls-2" points="19.08 26.45 21.11 29.98 17.05 29.98 19.08 26.45"/>
      <path class="cls-3" d="M34.26,44.26v1.2c0,.9-.75,1.65-1.65,1.65s-1.65-.75-1.65-1.65v-1.2h3.31Z"/>
      <path class="cls-1" d="M52.83,23.67c.37,0,.68.3.68.68s-.3.68-.68.68-.68-.3-.68-.68.3-.68.68-.68Z"/>
      <path class="cls-1" d="M52.83,40.58c.37,0,.68.3.68.68s-.3.68-.68.68-.68-.3-.68-.68.3-.68.68-.68Z"/>
      <path class="cls-1" d="M49.97,49c.37,0,.68.3.68.68s-.3.68-.68.68-.68-.3-.68-.68.3-.68.68-.68Z"/>
      <path class="cls-1" d="M43.88,12.39c.37,0,.68.3.68.68s-.3.68-.68.68-.68-.3-.68-.68.3-.68.68-.68Z"/>
      <path class="cls-1" d="M41.55,20.81c.37,0,.68.3.68.68s-.3.68-.68.68-.68-.3-.68-.68.3-.68.68-.68Z"/>
      <path class="cls-1" d="M29.3,12.39c.37,0,.68.3.68.68s-.3.68-.68.68-.68-.3-.68-.68.3-.68.68-.68Z"/>
      <path class="cls-1" d="M15.7,16.15c.37,0,.68.3.68.68s-.3.68-.68.68-.68-.3-.68-.68.3-.68.68-.68Z"/>
      <path class="cls-1" d="M14.79,41.48c.37,0,.68.3.68.68s-.3.68-.68.68-.68-.3-.68-.68.3-.68.68-.68Z"/>
      <path class="cls-1" d="M36.14,44.79h-1.88c-.23,0-.45-.23-.45-.45s.23-.45.45-.45h1.28l-.75-2.71c-.08-.15,0-.3.08-.38.08-.15.23-.23.3-.23l13-1.65c.9-.15,1.65-.9,1.65-1.8v-8.34c0-1.05-.83-1.88-1.88-1.88h-11.27c-.22,0-.45-.23-.45-.45s.23-.45.45-.45h11.27c1.58,0,2.78,1.28,2.78,2.78v8.27c0,1.43-1.05,2.63-2.48,2.78l-12.48,1.58.75,2.78c.07.15,0,.3-.08.38,0,.15-.15.23-.3.23Z"/>
      <path class="cls-1" d="M30.96,44.79h-1.88c-.15,0-.3-.08-.38-.15-.08-.15-.15-.3-.08-.38l.75-2.78-12.48-1.58c-1.43-.15-2.48-1.35-2.48-2.78v-8.34c0-1.58,1.28-2.78,2.78-2.78h11.27c.23,0,.45.23.45.45s-.23.45-.45.45h-11.27c-1.05,0-1.88.83-1.88,1.88v8.27c0,.9.68,1.73,1.65,1.8l13,1.65c.15,0,.22.08.3.23.08.15.08.23.08.38l-.75,2.71h1.28c.23,0,.45.23.45.45.07.3-.08.53-.38.53Z"/>
      <path class="cls-1" d="M32.61,47.57c-1.2,0-2.1-.98-2.1-2.1v-1.2c0-.23.23-.45.45-.45h3.31c.23,0,.45.23.45.45v1.2c0,1.13-.9,2.1-2.1,2.1ZM31.41,44.79v.68c0,.68.53,1.2,1.2,1.2s1.2-.53,1.2-1.2v-.68h-2.41Z"/>
      <path class="cls-1" d="M44.18,52.75h-23.15c-2.03,0-3.68-1.65-3.68-3.68v-9.47c0-.23.23-.45.45-.45s.45.23.45.45v9.47c0,1.5,1.2,2.71,2.71,2.71h23.23c1.5,0,2.71-1.2,2.71-2.71v-9.47c0-.23.23-.45.45-.45s.45.23.45.45v9.47c.08,2.03-1.58,3.68-3.61,3.68Z"/>
      <path class="cls-1" d="M47.42,49.45h-29.62c-.23,0-.45-.23-.45-.45s.23-.45.45-.45h29.62c.22,0,.45.23.45.45s-.23.45-.45.45Z"/>
      <path class="cls-1" d="M41.78,49.45c-.15,0-.23-.08-.3-.15-.15-.15-.15-.45,0-.68l5.64-5.64c.15-.15.45-.15.68,0,.15.15.15.45,0,.68l-5.64,5.64c-.15.08-.3.15-.38.15Z"/>
      <path class="cls-1" d="M23.44,49.45c-.15,0-.23-.08-.3-.15l-5.64-5.64c-.15-.15-.15-.45,0-.68.15-.15.45-.15.68,0l5.64,5.64c.15.15.15.45,0,.68-.15.08-.23.15-.38.15Z"/>
      <path class="cls-1" d="M38.47,24.12h-1.88c-.23,0-.45-.23-.45-.45s.23-.45.45-.45h1.35c-.23-1.05-1.2-1.88-2.33-1.88h-6.09c-.6,0-1.2.23-1.65.68-.3.3-.53.75-.68,1.2h1.35c.23,0,.45.23.45.45s-.23.45-.45.45h-1.88c-.23,0-.45-.23-.45-.45,0-.9.38-1.73.98-2.33.6-.6,1.43-.98,2.33-.98h6.09c1.8,0,3.31,1.5,3.31,3.31,0,.23-.15.45-.45.45Z"/>
      <path class="cls-1" d="M22.31,25.39c-.08,0-.23,0-.3-.15l-1.73-1.43c-.75-.6-1.13-1.58-1.13-2.56s.45-1.88,1.2-2.48l4.21-3.53c.23-.15.53-.15.68.08.15.23.15.53-.08.68l-4.21,3.53c-.53.45-.83,1.13-.83,1.8s.3,1.35.83,1.8l1.73,1.43c.23.15.23.45.08.68-.23.08-.38.15-.45.15Z"/>
      <path class="cls-1" d="M18.03,34.41c-.15,0-.3-.08-.38-.23-.15-.23-.08-.53.15-.68l5.26-3.38c.6-.38.98-.9,1.05-1.58s-.08-1.35-.53-1.88c-.08-.08-.15-.23-.3-.3l-1.35-1.2c-.23-.15-.23-.45-.08-.68.15-.23.45-.23.68-.08l1.35,1.2c.15.15.3.23.38.38.6.75.83,1.65.68,2.56-.15.9-.68,1.73-1.5,2.26l-5.26,3.38c.07.23,0,.23-.15.23Z"/>
      <path class="cls-1" d="M24.87,20.06c-.22,0-.45-.23-.45-.45v-3.53h-3.53c-.23,0-.45-.23-.45-.45s.23-.45.45-.45h3.98c.23,0,.45.23.45.45v3.98c0,.23-.23.45-.45.45Z"/>
      <path class="cls-1" d="M21.11,30.43h-4.06c-.15,0-.3-.08-.38-.23-.08-.15-.08-.3,0-.45l2.03-3.53c.08-.15.23-.23.38-.23h0c.15,0,.3.08.38.23l2.03,3.46c.08.08.08.15.08.3,0,.23-.23.45-.45.45ZM17.88,29.45h2.41l-1.2-2.1-1.2,2.1Z"/>
      <path class="cls-1" d="M22.54,36.74c-.15,0-.23-.08-.3-.15-.15-.15-.15-.45,0-.68l2.86-2.86c.15-.15.45-.15.68,0,.15.15.15.45,0,.68l-2.93,2.86c-.08.15-.23.15-.3.15Z"/>
      <path class="cls-1" d="M25.32,36.74c-.15,0-.23-.08-.3-.15l-2.86-2.86c-.15-.15-.15-.45,0-.68.15-.15.45-.15.68,0l2.86,2.86c.15.15.15.45,0,.68-.15.15-.23.15-.38.15Z"/>
      <path class="cls-1" d="M36.59,26.9h-7.97c-.22,0-.45-.23-.45-.45v-2.86c0-.23.23-.45.45-.45h7.97c.23,0,.45.23.45.45v2.86c0,.23-.15.45-.45.45ZM29.08,26h7.07v-1.88h-7.07v1.88Z"/>
      <path class="cls-1" d="M50.2,35.39h-21.12c-.23,0-.45-.23-.45-.45s.23-.45.45-.45h21.12c.22,0,.45.23.45.45s-.15.45-.45.45Z"/>
      <path class="cls-1" d="M50.2,32.54h-21.12c-.23,0-.45-.23-.45-.45s.23-.45.45-.45h21.12c.22,0,.45.23.45.45.08.23-.15.45-.45.45Z"/>
      <path class="cls-1" d="M49.75,19.83c-1.58,0-2.86-1.28-2.86-2.86s1.28-2.86,2.86-2.86,2.86,1.28,2.86,2.86-1.28,2.86-2.86,2.86ZM49.75,15.17c-1.05,0-1.88.83-1.88,1.88s.83,1.88,1.88,1.88,1.88-.83,1.88-1.88-.83-1.88-1.88-1.88Z"/>
      <path class="cls-1" d="M13.82,49.9c-1.2,0-2.1-.98-2.1-2.1s.98-2.1,2.1-2.1,2.1.98,2.1,2.1-.9,2.1-2.1,2.1ZM13.82,46.67c-.68,0-1.2.53-1.2,1.2s.53,1.2,1.2,1.2,1.2-.53,1.2-1.2-.53-1.2-1.2-1.2Z"/>
    </g>
  </g>
</svg>