<?xml version="1.0" encoding="UTF-8"?>
<svg id="_1" data-name="1" xmlns="http://www.w3.org/2000/svg" viewBox="0 0 65 65">
  <defs>
    <style>
      .cls-1 {
        fill: #1e81ce;
      }

      .cls-1, .cls-2, .cls-3 {
        stroke-width: 0px;
      }

      .cls-2 {
        fill: #fff;
      }

      .cls-3 {
        fill: #9bc9ff;
      }
    </style>
  </defs>
  <g id="_782_Briefcase_Cog_Gear_Optimization" data-name="782, Briefcase, Cog, Gear, Optimization">
    <g>
      <path class="cls-3" d="M47.81,20.41v8.27c0,1.2-.9,2.18-2.03,2.33l-.75.08-3.83.45v-13.53h4.28c1.28.15,2.33,1.13,2.33,2.41Z"/>
      <path class="cls-3" d="M18.64,31.53l-3.23-.38-.75-.08c-1.13-.15-2.03-1.13-2.03-2.33v-8.34c0-1.28,1.05-2.33,2.33-2.33h3.68v13.45Z"/>
      <path class="cls-3" d="M38.34,31.98l-5.56.68.98,3.31h-7.07l.98-3.31-6.24-.75v-13.76h16.91v13.83Z"/>
      <path class="cls-2" d="M48.11,42.58c0,2.03-1.73,3.76-3.83,3.76s-3.83-1.65-3.83-3.76,1.73-3.76,3.83-3.76,3.83,1.73,3.83,3.76ZM45.85,42.58c0-.9-.75-1.58-1.65-1.58s-1.65.68-1.65,1.58.75,1.58,1.65,1.58c.98,0,1.65-.68,1.65-1.58Z"/>
      <path class="cls-3" d="M53.37,41.23v2.71l-2.63.3c-.15.6-.38,1.13-.68,1.65l1.65,2.03-1.95,1.95-2.1-1.65c-.53.3-1.13.53-1.73.68l-.3,2.56h-2.78l-.3-2.56c-.6-.15-1.2-.38-1.73-.68l-2.1,1.65-1.95-1.95,1.65-2.03c-.3-.53-.53-1.05-.68-1.65l-2.63-.3h0v-2.71l2.63-.3c.15-.6.38-1.13.68-1.65l-1.65-2.03,1.95-1.95,2.1,1.65c.53-.3,1.13-.53,1.73-.68l.3-2.56h2.86l.3,2.56c.6.15,1.2.38,1.73.68l2.1-1.65,1.95,1.95-1.8,2.03c.3.53.53,1.05.68,1.65l2.71.3ZM44.28,46.34c2.1,0,3.83-1.65,3.83-3.76s-1.73-3.76-3.83-3.76-3.83,1.65-3.83,3.76c-.08,2.1,1.73,3.76,3.83,3.76Z"/>
      <path class="cls-3" d="M49.61,11.09c1.28,0,2.33,1.05,2.33,2.33s-1.05,2.33-2.33,2.33-2.33-1.05-2.33-2.33,1.05-2.33,2.33-2.33Z"/>
      <path class="cls-3" d="M17.67,46.79c1.83,0,3.31,1.48,3.31,3.31s-1.48,3.31-3.31,3.31-3.31-1.48-3.31-3.31,1.48-3.31,3.31-3.31Z"/>
      <path class="cls-3" d="M36.08,15.3h-11.73c0-.75.3-1.5.83-2.03.53-.53,1.2-.83,2.03-.83h6.09c1.5.08,2.78,1.28,2.78,2.86Z"/>
      <rect class="cls-2" x="25.18" y="21.38" width="9.4" height="4.74"/>
      <path class="cls-2" d="M39.77,24.69h2.33v.98c0,.75-.38,1.43-.98,1.88-.38.3-.9.45-1.43.45s-1.05-.15-1.43-.45c-.6-.45-.98-1.13-.98-1.88v-.98h2.48Z"/>
      <path class="cls-2" d="M20,24.69h2.33v.98c0,.75-.38,1.43-.98,1.88-.38.3-.9.45-1.43.45s-1.05-.15-1.43-.45c-.6-.45-.98-1.13-.98-1.88v-.98h2.48Z"/>
      <path class="cls-3" d="M31.87,35.97v1.2c0,.9-.75,1.65-1.65,1.65s-1.65-.75-1.65-1.65v-1.2h3.31Z"/>
      <polygon class="cls-2" points="41.19 18.15 41.19 22.81 39.77 22.81 38.34 22.81 38.34 18.15 41.19 18.15"/>
      <path class="cls-2" d="M41.19,27.55v4.13l-2.86.38v-4.51c.38.3.9.45,1.43.45s.98-.23,1.43-.45Z"/>
      <polygon class="cls-2" points="21.43 18.15 21.43 22.81 20 22.81 18.64 22.81 18.64 18.15 21.43 18.15"/>
      <path class="cls-2" d="M21.43,27.55v4.36l-2.86-.38v-4.06c.38.3.9.45,1.43.45s1.05-.15,1.43-.38Z"/>
      <polygon class="cls-3" points="42.1 22.81 42.1 24.69 39.77 24.69 39.77 22.81 41.19 22.81 42.1 22.81"/>
      <polygon class="cls-3" points="39.77 22.81 39.77 24.69 37.44 24.69 37.44 22.81 38.34 22.81 39.77 22.81"/>
      <polygon class="cls-3" points="22.4 22.81 22.4 24.69 20 24.69 20 22.81 21.43 22.81 22.4 22.81"/>
      <polygon class="cls-3" points="20 22.81 20 24.69 17.67 24.69 17.67 22.81 18.64 22.81 20 22.81"/>
      <path class="cls-2" d="M15.41,31.16l12.18,1.5-.9,3.31h1.88v1.2c0,.9.75,1.65,1.65,1.65s1.65-.75,1.65-1.65v-1.2h1.88l-.98-3.31c20.97-2.63-3.53.45,12.25-1.5v2.56h-2.18l-.3,2.56c-.6.15-1.2.38-1.73.68l-2.1-1.65-1.95,1.95,1.65,2.03c-.3.53-.53,1.05-.68,1.65l-2.56.3v2.71h-16.54c-1.73,0-3.23-1.43-3.23-3.23v-9.55Z"/>
      <polygon class="cls-3" points="21.05 40.7 15.41 40.7 15.41 35.06 21.05 40.7"/>
      <path class="cls-1" d="M51.27,20.93c.37,0,.68.3.68.68s-.3.68-.68.68-.68-.3-.68-.68.3-.68.68-.68Z"/>
      <path class="cls-1" d="M49.84,30.86c.37,0,.68.3.68.68s-.3.68-.68.68-.68-.3-.68-.68.3-.68.68-.68Z"/>
      <path class="cls-1" d="M39.99,11.54c.37,0,.68.3.68.68s-.3.68-.68.68-.68-.3-.68-.68.3-.68.68-.68Z"/>
      <path class="cls-1" d="M34.8,49.65c.37,0,.68.3.68.68s-.3.68-.68.68-.68-.3-.68-.68.3-.68.68-.68Z"/>
      <path class="cls-1" d="M24.96,46.34c.37,0,.68.3.68.68s-.3.68-.68.68-.68-.3-.68-.68.3-.68.68-.68Z"/>
      <path class="cls-1" d="M21.2,11.09c.37,0,.68.3.68.68s-.3.68-.68.68-.68-.3-.68-.68.3-.68.68-.68Z"/>
      <path class="cls-1" d="M12.71,37.85c.37,0,.68.3.68.68s-.3.68-.68.68-.68-.3-.68-.68.3-.68.68-.68Z"/>
      <path class="cls-1" d="M12.25,14.85c.37,0,.68.3.68.68s-.3.68-.68.68-.68-.3-.68-.68.3-.68.68-.68Z"/>
      <path class="cls-1" d="M44.28,46.79c-2.4,0-4.36-1.88-4.36-4.21s1.95-4.21,4.36-4.21,4.36,1.88,4.36,4.21c-.08,2.33-2.03,4.21-4.36,4.21ZM44.28,39.27c-1.88,0-3.38,1.5-3.38,3.31s1.5,3.31,3.38,3.31,3.38-1.5,3.38-3.31-1.5-3.31-3.38-3.31Z"/>
      <path class="cls-1" d="M44.28,44.61c-1.13,0-2.1-.9-2.1-2.03s.9-2.03,2.1-2.03c1.13,0,2.1.9,2.1,2.03s-.98,2.03-2.1,2.03ZM44.28,41.45c-.6,0-1.13.53-1.13,1.13s.53,1.13,1.13,1.13,1.13-.53,1.13-1.13-.53-1.13-1.13-1.13Z"/>
      <path class="cls-1" d="M30.22,39.27c-1.2,0-2.1-.98-2.1-2.1v-1.2c0-.23.23-.45.45-.45s.45.23.45.45v1.2c0,.68.53,1.2,1.2,1.2s1.2-.53,1.2-1.2v-1.2c0-.23.23-.45.45-.45s.45.23.45.45v1.2c0,1.13-.98,2.1-2.1,2.1Z"/>
      <path class="cls-1" d="M35.18,44.46h-16.54c-2.03,0-3.68-1.65-3.68-3.68v-9.62c0-.23.23-.45.45-.45s.45.23.45.45v9.62c0,1.5,1.2,2.71,2.71,2.71h16.54c.23,0,.45.23.45.45.08.3-.15.53-.38.53Z"/>
      <path class="cls-1" d="M45.03,34.16c-.23,0-.45-.23-.45-.45v-2.56c0-.23.23-.45.45-.45s.45.23.45.45v2.56c0,.23-.22.45-.45.45Z"/>
      <path class="cls-1" d="M45.63,51.98h-2.78c-.23,0-.45-.15-.45-.45l-.23-2.25c-.45-.15-.83-.3-1.2-.53l-1.8,1.43c-.15.15-.45.15-.6,0l-1.95-1.95c-.15-.15-.23-.45,0-.6l1.5-1.8c-.23-.38-.38-.75-.53-1.2l-2.33-.23c-.22,0-.45-.23-.45-.45v-2.71c0-.23.15-.45.45-.45l2.33-.23c.15-.38.3-.83.53-1.2l-1.5-1.8c-.15-.23-.15-.45,0-.6l1.95-1.95c.15-.15.45-.15.6,0l1.8,1.43c.38-.23.83-.38,1.2-.53l.23-2.25c0-.23.23-.45.45-.45h2.78c.22,0,.45.15.45.45l.23,2.25c.45.15.83.3,1.2.53l1.8-1.43c.15-.15.45-.15.6,0l1.95,1.95c.15.15.23.45,0,.6l-1.5,1.8c.23.38.38.75.53,1.2l2.33.23c.23,0,.45.23.45.45v2.71c0,.23-.15.45-.45.45l-2.33.23c-.15.38-.3.83-.53,1.2l1.5,1.8c.15.23.15.45,0,.6l-1.95,1.95c-.15.15-.45.15-.6,0l-1.73-1.43c-.38.23-.83.38-1.2.53l-.23,2.25c-.08.23-.3.45-.53.45ZM43.3,51h1.95l.22-2.18c0-.23.15-.38.38-.38.53-.15,1.05-.38,1.58-.68.15-.08.38-.08.53.08l1.73,1.35,1.35-1.35-1.43-1.65c-.15-.15-.15-.38-.08-.53.3-.53.53-.98.68-1.58.08-.23.22-.3.38-.38l2.25-.23v-1.88l-2.25-.23c-.23,0-.38-.15-.38-.38-.15-.53-.38-1.05-.68-1.58-.07-.15-.07-.38.08-.53l1.43-1.65-1.35-1.28-1.73,1.35c-.15.15-.38.15-.53.08-.53-.3-1.05-.53-1.58-.68-.22,0-.38-.15-.38-.38l-.22-2.18h-1.95l-.22,2.18c0,.23-.15.38-.38.38-.53.15-1.13.38-1.58.68-.15.08-.38.08-.53,0l-1.73-1.43-1.35,1.35,1.43,1.65c.15.15.15.38.08.53-.3.45-.53.98-.68,1.58-.08.23-.22.3-.38.38l-2.25.23v1.88l2.25.23c.23,0,.38.15.38.38.15.53.38,1.05.68,1.58.08.15.08.38-.08.53l-1.43,1.65,1.35,1.35,1.73-1.35c.15-.15.38-.15.53-.08.53.3,1.05.53,1.58.68.23.08.3.23.38.38l.22,2.1Z"/>
      <path class="cls-1" d="M32.25,41.15H15.41c-.23,0-.45-.23-.45-.45s.23-.45.45-.45h16.84c.23,0,.45.22.45.45s-.23.45-.45.45Z"/>
      <path class="cls-1" d="M21.05,41.15c-.15,0-.23-.08-.3-.15l-5.64-5.64c-.15-.15-.15-.45,0-.68.15-.15.45-.15.68,0l5.64,5.64c.15.15.15.45,0,.68-.15.08-.23.15-.38.15Z"/>
      <path class="cls-1" d="M36.08,15.75h-1.88c-.23,0-.45-.23-.45-.45s.23-.45.45-.45h1.35c-.22-1.05-1.2-1.88-2.33-1.88h-6.09c-.6,0-1.2.23-1.65.68-.3.3-.53.75-.68,1.2h1.35c.23,0,.45.23.45.45s-.23.45-.45.45h-1.88c-.23,0-.45-.23-.45-.45,0-.9.38-1.73.98-2.33.6-.6,1.43-.98,2.33-.98h6.09c1.8,0,3.31,1.5,3.31,3.31,0,.23-.23.45-.45.45Z"/>
      <path class="cls-1" d="M34.2,18.6c-.23,0-.45-.23-.45-.45v-2.33h-7.07v2.33c0,.23-.23.45-.45.45s-.45-.23-.45-.45v-2.86c0-.23.23-.45.45-.45h7.97c.23,0,.45.23.45.45v2.86c0,.23-.23.45-.45.45Z"/>
      <path class="cls-1" d="M21.43,23.26c-.23,0-.45-.23-.45-.45v-4.74c0-.23.22-.45.45-.45s.45.23.45.45v4.74c0,.23-.22.45-.45.45Z"/>
      <path class="cls-1" d="M18.64,23.26c-.23,0-.45-.23-.45-.45v-4.74c0-.23.22-.45.45-.45s.45.23.45.45v4.74c0,.23-.23.45-.45.45Z"/>
      <path class="cls-1" d="M20,28.45c-.6,0-1.2-.23-1.73-.6-.75-.53-1.13-1.35-1.13-2.25v-2.86c0-.23.23-.45.45-.45h4.74c.23,0,.45.23.45.45v2.86c0,.9-.38,1.73-1.13,2.25-.45.38-1.05.6-1.65.6ZM18.12,23.26v2.33c0,.6.3,1.13.75,1.5.3.23.75.38,1.13.38s.83-.15,1.13-.38c.45-.38.75-.9.75-1.5v-2.33h-3.76Z"/>
      <path class="cls-1" d="M22.4,25.14h-4.74c-.23,0-.45-.23-.45-.45s.23-.45.45-.45h4.74c.23,0,.45.23.45.45s-.23.45-.45.45Z"/>
      <path class="cls-1" d="M20,26.57c-.22,0-.45-.23-.45-.45v-3.31c0-.23.23-.45.45-.45s.45.23.45.45v3.31c.07.23-.15.45-.45.45Z"/>
      <path class="cls-1" d="M41.19,23.26c-.23,0-.45-.23-.45-.45v-4.74c0-.23.23-.45.45-.45s.45.23.45.45v4.74c0,.23-.23.45-.45.45Z"/>
      <path class="cls-1" d="M38.34,23.26c-.22,0-.45-.23-.45-.45v-4.74c0-.23.23-.45.45-.45s.45.23.45.45v4.74c0,.23-.23.45-.45.45Z"/>
      <path class="cls-1" d="M21.43,32.36c-.23,0-.45-.23-.45-.45v-4.36c0-.23.22-.45.45-.45s.45.23.45.45v4.36c0,.23-.22.45-.45.45Z"/>
      <path class="cls-1" d="M18.64,32.06c-.23,0-.45-.23-.45-.45v-4.06c0-.23.22-.45.45-.45s.45.23.45.45v4.06c0,.23-.23.45-.45.45Z"/>
      <path class="cls-1" d="M41.19,32.13c-.23,0-.45-.23-.45-.45v-4.13c0-.23.23-.45.45-.45s.45.23.45.45v4.13c0,.23-.23.45-.45.45Z"/>
      <path class="cls-1" d="M38.34,32.43c-.22,0-.45-.23-.45-.45v-4.51c0-.23.23-.45.45-.45s.45.23.45.45v4.51c0,.23-.23.45-.45.45Z"/>
      <path class="cls-1" d="M39.77,28.45c-.6,0-1.2-.23-1.73-.6-.75-.53-1.13-1.35-1.13-2.25v-2.86c0-.23.22-.45.45-.45h4.74c.23,0,.45.23.45.45v2.86c0,.9-.38,1.73-1.13,2.25-.45.38-1.05.6-1.65.6ZM37.89,23.26v2.33c0,.6.3,1.13.75,1.5.3.23.75.38,1.13.38s.83-.15,1.13-.38c.45-.38.75-.9.75-1.5v-2.33h-3.76Z"/>
      <path class="cls-1" d="M42.1,25.14h-4.74c-.23,0-.45-.23-.45-.45s.22-.45.45-.45h4.74c.23,0,.45.23.45.45s-.23.45-.45.45Z"/>
      <path class="cls-1" d="M39.77,26.57c-.23,0-.45-.23-.45-.45v-3.31c0-.23.23-.45.45-.45s.45.23.45.45v3.31c0,.23-.22.45-.45.45Z"/>
      <path class="cls-1" d="M33.75,36.42h-7.07c-.15,0-.3-.08-.38-.15-.08-.15-.15-.3-.08-.38l.75-2.78-12.48-1.58c-1.43-.15-2.48-1.35-2.48-2.78v-8.27c0-1.58,1.28-2.78,2.78-2.78h30.67c1.58,0,2.78,1.28,2.78,2.78v8.27c0,1.43-1.05,2.63-2.48,2.78l-12.48,1.58.75,2.78c.07.15,0,.3-.08.38.08.08-.08.15-.23.15ZM27.29,35.52h5.79l-.75-2.71c-.08-.15,0-.3.08-.38.08-.15.23-.23.3-.23l13-1.65c.9-.15,1.65-.9,1.65-1.8v-8.27c0-1.05-.83-1.88-1.88-1.88H14.89c-1.05,0-1.88.83-1.88,1.88v8.27c0,.9.68,1.73,1.65,1.8l13,1.65c.15,0,.23.08.3.23.07.15.07.23.07.38l-.75,2.71Z"/>
      <path class="cls-1" d="M34.58,26.57h-9.4c-.23,0-.45-.23-.45-.45v-4.74c0-.23.22-.45.45-.45h9.4c.23,0,.45.23.45.45v4.74c0,.23-.23.45-.45.45ZM25.63,25.67h8.49v-3.76h-8.49v3.76Z"/>
      <path class="cls-1" d="M49.61,16.27c-1.58,0-2.86-1.28-2.86-2.86s1.28-2.86,2.86-2.86,2.86,1.28,2.86,2.86-1.28,2.86-2.86,2.86ZM49.61,11.54c-1.05,0-1.88.83-1.88,1.88s.83,1.88,1.88,1.88,1.88-.83,1.88-1.88-.83-1.88-1.88-1.88Z"/>
      <path class="cls-1" d="M17.67,53.86c-2.1,0-3.76-1.65-3.76-3.76s1.65-3.76,3.76-3.76,3.76,1.65,3.76,3.76-1.65,3.76-3.76,3.76ZM17.67,47.24c-1.58,0-2.86,1.28-2.86,2.86s1.28,2.86,2.86,2.86,2.86-1.28,2.86-2.86-1.28-2.86-2.86-2.86Z"/>
      <path class="cls-3" d="M47.81,20.41v8.27c0,1.2-.9,2.18-2.03,2.33l-.75.08-3.83.45v-13.53h4.28c1.28.15,2.33,1.13,2.33,2.41Z"/>
      <path class="cls-3" d="M18.64,31.53l-3.23-.38-.75-.08c-1.13-.15-2.03-1.13-2.03-2.33v-8.34c0-1.28,1.05-2.33,2.33-2.33h3.68v13.45Z"/>
      <path class="cls-3" d="M38.34,31.98l-5.56.68.98,3.31h-7.07l.98-3.31-6.24-.75v-13.76h16.91v13.83Z"/>
      <path class="cls-2" d="M48.11,42.58c0,2.03-1.73,3.76-3.83,3.76s-3.83-1.65-3.83-3.76,1.73-3.76,3.83-3.76,3.83,1.73,3.83,3.76ZM45.85,42.58c0-.9-.75-1.58-1.65-1.58s-1.65.68-1.65,1.58.75,1.58,1.65,1.58c.98,0,1.65-.68,1.65-1.58Z"/>
      <path class="cls-3" d="M53.37,41.23v2.71l-2.63.3c-.15.6-.38,1.13-.68,1.65l1.65,2.03-1.95,1.95-2.1-1.65c-.53.3-1.13.53-1.73.68l-.3,2.56h-2.78l-.3-2.56c-.6-.15-1.2-.38-1.73-.68l-2.1,1.65-1.95-1.95,1.65-2.03c-.3-.53-.53-1.05-.68-1.65l-2.63-.3h0v-2.71l2.63-.3c.15-.6.38-1.13.68-1.65l-1.65-2.03,1.95-1.95,2.1,1.65c.53-.3,1.13-.53,1.73-.68l.3-2.56h2.86l.3,2.56c.6.15,1.2.38,1.73.68l2.1-1.65,1.95,1.95-1.8,2.03c.3.53.53,1.05.68,1.65l2.71.3ZM44.28,46.34c2.1,0,3.83-1.65,3.83-3.76s-1.73-3.76-3.83-3.76-3.83,1.65-3.83,3.76c-.08,2.1,1.73,3.76,3.83,3.76Z"/>
      <path class="cls-3" d="M49.61,11.09c1.28,0,2.33,1.05,2.33,2.33s-1.05,2.33-2.33,2.33-2.33-1.05-2.33-2.33,1.05-2.33,2.33-2.33Z"/>
      <path class="cls-3" d="M17.67,46.79c1.83,0,3.31,1.48,3.31,3.31s-1.48,3.31-3.31,3.31-3.31-1.48-3.31-3.31,1.48-3.31,3.31-3.31Z"/>
      <path class="cls-3" d="M36.08,15.3h-11.73c0-.75.3-1.5.83-2.03.53-.53,1.2-.83,2.03-.83h6.09c1.5.08,2.78,1.28,2.78,2.86Z"/>
      <rect class="cls-2" x="25.18" y="21.38" width="9.4" height="4.74"/>
      <path class="cls-2" d="M39.77,24.69h2.33v.98c0,.75-.38,1.43-.98,1.88-.38.3-.9.45-1.43.45s-1.05-.15-1.43-.45c-.6-.45-.98-1.13-.98-1.88v-.98h2.48Z"/>
      <path class="cls-2" d="M20,24.69h2.33v.98c0,.75-.38,1.43-.98,1.88-.38.3-.9.45-1.43.45s-1.05-.15-1.43-.45c-.6-.45-.98-1.13-.98-1.88v-.98h2.48Z"/>
      <path class="cls-3" d="M31.87,35.97v1.2c0,.9-.75,1.65-1.65,1.65s-1.65-.75-1.65-1.65v-1.2h3.31Z"/>
      <polygon class="cls-2" points="41.19 18.15 41.19 22.81 39.77 22.81 38.34 22.81 38.34 18.15 41.19 18.15"/>
      <path class="cls-2" d="M41.19,27.55v4.13l-2.86.38v-4.51c.38.3.9.45,1.43.45s.98-.23,1.43-.45Z"/>
      <polygon class="cls-2" points="21.43 18.15 21.43 22.81 20 22.81 18.64 22.81 18.64 18.15 21.43 18.15"/>
      <path class="cls-2" d="M21.43,27.55v4.36l-2.86-.38v-4.06c.38.3.9.45,1.43.45s1.05-.15,1.43-.38Z"/>
      <polygon class="cls-3" points="42.1 22.81 42.1 24.69 39.77 24.69 39.77 22.81 41.19 22.81 42.1 22.81"/>
      <polygon class="cls-3" points="39.77 22.81 39.77 24.69 37.44 24.69 37.44 22.81 38.34 22.81 39.77 22.81"/>
      <polygon class="cls-3" points="22.4 22.81 22.4 24.69 20 24.69 20 22.81 21.43 22.81 22.4 22.81"/>
      <polygon class="cls-3" points="20 22.81 20 24.69 17.67 24.69 17.67 22.81 18.64 22.81 20 22.81"/>
      <path class="cls-2" d="M15.41,31.16l12.18,1.5-.9,3.31h1.88v1.2c0,.9.75,1.65,1.65,1.65s1.65-.75,1.65-1.65v-1.2h1.88l-.98-3.31c20.97-2.63-3.53.45,12.25-1.5v2.56h-2.18l-.3,2.56c-.6.15-1.2.38-1.73.68l-2.1-1.65-1.95,1.95,1.65,2.03c-.3.53-.53,1.05-.68,1.65l-2.56.3v2.71h-16.54c-1.73,0-3.23-1.43-3.23-3.23v-9.55Z"/>
      <polygon class="cls-3" points="21.05 40.7 15.41 40.7 15.41 35.06 21.05 40.7"/>
      <path class="cls-1" d="M51.27,20.93c.37,0,.68.3.68.68s-.3.68-.68.68-.68-.3-.68-.68.3-.68.68-.68Z"/>
      <path class="cls-1" d="M49.84,30.86c.37,0,.68.3.68.68s-.3.68-.68.68-.68-.3-.68-.68.3-.68.68-.68Z"/>
      <path class="cls-1" d="M39.99,11.54c.37,0,.68.3.68.68s-.3.68-.68.68-.68-.3-.68-.68.3-.68.68-.68Z"/>
      <path class="cls-1" d="M34.8,49.65c.37,0,.68.3.68.68s-.3.68-.68.68-.68-.3-.68-.68.3-.68.68-.68Z"/>
      <path class="cls-1" d="M24.96,46.34c.37,0,.68.3.68.68s-.3.68-.68.68-.68-.3-.68-.68.3-.68.68-.68Z"/>
      <path class="cls-1" d="M21.2,11.09c.37,0,.68.3.68.68s-.3.68-.68.68-.68-.3-.68-.68.3-.68.68-.68Z"/>
      <path class="cls-1" d="M12.71,37.85c.37,0,.68.3.68.68s-.3.68-.68.68-.68-.3-.68-.68.3-.68.68-.68Z"/>
      <path class="cls-1" d="M12.25,14.85c.37,0,.68.3.68.68s-.3.68-.68.68-.68-.3-.68-.68.3-.68.68-.68Z"/>
      <path class="cls-1" d="M44.28,46.79c-2.4,0-4.36-1.88-4.36-4.21s1.95-4.21,4.36-4.21,4.36,1.88,4.36,4.21c-.08,2.33-2.03,4.21-4.36,4.21ZM44.28,39.27c-1.88,0-3.38,1.5-3.38,3.31s1.5,3.31,3.38,3.31,3.38-1.5,3.38-3.31-1.5-3.31-3.38-3.31Z"/>
      <path class="cls-1" d="M44.28,44.61c-1.13,0-2.1-.9-2.1-2.03s.9-2.03,2.1-2.03c1.13,0,2.1.9,2.1,2.03s-.98,2.03-2.1,2.03ZM44.28,41.45c-.6,0-1.13.53-1.13,1.13s.53,1.13,1.13,1.13,1.13-.53,1.13-1.13-.53-1.13-1.13-1.13Z"/>
      <path class="cls-1" d="M30.22,39.27c-1.2,0-2.1-.98-2.1-2.1v-1.2c0-.23.23-.45.45-.45s.45.23.45.45v1.2c0,.68.53,1.2,1.2,1.2s1.2-.53,1.2-1.2v-1.2c0-.23.23-.45.45-.45s.45.23.45.45v1.2c0,1.13-.98,2.1-2.1,2.1Z"/>
      <path class="cls-1" d="M35.18,44.46h-16.54c-2.03,0-3.68-1.65-3.68-3.68v-9.62c0-.23.23-.45.45-.45s.45.23.45.45v9.62c0,1.5,1.2,2.71,2.71,2.71h16.54c.23,0,.45.23.45.45.08.3-.15.53-.38.53Z"/>
      <path class="cls-1" d="M45.03,34.16c-.23,0-.45-.23-.45-.45v-2.56c0-.23.23-.45.45-.45s.45.23.45.45v2.56c0,.23-.22.45-.45.45Z"/>
      <path class="cls-1" d="M45.63,51.98h-2.78c-.23,0-.45-.15-.45-.45l-.23-2.25c-.45-.15-.83-.3-1.2-.53l-1.8,1.43c-.15.15-.45.15-.6,0l-1.95-1.95c-.15-.15-.23-.45,0-.6l1.5-1.8c-.23-.38-.38-.75-.53-1.2l-2.33-.23c-.22,0-.45-.23-.45-.45v-2.71c0-.23.15-.45.45-.45l2.33-.23c.15-.38.3-.83.53-1.2l-1.5-1.8c-.15-.23-.15-.45,0-.6l1.95-1.95c.15-.15.45-.15.6,0l1.8,1.43c.38-.23.83-.38,1.2-.53l.23-2.25c0-.23.23-.45.45-.45h2.78c.22,0,.45.15.45.45l.23,2.25c.45.15.83.3,1.2.53l1.8-1.43c.15-.15.45-.15.6,0l1.95,1.95c.15.15.23.45,0,.6l-1.5,1.8c.23.38.38.75.53,1.2l2.33.23c.23,0,.45.23.45.45v2.71c0,.23-.15.45-.45.45l-2.33.23c-.15.38-.3.83-.53,1.2l1.5,1.8c.15.23.15.45,0,.6l-1.95,1.95c-.15.15-.45.15-.6,0l-1.73-1.43c-.38.23-.83.38-1.2.53l-.23,2.25c-.08.23-.3.45-.53.45ZM43.3,51h1.95l.22-2.18c0-.23.15-.38.38-.38.53-.15,1.05-.38,1.58-.68.15-.08.38-.08.53.08l1.73,1.35,1.35-1.35-1.43-1.65c-.15-.15-.15-.38-.08-.53.3-.53.53-.98.68-1.58.08-.23.22-.3.38-.38l2.25-.23v-1.88l-2.25-.23c-.23,0-.38-.15-.38-.38-.15-.53-.38-1.05-.68-1.58-.07-.15-.07-.38.08-.53l1.43-1.65-1.35-1.28-1.73,1.35c-.15.15-.38.15-.53.08-.53-.3-1.05-.53-1.58-.68-.22,0-.38-.15-.38-.38l-.22-2.18h-1.95l-.22,2.18c0,.23-.15.38-.38.38-.53.15-1.13.38-1.58.68-.15.08-.38.08-.53,0l-1.73-1.43-1.35,1.35,1.43,1.65c.15.15.15.38.08.53-.3.45-.53.98-.68,1.58-.08.23-.22.3-.38.38l-2.25.23v1.88l2.25.23c.23,0,.38.15.38.38.15.53.38,1.05.68,1.58.08.15.08.38-.08.53l-1.43,1.65,1.35,1.35,1.73-1.35c.15-.15.38-.15.53-.08.53.3,1.05.53,1.58.68.23.08.3.23.38.38l.22,2.1Z"/>
      <path class="cls-1" d="M32.25,41.15H15.41c-.23,0-.45-.23-.45-.45s.23-.45.45-.45h16.84c.23,0,.45.22.45.45s-.23.45-.45.45Z"/>
      <path class="cls-1" d="M21.05,41.15c-.15,0-.23-.08-.3-.15l-5.64-5.64c-.15-.15-.15-.45,0-.68.15-.15.45-.15.68,0l5.64,5.64c.15.15.15.45,0,.68-.15.08-.23.15-.38.15Z"/>
      <path class="cls-1" d="M36.08,15.75h-1.88c-.23,0-.45-.23-.45-.45s.23-.45.45-.45h1.35c-.22-1.05-1.2-1.88-2.33-1.88h-6.09c-.6,0-1.2.23-1.65.68-.3.3-.53.75-.68,1.2h1.35c.23,0,.45.23.45.45s-.23.45-.45.45h-1.88c-.23,0-.45-.23-.45-.45,0-.9.38-1.73.98-2.33.6-.6,1.43-.98,2.33-.98h6.09c1.8,0,3.31,1.5,3.31,3.31,0,.23-.23.45-.45.45Z"/>
      <path class="cls-1" d="M34.2,18.6c-.23,0-.45-.23-.45-.45v-2.33h-7.07v2.33c0,.23-.23.45-.45.45s-.45-.23-.45-.45v-2.86c0-.23.23-.45.45-.45h7.97c.23,0,.45.23.45.45v2.86c0,.23-.23.45-.45.45Z"/>
      <path class="cls-1" d="M21.43,23.26c-.23,0-.45-.23-.45-.45v-4.74c0-.23.22-.45.45-.45s.45.23.45.45v4.74c0,.23-.22.45-.45.45Z"/>
      <path class="cls-1" d="M18.64,23.26c-.23,0-.45-.23-.45-.45v-4.74c0-.23.22-.45.45-.45s.45.23.45.45v4.74c0,.23-.23.45-.45.45Z"/>
      <path class="cls-1" d="M20,28.45c-.6,0-1.2-.23-1.73-.6-.75-.53-1.13-1.35-1.13-2.25v-2.86c0-.23.23-.45.45-.45h4.74c.23,0,.45.23.45.45v2.86c0,.9-.38,1.73-1.13,2.25-.45.38-1.05.6-1.65.6ZM18.12,23.26v2.33c0,.6.3,1.13.75,1.5.3.23.75.38,1.13.38s.83-.15,1.13-.38c.45-.38.75-.9.75-1.5v-2.33h-3.76Z"/>
      <path class="cls-1" d="M22.4,25.14h-4.74c-.23,0-.45-.23-.45-.45s.23-.45.45-.45h4.74c.23,0,.45.23.45.45s-.23.45-.45.45Z"/>
      <path class="cls-1" d="M20,26.57c-.22,0-.45-.23-.45-.45v-3.31c0-.23.23-.45.45-.45s.45.23.45.45v3.31c.07.23-.15.45-.45.45Z"/>
      <path class="cls-1" d="M41.19,23.26c-.23,0-.45-.23-.45-.45v-4.74c0-.23.23-.45.45-.45s.45.23.45.45v4.74c0,.23-.23.45-.45.45Z"/>
      <path class="cls-1" d="M38.34,23.26c-.22,0-.45-.23-.45-.45v-4.74c0-.23.23-.45.45-.45s.45.23.45.45v4.74c0,.23-.23.45-.45.45Z"/>
      <path class="cls-1" d="M21.43,32.36c-.23,0-.45-.23-.45-.45v-4.36c0-.23.22-.45.45-.45s.45.23.45.45v4.36c0,.23-.22.45-.45.45Z"/>
      <path class="cls-1" d="M18.64,32.06c-.23,0-.45-.23-.45-.45v-4.06c0-.23.22-.45.45-.45s.45.23.45.45v4.06c0,.23-.23.45-.45.45Z"/>
      <path class="cls-1" d="M41.19,32.13c-.23,0-.45-.23-.45-.45v-4.13c0-.23.23-.45.45-.45s.45.23.45.45v4.13c0,.23-.23.45-.45.45Z"/>
      <path class="cls-1" d="M38.34,32.43c-.22,0-.45-.23-.45-.45v-4.51c0-.23.23-.45.45-.45s.45.23.45.45v4.51c0,.23-.23.45-.45.45Z"/>
      <path class="cls-1" d="M39.77,28.45c-.6,0-1.2-.23-1.73-.6-.75-.53-1.13-1.35-1.13-2.25v-2.86c0-.23.22-.45.45-.45h4.74c.23,0,.45.23.45.45v2.86c0,.9-.38,1.73-1.13,2.25-.45.38-1.05.6-1.65.6ZM37.89,23.26v2.33c0,.6.3,1.13.75,1.5.3.23.75.38,1.13.38s.83-.15,1.13-.38c.45-.38.75-.9.75-1.5v-2.33h-3.76Z"/>
      <path class="cls-1" d="M42.1,25.14h-4.74c-.23,0-.45-.23-.45-.45s.22-.45.45-.45h4.74c.23,0,.45.23.45.45s-.23.45-.45.45Z"/>
      <path class="cls-1" d="M39.77,26.57c-.23,0-.45-.23-.45-.45v-3.31c0-.23.23-.45.45-.45s.45.23.45.45v3.31c0,.23-.22.45-.45.45Z"/>
      <path class="cls-1" d="M33.75,36.42h-7.07c-.15,0-.3-.08-.38-.15-.08-.15-.15-.3-.08-.38l.75-2.78-12.48-1.58c-1.43-.15-2.48-1.35-2.48-2.78v-8.27c0-1.58,1.28-2.78,2.78-2.78h30.67c1.58,0,2.78,1.28,2.78,2.78v8.27c0,1.43-1.05,2.63-2.48,2.78l-12.48,1.58.75,2.78c.07.15,0,.3-.08.38.08.08-.08.15-.23.15ZM27.29,35.52h5.79l-.75-2.71c-.08-.15,0-.3.08-.38.08-.15.23-.23.3-.23l13-1.65c.9-.15,1.65-.9,1.65-1.8v-8.27c0-1.05-.83-1.88-1.88-1.88H14.89c-1.05,0-1.88.83-1.88,1.88v8.27c0,.9.68,1.73,1.65,1.8l13,1.65c.15,0,.23.08.3.23.07.15.07.23.07.38l-.75,2.71Z"/>
      <path class="cls-1" d="M34.58,26.57h-9.4c-.23,0-.45-.23-.45-.45v-4.74c0-.23.22-.45.45-.45h9.4c.23,0,.45.23.45.45v4.74c0,.23-.23.45-.45.45ZM25.63,25.67h8.49v-3.76h-8.49v3.76Z"/>
      <path class="cls-1" d="M49.61,16.27c-1.58,0-2.86-1.28-2.86-2.86s1.28-2.86,2.86-2.86,2.86,1.28,2.86,2.86-1.28,2.86-2.86,2.86ZM49.61,11.54c-1.05,0-1.88.83-1.88,1.88s.83,1.88,1.88,1.88,1.88-.83,1.88-1.88-.83-1.88-1.88-1.88Z"/>
      <path class="cls-1" d="M17.67,53.86c-2.1,0-3.76-1.65-3.76-3.76s1.65-3.76,3.76-3.76,3.76,1.65,3.76,3.76-1.65,3.76-3.76,3.76ZM17.67,47.24c-1.58,0-2.86,1.28-2.86,2.86s1.28,2.86,2.86,2.86,2.86-1.28,2.86-2.86-1.28-2.86-2.86-2.86Z"/>
    </g>
  </g>
</svg>