<?xml version="1.0" encoding="utf-8"?>
<!-- Generator: Adobe Illustrator 28.2.0, SVG Export Plug-In . SVG Version: 6.00 Build 0)  -->
<svg version="1.1" id="Layer_1" xmlns="http://www.w3.org/2000/svg" xmlns:xlink="http://www.w3.org/1999/xlink" x="0px" y="0px"
	 viewBox="0 0 350 250" style="enable-background:new 0 0 350 250;" xml:space="preserve">
<style type="text/css">
	.st0{fill:#64758A;}
</style>
<path class="st0" d="M223.4,120.5c0.3,0,0.8-0.1,0.9,0.2c0.1,0.2-0.2,0.5-0.4,0.8c-1.7,2.2-3.4,4.3-5,6.5c-0.9,1.2-1.9,1.7-3.4,1.7
	c-7.2-0.1-14.4,0-21.6,0c-1.3,0-1.3,0-1.3,1.3c0,0.9,0.1,1.8,0,2.7c-0.1,0.9,0.3,1.1,1.2,1.1c5.7,0,11.5,0,17.2,0c5,0,10,0,15,0
	c0.3,0,0.7-0.2,0.8,0.1c0.1,0.3-0.2,0.5-0.4,0.8c-2,2.7-4,5.3-6.2,7.9c-0.7,0.9-1.5,1.3-2.7,1.3c-12.2-0.1-24.4-0.1-36.6-0.1
	c-0.8,0-1-0.2-1-1c0-12.4,0-24.7,0-37.1c0-0.8,0.2-1,1-1c7.5,0,15,0,22.4,0v0c7.5,0,15,0,22.4,0c0.3,0,0.7,0,0.8,0.2
	c0.1,0.2-0.2,0.5-0.4,0.8c-2.3,3-4.6,5.9-6.9,8.9c-0.4,0.5-0.8,0.4-1.2,0.4c-8,0-16,0-24,0c-1.5,0-1.5,0-1.6,1.5
	c0,0.7,0,1.5,0.1,2.2c0,0.6,0.3,0.9,1,0.9L223.4,120.5L223.4,120.5z"/>
<path class="st0" d="M300,144.6c0.9-1.2,1.8-2.3,2.6-3.5c1.2-1.6,2.4-3.1,3.4-4.7c0.9-1.4,2.2-1.9,3.7-1.8c3.9,0,7.9,0.1,11.8,0.1
	c0.5,0,1.1,0,1.6,0c0.3,0,0.7,0.1,0.8-0.2c0.2-0.3-0.2-0.5-0.3-0.8c-2.2-3.2-4.4-6.4-6.6-9.6c-0.9-1.4-1.9-2.7-2.8-4.1
	c-0.4-0.6-0.8-0.6-1.2-0.2c-0.3,0.2-0.5,0.5-0.8,0.8c-4.2,6.1-8.8,11.9-13.1,17.9c-1.2,1.7-2.2,3.5-3.6,5.1
	c-0.7,0.8-1.5,1.2-2.6,1.2c-4-0.1-7.9,0-11.9-0.1c-0.4,0-1,0.2-1.2-0.1c-0.2-0.4,0.3-0.8,0.6-1.2c2.9-4,5.9-8,8.8-12.1
	c5.2-7.1,10.3-14.2,15.5-21.2c1.8-2.4,3.9-4.5,7-5c3.6-0.6,6.9,0.2,9.3,3.3c5.1,6.8,10,13.7,14.9,20.6c3.5,4.9,7,9.9,10.5,14.8
	c0.2,0.2,0.5,0.4,0.3,0.8c-0.1,0.3-0.5,0.1-0.7,0.1c-13.1,0.3-26.2,0.2-39.4,0.1c-2.2,0-4.5,0-6.7,0
	C300.1,144.8,300.1,144.7,300,144.6L300,144.6z"/>
<path class="st0" d="M99.1,144.9c-7.1-0.2-14.5,0.1-21.9,0c-0.4,0-1.1,0.1-1.2-0.2c-0.1-0.3,0.3-0.7,0.5-1c2-2.8,4.1-5.5,6.1-8.2
	c0.4-0.6,0.9-0.8,1.6-0.8c4.8,0,9.6,0,14.4,0c0.3,0,1,0.1,1-0.2c0.1-0.3-0.2-0.7-0.4-0.9c-3-4.5-6-8.9-9.3-13.2
	c-0.7-1-0.8-0.9-1.5,0c-5.6,7.6-11.2,15.2-16.7,22.9c-0.9,1.3-2,1.9-3.6,1.8c-3.8-0.1-7.7-0.1-11.5-0.1c-0.3,0-0.8,0.1-0.9-0.2
	c-0.2-0.3,0.2-0.6,0.4-0.9c6.5-9.1,13.1-18.1,19.7-27.1c1.9-2.6,3.6-5.3,5.6-7.7c3-3.6,7.2-4.9,11.5-3.5c2.3,0.8,3.8,2.5,5.1,4.3
	c3.7,5.2,7.4,10.4,11.2,15.6c4.4,6.2,8.7,12.3,13.1,18.5c0.2,0.2,0.4,0.6,0.3,0.8c-0.1,0.2-0.6,0.1-0.8,0.1
	C114.3,144.9,106.8,144.9,99.1,144.9L99.1,144.9z"/>
<path class="st0" d="M54.3,144.9c-1.8,0-3.6,0-5.1,0c-4,0-8.1,0-12.1,0c-1.1,0-2-0.4-2.9-1c-3.8-2.8-7.4-5.9-10.9-9
	c-2.2-1.9-4.5-3.8-6.7-5.8c-0.2-0.2-0.5-0.6-0.8-0.4c-0.3,0.2-0.1,0.6-0.1,0.8c0,4.7,0.1,9.4,0.2,14.1c0,0.9-0.2,1.1-1.1,1.1
	c-3.6,0-7.1,0-10.7,0c-0.7,0-1-0.2-1-0.9c0-4.8,0-9.6,0-14.3c0-7.6,0-15.2,0-22.8c0-0.8,0.1-1.1,1.1-1.1c3.6,0.1,7.2,0,10.8,0
	c0.6,0,0.9,0.1,0.9,0.8c0,4.5,0,9.1,0,13.6c0,0.2,0,0.6,0.1,0.6c0.2,0.1,0.4-0.2,0.6-0.4c3.7-3,7.4-6,11-9.1c2-1.7,3.9-3.4,6.2-4.9
	c0.8-0.5,1.5-0.7,2.5-0.7c4.9,0,9.9,0,14.8,0c0.4,0,0.8,0,1.4,0c0,0-1.4,1.1-1.9,1.6c-7.1,5.4-14.1,10.7-21.4,15.7
	c-1.8,1.2-2,0.9-0.1,2.3L54.3,144.9L54.3,144.9z"/>
<path class="st0" d="M233.3,115.9c1.8-2.6,3.8-4.8,5.5-7.2c1.7-2.4,3.7-3.1,6.6-3.1c13.5,0.2,27,0.1,40.5,0.1c0.3,0,0.5,0,0.8,0
	c0.2,0,0.5-0.1,0.6,0.2c0.1,0.2-0.1,0.4-0.3,0.6c-2.2,2.9-4.4,5.9-6.8,8.7c-0.5,0.6-1.1,0.9-1.9,0.9c-4,0-8,0-12,0
	c-0.9,0-1.3,0.2-1.3,1.2c0,8.9-0.1,17.8-0.1,26.7c0,0.7-0.1,1-0.9,1c-3.6,0-7.1,0-10.7,0c-0.8,0-1-0.2-1-1c0-8.9,0-17.9,0-26.8
	c0-0.9-0.1-1.2-1.1-1.2c-5.6,0-11.1,0-16.7,0C234.2,115.9,233.9,115.9,233.3,115.9L233.3,115.9z"/>
<path class="st0" d="M172.6,134.7c-1.3,1.7-2.4,3.2-3.5,4.7c-1.2,1.6-2.3,3.4-3.8,4.8c-0.5,0.4-0.9,0.7-1.6,0.7
	c-10.4,0.2-20.9,0.2-31.3,0.1c-0.9,0-1.8-0.2-2.6-0.1c-0.9,0.1-1.1-0.2-1.1-1.1c0.1-4.9,0-9.7,0-14.5c0-7.5,0-15,0-22.5
	c0-0.9,0.2-1.1,1.1-1c3.6,0,7.1,0,10.7,0c0.8,0,1,0.2,1,1c0,9,0,17.9,0,26.9c0,1,0.3,1.2,1.2,1.2c9.4,0,18.7,0,28.1,0
	C171.3,134.7,171.8,134.7,172.6,134.7L172.6,134.7z"/>
</svg>
