<?xml version="1.0" encoding="utf-8"?>
<!-- Generator: Adobe Illustrator 28.2.0, SVG Export Plug-In . SVG Version: 6.00 Build 0)  -->
<svg version="1.1" id="Layer_1" xmlns="http://www.w3.org/2000/svg" xmlns:xlink="http://www.w3.org/1999/xlink" x="0px" y="0px"
	 viewBox="0 0 350 250" style="enable-background:new 0 0 350 250;" xml:space="preserve">
<style type="text/css">
	.st0{fill-rule:evenodd;clip-rule:evenodd;fill:#64758A;}
</style>
<path class="st0" d="M256.9,89.6h28.3l-2.8,15.1h-11.5l-2.7,14.3h10.3l-2.5,14.3h-10.3l-11,61.8h-16.8L256.9,89.6L256.9,89.6
	L256.9,89.6z M250.8,89.6h-17.2l-10.4,55.5c-0.7,3.7-1.3,6.2-1.8,7.3c-0.6,1-1.3,1.5-2.4,1.5c-1,0-1.6-0.5-1.7-1.3
	c-0.1-1,0.1-3,0.7-6.4l10.6-56.5h-17.3l-8.3,44.6c-1.6,8.5-2.5,14-2.8,16.7c-0.1,2.7,0.2,5.2,1.3,7.6c1,2.4,2.9,4.4,5.7,5.8
	c2.8,1.6,6,2.3,10,2.3c3.6,0,6.8-0.6,9.7-1.9c2.9-1.2,5.3-3.1,7.4-5.6c2.1-2.4,3.5-4.8,4.2-7.1c0.9-2.3,1.7-6.3,2.8-12.1L250.8,89.6
	L250.8,89.6L250.8,89.6z M180.6,138.1c0.7-8.6,1.8-19,3.4-31.6c-4.5,14.4-7.5,24.8-9.1,31.6H180.6L180.6,138.1z M198.1,89.6
	l-5.3,75.5H177l1.7-13.7h-6L169,165h-17.2L176,89.5h22.1V89.6z M162.3,89.6h-14.5l-6.3,34l-3.4-34h-14.4L109.6,165h14.5l6.4-34.3
	L133,165h15.1L162.3,89.6L162.3,89.6L162.3,89.6z M116,90.2l-14.3,34.1l3.5,40.7H89.4l-2.9-27l-5.1,27H64.9L82.2,55h16.6l-8.5,60.2
	l10.5-25L116,90.2L116,90.2z"/>
</svg>
