<?xml version="1.0" encoding="utf-8"?>
<!-- Generator: Adobe Illustrator 28.2.0, SVG Export Plug-In . SVG Version: 6.00 Build 0)  -->
<svg version="1.1" id="Layer_1" xmlns="http://www.w3.org/2000/svg" xmlns:xlink="http://www.w3.org/1999/xlink" x="0px" y="0px"
	 viewBox="0 0 168 196.5" style="enable-background:new 0 0 168 196.5;" xml:space="preserve">
<style type="text/css">
	.st0{fill:#FFFFFF;}
</style>
<g>
	<polygon class="st0" points="83.9,14.3 89.3,18.2 89.3,62 78.7,62 78.7,18.3 	"/>
	<path class="st0" d="M33,43.8c-12.3,22-8.6,48.4,5.9,65.3V50.5l10.9-8.8v90.9c-9.3-5.3-17.3-12.6-23.2-21.4
		c-9.8-14.5-13.8-30.6-11.4-47.9c5.3-38,38-62,71.9-60.2c41.3,2.2,62.8,35.3,65.2,58.7h-10.8c-3.4-16.2-11.8-29.2-25.7-38.4
		c-9.3-6.1-20.1-9.4-31.2-9.7C84.6,13.7,52.3,13.9,33,43.8"/>
	<path class="st0" d="M78.6,141V71.1h74.5c3.1,20.6-16.3,54.4-35.2,61.1V81.9h-8.5v54.7c-3.6,1.6-7.3,2.7-11.1,3.5V81.9h-8.8v59
		C85.9,141.7,82.2,141.8,78.6,141 M129.1,81.8v27.3c6.4-7.9,10.6-17.2,12.3-27.2L129.1,81.8z"/>
	<path class="st0" d="M58.7,34.3l10.8-8.8v114.4c-2.2-0.3-4.4-0.8-6.6-1.6c-1.5-0.3-2.9-0.9-4.2-1.7V34.3z"/>
	<polygon class="st0" points="109.2,62 98.4,62 98.4,25.6 109.2,34.3 	"/>
	<polygon class="st0" points="118,62 118,41.5 128.8,50.3 128.8,62 	"/>
	<g>
		<path class="st0" d="M25.1,174.5H13.8v19.5h-7v-25.1h18.4L25.1,174.5z"/>
		<path class="st0" d="M38.5,184.3h-3.2v9.6h-7.1v-25.1h7.1v9.7h3.4l6-9.7h7.5L44.3,181l7.9,13h-8L38.5,184.3z"/>
		<path class="st0" d="M84.1,174.5H72.7v19.5h-7v-25.1h18.4L84.1,174.5z"/>
		<path class="st0" d="M99.7,189.1H89l-2,4.9h-7.2l11.1-25.1h7.1L109,194h-7.4L99.7,189.1z M97.6,183.8l-3.2-8l-3.2,8H97.6z"/>
		<path class="st0" d="M135.6,168.8v25.1h-7v-19.5h-7.2l-0.1,4.1c-0.1,3.6-0.4,6.5-0.9,8.7s-1.3,4-2.4,5.2c-1.1,1.3-2.7,1.9-4.8,1.9
			c-1,0-2-0.1-3.2-0.4l0.4-5.8c0.3,0.1,0.7,0.1,1,0.1c1,0,1.7-0.4,2.2-1.1c0.5-0.7,0.8-1.8,1.1-3.1s0.4-3,0.4-5.2l0.4-10
			L135.6,168.8L135.6,168.8z"/>
		<path class="st0" d="M161.2,174.5h-7.7v19.5h-7v-19.5h-7.7v-5.6h22.3L161.2,174.5L161.2,174.5z"/>
	</g>
</g>
</svg>
