<?xml version="1.0" encoding="utf-8"?>
<!-- Generator: Adobe Illustrator 25.4.1, SVG Export Plug-In . SVG Version: 6.00 Build 0)  -->
<svg version="1.1" id="Layer_1" xmlns="http://www.w3.org/2000/svg" xmlns:xlink="http://www.w3.org/1999/xlink" x="0px" y="0px"
	 viewBox="0 0 167.3 93.5" style="enable-background:new 0 0 167.3 93.5;" xml:space="preserve">
<style type="text/css">
	.st0{fill:#FFFFFF;}
</style>
<g>
	<g>
		<path class="st0" d="M0.9,10.3v51.5h51.5V10.3H0.9z M31.9,51.6H21.4V20.5h10.5V51.6z"/>
		<path class="st0" d="M58.2,10.3v51.5h51.5V10.3H58.2z M80.9,41.7c1.3,1.4,3.1,2.1,5.3,2.1c2.6,0,4.9-1.2,6.8-3.6l6.6,5.9
			c-1.5,2-3.5,3.6-5.9,4.6c-2.4,1.1-5.1,1.6-8.1,1.6c-3.3,0-6.3-0.7-8.9-2.1c-2.6-1.4-4.7-3.3-6.2-5.8s-2.2-5.3-2.2-8.4
			c0-3.1,0.7-6,2.2-8.4c1.5-2.5,3.6-4.4,6.2-5.8c2.6-1.4,5.6-2.1,8.9-2.1c3,0,5.7,0.5,8.1,1.6s4.3,2.6,5.9,4.6l-6.6,6
			c-1.9-2.4-4.2-3.6-6.8-3.6c-2.2,0-4,0.7-5.3,2.1s-2,3.3-2,5.7C78.8,38.4,79.5,40.3,80.9,41.7z"/>
		<g>
			<path class="st0" d="M144.2,29.5c-0.7-0.6-1.8-1-3.2-1h-3.8v7.3h3.8c1.4,0,2.5-0.3,3.2-1c0.7-0.6,1.1-1.5,1.1-2.7
				C145.2,31.1,144.9,30.2,144.2,29.5z"/>
			<path class="st0" d="M115.5,10.3v51.5H167V10.3H115.5z M154.1,38.5c-1.2,1.8-2.8,3.1-4.9,4.1c-2.1,1-4.6,1.4-7.5,1.4h-4.5v7.7
				h-10.5V20.5h15c2.9,0,5.4,0.5,7.5,1.4s3.8,2.3,4.9,4.1c1.2,1.8,1.7,3.9,1.7,6.2C155.8,34.6,155.3,36.7,154.1,38.5z"/>
		</g>
	</g>
	<g>
		<path class="st0" d="M10.1,80.3v3H0.4V71.5H10v3H4.2v1.4h5v2.9h-5v1.5H10.1z"/>
		<path class="st0" d="M38.3,83.3l-2-3.1l-2,3.1h-4.5l4.2-5.9l-4.1-5.8h4.4l2,3l1.9-3h4.3l-4.1,5.7l4.3,6.1L38.3,83.3L38.3,83.3z"/>
		<path class="st0" d="M71.1,72.1c0.8,0.4,1.4,0.9,1.9,1.5c0.4,0.7,0.7,1.5,0.7,2.4s-0.2,1.7-0.7,2.4c-0.4,0.7-1.1,1.2-1.9,1.5
			c-0.8,0.4-1.8,0.5-2.8,0.5h-1.7v2.9h-4V71.5h5.7C69.4,71.5,70.3,71.7,71.1,72.1z M69.2,77c0.3-0.2,0.4-0.6,0.4-1s-0.1-0.8-0.4-1
			s-0.7-0.4-1.2-0.4h-1.4v2.8H68C68.6,77.3,69,77.2,69.2,77z"/>
		<path class="st0" d="M104,80.3v3h-9.8V71.5h9.6v3h-5.7v1.4h5v2.9h-5v1.5H104z"/>
		<path class="st0" d="M129.9,80.3h-1.1v3h-4V71.5h5.7c1.1,0,2,0.2,2.8,0.5c0.8,0.4,1.4,0.9,1.9,1.5c0.4,0.7,0.7,1.5,0.7,2.4
			c0,0.8-0.2,1.6-0.6,2.2c-0.4,0.6-0.9,1.1-1.6,1.5l2.5,3.6H132L129.9,80.3z M131.5,74.9c-0.3-0.2-0.7-0.4-1.2-0.4h-1.4v2.8h1.4
			c0.5,0,0.9-0.1,1.2-0.4c0.3-0.2,0.4-0.6,0.4-1S131.7,75.2,131.5,74.9z"/>
		<path class="st0" d="M159,74.6h-3.4v-3.1h10.8v3.1H163v8.7h-4V74.6z"/>
	</g>
</g>
</svg>
