<?xml version="1.0" encoding="utf-8"?>
<!-- Generator: Adobe Illustrator 28.2.0, SVG Export Plug-In . SVG Version: 6.00 Build 0)  -->
<svg version="1.1" id="Layer_1" xmlns="http://www.w3.org/2000/svg" xmlns:xlink="http://www.w3.org/1999/xlink" x="0px" y="0px"
	 viewBox="0 0 350 250" style="enable-background:new 0 0 350 250;" xml:space="preserve">
<style type="text/css">
	.st0{fill-rule:evenodd;clip-rule:evenodd;fill:#64758A;}
</style>
<polygon class="st0" points="94.2,150.3 94.2,139.2 99.3,139.2 99.3,110.5 94.2,110.5 94.2,99.6 118.4,99.6 126.6,118.8 134.9,99.6 
	159.5,99.6 159.5,110.5 154.4,110.5 154.4,139.2 159.5,139.2 159.5,150.3 135.5,150.3 135.5,139.2 140.6,139.2 140.6,117.9 
	131.1,139.2 122.5,139.2 113,117.9 113,139.2 118.4,139.2 118.4,150.3 "/>
<polygon class="st0" points="198.3,150.3 198.3,139.2 201.7,139.2 201.7,126.9 198.3,126.9 198.3,115.9 201.7,115.9 201.7,104.9 
	214.9,104.9 214.9,115.9 218.2,115.9 218.2,126.9 214.9,126.9 214.9,139.2 218.2,139.2 218.2,150.3 198.3,150.3 "/>
<path class="st0" d="M44.3,87c-21,0-38.2,16.6-38.2,37.9c0,18.7,12.6,32.4,29.9,37v-41.6c0-0.7,0.1-1.6,1-1.6c0.9,0,1.1,0.9,1.1,1.6
	v42.2c2.1,0.3,4.1,0.6,6.2,0.6s4.2-0.2,6.2-0.6l0,0v-42.2c0-0.8,0.2-1.6,1.2-1.6s1,1,1,1.6v41.6c17.3-4.6,29.9-18.3,29.9-37
	C82.6,103.6,65.3,87,44.3,87z M65,140.8L65,140.8L65,140.8L65,140.8v-22.5c0-6.4-3.3-12.4-10.5-12.4c-4.7,0-8.6,3.2-10.1,7.5
	c-1.3-4.4-5.6-7.5-10.2-7.5c-7.2,0-10.5,6-10.5,12.4v22.5c-3.7-4.5-5.5-10.3-5.5-16c0-14.2,11.9-26,26.2-26s26.2,11.7,26.2,26
	C70.5,130.5,68.7,136.3,65,140.8L65,140.8z"/>
<path class="st0" d="M179.4,139.9c-2.4,0-4.6-1.6-4.6-4.2v-0.1h23.5c-0.2-11.6-7.9-21.1-20.3-21.1c-10.4,0-19.1,8.3-19.1,18.7
	c0,11.2,9.4,18.6,20.2,18.6c5.9,0,12-2.3,15.8-7c1.6-2.1,3.1-4.6,3.5-7.3h-14.5C183.1,139.2,181.2,139.9,179.4,139.9L179.4,139.9z
	 M179,126.2c2.4,0,4.1,1.7,4.5,3.9h-8.8C175.1,127.9,176.6,126.2,179,126.2L179,126.2z"/>
<path class="st0" d="M260.4,126.9v-11.1h-16.3v3.2c-2.5-2.6-6.1-3.8-9.6-3.8c-9.5,0-16.5,8.6-16.5,17.8s6.6,18.1,16.3,18.1
	c3.4,0,7.3-1,9.8-3.5v2.7h16.3v-11.1h-3.2V127L260.4,126.9L260.4,126.9z M238.6,138.8c-3,0-5.5-2.6-5.5-5.6s2.5-5.6,5.5-5.6
	s5.5,2.6,5.5,5.6S241.6,138.8,238.6,138.8z"/>
<path class="st0" d="M288.3,115.4c-3.5,0-7,1.2-9.7,3.4V99.6h-16.9v10.9h3.4v28.7h-3.4v11.1h16.9v-2.8c2.6,2.4,6.3,3.2,9.7,3.2
	c9.7,0,16.4-7.9,16.4-17.4S298,115.4,288.3,115.4L288.3,115.4z M284.4,138.8c-3,0-5.5-2.6-5.5-5.6s2.5-5.5,5.5-5.5s5.5,2.6,5.5,5.5
	S287.4,138.8,284.4,138.8z"/>
<path class="st0" d="M324.7,114.8L324.7,114.8c-10.1,0-19.2,7.9-19.2,18.3c0,10.3,9.2,18.3,19.2,18.3s19.2-7.9,19.2-18.3
	S334.8,114.8,324.7,114.8z M324.6,138.6c-3,0-5.5-2.6-5.5-5.6s2.5-5.6,5.5-5.6s5.5,2.6,5.5,5.6S327.6,138.6,324.6,138.6z"/>
</svg>
