<?xml version="1.0" encoding="utf-8"?>
<!-- Generator: Adobe Illustrator 28.2.0, SVG Export Plug-In . SVG Version: 6.00 Build 0)  -->
<svg version="1.1" id="Layer_1" xmlns="http://www.w3.org/2000/svg" xmlns:xlink="http://www.w3.org/1999/xlink" x="0px" y="0px"
	 viewBox="0 0 350 250" style="enable-background:new 0 0 350 250;" xml:space="preserve">
<style type="text/css">
	.st0{fill:#64758A;}
</style>
<g>
	<path class="st0" d="M51.2,142.6l15.3-71.8h23l-0.3,41.2H90c1-2.7,1.8-5.1,2.7-7.2c0.8-2.1,1.6-4,2.3-5.7L107,70.7h24.2L116,142.5
		h-15.8l9.3-37.9c0.1-0.6,0.7-3,1.8-7.2c1.1-4.2,2-7.9,2.9-11.2h-0.8l-23.7,56.3H77.4l0.1-56.3h-0.6c-0.3,2.6-0.7,4.8-0.9,6.6
		c-0.3,1.9-0.6,3.6-0.9,5.1l-8.3,44.6L51.2,142.6L51.2,142.6z"/>
	<path class="st0" d="M131.6,125.7c0-1.4,0.1-3.2,0.4-5.4s0.6-4.6,1.1-7.2c1.3-7.8,2.6-14.1,3.9-18.9c1.3-4.8,2.8-9.1,4.6-12.9
		c1.9-4.1,4.6-7.2,8.2-9.2c3.6-2.1,8.1-3.1,13.5-3.1c6.5,0,11.5,1.6,15,4.8c3.4,3.2,5.2,7.9,5.2,14.1c0,1.3-0.1,2.9-0.4,5
		c-0.2,2.1-0.6,4.5-1.1,7.2c-1.3,7.1-2.6,13.3-3.9,18.4s-2.8,9.4-4.3,12.7c-2,4.4-4.8,7.7-8.4,9.8c-3.6,2.1-8.1,3.2-13.6,3.2
		c-6.5,0-11.5-1.6-15-4.8S131.6,131.7,131.6,125.7z M153.5,97.2l-4,18.8c-0.6,2.6-1,4.8-1.3,6.4s-0.4,2.9-0.4,3.8
		c0,1.5,0.4,2.7,1.3,3.6s2.1,1.4,3.5,1.4c2.2,0,3.9-0.8,5-2.5c1.2-1.7,2.5-5.9,3.9-12.7l4-18.8c0.6-2.6,1-4.8,1.3-6.4
		s0.4-2.9,0.4-3.8c0-1.5-0.5-2.7-1.4-3.6s-2.1-1.4-3.6-1.4c-2.1,0-3.8,0.8-4.9,2.4C156.2,86.1,154.9,90.3,153.5,97.2L153.5,97.2z"/>
	<path class="st0" d="M183.6,142.6l15.3-71.8h15.9c5.7,0,9.9,0.3,12.7,0.9s5,1.7,6.7,3.2c1.8,1.5,3.2,3.4,4.1,5.6s1.4,4.8,1.4,7.7
		c0,8.7-2.1,15.2-6.2,19.5c-4.1,4.3-10.4,6.4-18.9,6.4h-8l-6,28.4L183.6,142.6L183.6,142.6z M209.1,101.8h4.1c3.1,0,5.5-1.1,7.2-3.2
		c1.7-2.1,2.5-5.1,2.5-8.9c0-2.1-0.5-3.8-1.6-5c-1.1-1.2-2.5-1.8-4.4-1.8h-3.8L209.1,101.8L209.1,101.8z"/>
	<path class="st0" d="M253.6,70.7h16.8l-9.8,46.7c-0.6,2.6-1,4.7-1.2,6.2s-0.4,2.6-0.4,3.4c0,1.4,0.4,2.5,1.2,3.3
		c0.8,0.8,2,1.2,3.4,1.2c3.7,0,6.6-4.6,8.5-13.9l0.2-1.1l9.8-45.8h16.8l-10,47.3c-1.2,5.9-2.4,10.1-3.3,12.8c-1,2.6-2.1,4.7-3.3,6.2
		c-2.1,2.5-4.5,4.3-7.4,5.5s-6.2,1.8-10,1.8c-7.4,0-13-1.4-16.6-4.3s-5.5-7.2-5.5-13c0-1.5,0.2-3.5,0.6-6.1c0.4-2.6,1-5.9,1.9-9.9
		L253.6,70.7L253.6,70.7z"/>
</g>
<g>
	<path class="st0" d="M51.2,180.4l4.9-22.8h7.3l-0.1,13.1h0.2c0.3-0.9,0.6-1.6,0.8-2.3c0.3-0.7,0.5-1.3,0.7-1.8l3.8-9h7.7l-4.8,22.8
		h-5l2.9-12c0-0.2,0.2-0.9,0.6-2.3s0.6-2.5,0.9-3.6h-0.2l-7.5,17.9h-3.9l0-17.9h-0.2c-0.1,0.8-0.2,1.5-0.3,2.1s-0.2,1.1-0.3,1.6
		l-2.6,14.2L51.2,180.4L51.2,180.4z"/>
	<path class="st0" d="M80.1,175.1c0-0.4,0-1,0.1-1.7s0.2-1.4,0.3-2.3c0.4-2.5,0.8-4.5,1.2-6c0.4-1.5,0.9-2.9,1.4-4.1
		c0.6-1.3,1.5-2.3,2.6-2.9s2.6-1,4.3-1c2.1,0,3.7,0.5,4.8,1.5s1.6,2.5,1.6,4.5c0,0.4,0,0.9-0.1,1.6c-0.1,0.6-0.2,1.4-0.3,2.3
		c-0.4,2.3-0.8,4.2-1.2,5.9s-0.9,3-1.4,4c-0.6,1.4-1.5,2.4-2.7,3.1c-1.1,0.7-2.6,1-4.3,1c-2.1,0-3.7-0.5-4.8-1.5
		S80.1,177,80.1,175.1L80.1,175.1z M87.1,166l-1.3,6c-0.2,0.8-0.3,1.5-0.4,2s-0.1,0.9-0.1,1.2c0,0.5,0.1,0.9,0.4,1.1
		s0.7,0.4,1.1,0.4c0.7,0,1.2-0.3,1.6-0.8c0.4-0.5,0.8-1.9,1.2-4l1.3-5.9c0.2-0.8,0.3-1.5,0.4-2c0.1-0.5,0.1-0.9,0.1-1.2
		c0-0.5-0.2-0.9-0.4-1.1s-0.7-0.4-1.2-0.4c-0.7,0-1.2,0.2-1.6,0.8S87.5,163.9,87.1,166z"/>
	<path class="st0" d="M100.1,180.4l4.9-22.8h5.1c1.8,0,3.2,0.1,4,0.3c0.9,0.2,1.6,0.5,2.1,1c0.6,0.5,1,1.1,1.3,1.8
		c0.3,0.7,0.4,1.5,0.4,2.4c0,1.8-0.4,3.2-1.1,4.2s-1.8,1.8-3.3,2.1c0.8,0.2,1.4,0.6,1.8,1c0.4,0.5,0.6,1.1,0.6,1.9
		c0,0.6-0.1,1.6-0.4,2.9c-0.3,1.3-0.4,2.4-0.4,3.1c0,0.4,0,0.7,0.1,0.9s0.2,0.5,0.3,0.7v0.5h-5.6c-0.1-0.2-0.2-0.4-0.2-0.6
		s-0.1-0.5-0.1-0.8c0-0.7,0.2-1.8,0.5-3.2c0.3-1.4,0.5-2.5,0.5-3.1c0-0.5-0.2-0.9-0.5-1.2s-0.8-0.4-1.3-0.4h-1.3l-2,9.4L100.1,180.4
		L100.1,180.4z M108.2,167h1.1c1,0,1.8-0.3,2.3-0.9s0.8-1.5,0.8-2.6c0-0.6-0.2-1.1-0.5-1.5c-0.3-0.4-0.8-0.5-1.4-0.5h-1.2L108.2,167
		L108.2,167z"/>
	<path class="st0" d="M123.8,180.4l3.9-18.3h-4.5l1-4.5h14.1l-0.9,4.5H133l-3.9,18.3L123.8,180.4L123.8,180.4z"/>
	<path class="st0" d="M136.9,180.4l9.8-22.8h6.4l0.2,22.8h-5.2l0.2-4.4h-4.4l-1.6,4.4H136.9L136.9,180.4z M145.3,172.1h3.2l0.7-10.9
		L145.3,172.1z"/>
	<path class="st0" d="M158.7,180.4l4.9-22.8h5.1c1.8,0,3.1,0.1,4,0.3c0.9,0.2,1.6,0.5,2.1,1c0.6,0.5,1,1.1,1.3,1.8
		c0.3,0.7,0.4,1.5,0.4,2.4c0,1.8-0.4,3.2-1.1,4.2s-1.8,1.8-3.3,2.1c0.8,0.2,1.4,0.6,1.8,1c0.4,0.5,0.6,1.1,0.6,1.9
		c0,0.6-0.1,1.6-0.4,2.9c-0.3,1.3-0.4,2.4-0.4,3.1c0,0.4,0,0.7,0.1,0.9s0.1,0.5,0.3,0.7v0.5h-5.6c-0.1-0.2-0.1-0.4-0.2-0.6
		c0-0.2-0.1-0.5-0.1-0.8c0-0.7,0.2-1.8,0.5-3.2c0.3-1.4,0.5-2.5,0.5-3.1c0-0.5-0.2-0.9-0.5-1.2s-0.8-0.4-1.3-0.4H166l-2,9.4
		L158.7,180.4L158.7,180.4z M166.9,167h1.1c1,0,1.8-0.3,2.3-0.9s0.8-1.5,0.8-2.6c0-0.6-0.2-1.1-0.5-1.5c-0.3-0.4-0.8-0.5-1.4-0.5
		h-1.2L166.9,167L166.9,167z"/>
	<path class="st0" d="M191.6,180.4l4.9-22.8h5.1c1.8,0,3.1,0.1,4,0.3c0.9,0.2,1.6,0.5,2.1,1c0.6,0.5,1,1.1,1.3,1.8
		c0.3,0.7,0.4,1.5,0.4,2.5c0,2.8-0.7,4.8-2,6.2c-1.3,1.4-3.3,2-6,2h-2.6l-1.9,9L191.6,180.4L191.6,180.4z M199.7,167.5h1.3
		c1,0,1.8-0.3,2.3-1s0.8-1.6,0.8-2.8c0-0.7-0.2-1.2-0.5-1.6c-0.3-0.4-0.8-0.6-1.4-0.6H201L199.7,167.5L199.7,167.5z"/>
	<path class="st0" d="M217.3,157.6h5.3l-3.1,14.8c-0.2,0.8-0.3,1.5-0.4,2c-0.1,0.5-0.1,0.8-0.1,1.1c0,0.4,0.1,0.8,0.4,1
		s0.6,0.4,1.1,0.4c1.2,0,2.1-1.5,2.7-4.4l0.1-0.4l3.1-14.5h5.3l-3.2,15c-0.4,1.9-0.8,3.2-1.1,4.1s-0.7,1.5-1.1,2
		c-0.7,0.8-1.4,1.4-2.3,1.8c-0.9,0.4-2,0.6-3.2,0.6c-2.4,0-4.1-0.5-5.3-1.4c-1.2-0.9-1.8-2.3-1.8-4.1c0-0.5,0.1-1.1,0.2-1.9
		c0.1-0.8,0.3-1.9,0.6-3.1L217.3,157.6L217.3,157.6z"/>
	<path class="st0" d="M234,180.4l4.9-22.8h7.3l-0.1,13.1h0.2c0.3-0.9,0.6-1.6,0.8-2.3c0.3-0.7,0.5-1.3,0.7-1.8l3.9-9h7.7l-4.8,22.8
		h-5l2.9-12c0-0.2,0.2-0.9,0.6-2.3c0.3-1.3,0.6-2.5,0.9-3.6h-0.2l-7.5,17.9h-3.9l0-17.9h-0.2c-0.1,0.8-0.2,1.5-0.3,2.1
		s-0.2,1.1-0.3,1.6l-2.6,14.2L234,180.4L234,180.4z"/>
	<path class="st0" d="M261.9,180.4l4.9-22.8h5.1c1.8,0,3.1,0.1,4,0.3s1.6,0.5,2.1,1c0.6,0.5,1,1.1,1.3,1.8c0.3,0.7,0.4,1.5,0.4,2.5
		c0,2.8-0.7,4.8-2,6.2c-1.3,1.4-3.3,2-6,2h-2.5l-1.9,9L261.9,180.4L261.9,180.4z M270,167.5h1.3c1,0,1.8-0.3,2.3-1s0.8-1.6,0.8-2.8
		c0-0.7-0.2-1.2-0.5-1.6c-0.3-0.4-0.8-0.6-1.4-0.6h-1.2L270,167.5L270,167.5z"/>
	<path class="st0" d="M283.2,172.5h4.9v0.1c0,0.5-0.1,0.9-0.1,1.1c0,1.1,0.2,1.9,0.5,2.5c0.4,0.5,0.9,0.8,1.7,0.8
		c0.6,0,1.1-0.2,1.4-0.6c0.4-0.4,0.5-1,0.5-1.7c0-1.1-0.8-2.4-2.4-3.8c-0.4-0.4-0.8-0.7-1-0.9c-1.1-1.1-2-2.1-2.5-3.1
		s-0.8-2.1-0.8-3.2c0-2.1,0.6-3.7,1.8-4.8s3-1.7,5.2-1.7c2.1,0,3.6,0.5,4.7,1.6c1.1,1.1,1.6,2.6,1.6,4.6c0,0.4,0,0.6,0,0.8
		c0,0.2,0,0.4-0.1,0.5h-4.6v-0.4c0-1.2-0.1-2-0.5-2.5c-0.3-0.5-0.8-0.8-1.5-0.8c-0.5,0-1,0.2-1.3,0.5c-0.3,0.4-0.5,0.8-0.5,1.4
		s0.2,1.2,0.5,1.7s1,1.2,2.1,2.2c0,0,0.1,0.1,0.2,0.2c2.6,2.3,4,4.6,4,7s-0.6,4.1-1.8,5.2c-1.2,1.2-3,1.8-5.4,1.8
		c-2.3,0-4-0.6-5.1-1.8s-1.7-3-1.7-5.4c0-0.3,0-0.7,0-1.2L283.2,172.5L283.2,172.5z"/>
</g>
</svg>
