<?xml version="1.0" encoding="utf-8"?>
<!-- Generator: Adobe Illustrator 28.2.0, SVG Export Plug-In . SVG Version: 6.00 Build 0)  -->
<svg version="1.1" id="Layer_1" xmlns="http://www.w3.org/2000/svg" xmlns:xlink="http://www.w3.org/1999/xlink" x="0px" y="0px"
	 viewBox="0 0 350 250" style="enable-background:new 0 0 350 250;" xml:space="preserve">
<style type="text/css">
	.st0{fill:#64758A;}
</style>
<g>
	<path class="st0" d="M266.3,93.6c0,0,0,4.2,0,6c0,20.2,0.1,40.4-0.1,60.6c0,2.1-0.3,4.9-1.6,6.2c-12.9,13.2-26.1,26.2-40.5,40.6
		c-5.3-6.3-10.5-12.4-15.8-18.7c-6.3,6.7-11.7,12.4-17.6,18.6c-10.1-10.1-19.5-19.5-28.7-28.4c-14.9-14.6-13.2-13.9-13-31.5
		c0.1-9.8,0.2-20.1,0.2-30.6h82v28.7c0,0.7,0,1.5,0,2.2c-0.1,18.2-0.1,15.8-11.5,29.1c-0.6,0.7-1.1,1.4-1.9,2.4
		c2.4,2.5,4.7,4.8,6.5,6.7c9.6-9.2,19-18,28.2-27c1.1-1.1,1.4-3.4,1.4-5.2c0.1-13.8-0.1-27.7,0.1-41.5c0.1-4.3-1.5-5.4-5.6-5.3
		c-19.3,0.2-38.6,0.1-58,0.1c-2,0-4.1,0-6,0c0,0-0.1-12.2-0.1-12.8L266.3,93.6L266.3,93.6z M189.9,186.2
		c9.7-9.5,18.7-18.4,27.7-27.4c0.8-0.8,1.3-2.3,1.3-3.5c0.1-7.7,0.1-15.3-0.1-23c0-1.7-1.2-3.3-3.2-3.3c-16.9-0.2-33.7,0-50.6,0
		c-2.6,0-3.3,1.3-3.3,3.1c-0.1,7.8-0.2,15.7-0.1,23.5c0,1.2,0.5,2.7,1.4,3.5C171.7,168,180.6,176.8,189.9,186.2L189.9,186.2z"/>
	<path class="st0" d="M90.4,93.1v15.2H77.2c0-16.5,0.2-31.9,0.2-49.3c8.2,0,14.7-0.5,21.6,1.1c8.8,2,11.4,7.4,10.8,18.7
		c-0.4,7.5-4.4,11.6-12.7,13.1C95.1,92.2,93.1,92.6,90.4,93.1z M90.9,80.6c4.3,0.1,5.3-2.1,5.3-5.3c0-3.4-1.2-5.6-5.3-6V80.6
		L90.9,80.6z"/>
	<path class="st0" d="M136.2,70.1c-3.3,0.2-6.3,0.3-9.5,0.5v7.1c3.2,0.2,6.1,0.4,9.3,0.6V89c-2.8,0.2-5.7,0.4-9.3,0.6v18.6h-13.5V59
		h23V70.1L136.2,70.1z"/>
	<path class="st0" d="M147.8,71.4c-2.4-0.3-4.2-0.5-6.5-0.8V58.9h27.6v11.6c-2.2,0.3-4.4,0.5-7.3,0.8v37h-13.8V71.4L147.8,71.4z"/>
</g>
</svg>
