<?xml version="1.0" encoding="utf-8"?>
<!-- Generator: Adobe Illustrator 28.2.0, SVG Export Plug-In . SVG Version: 6.00 Build 0)  -->
<svg version="1.1" id="Layer_1" xmlns="http://www.w3.org/2000/svg" xmlns:xlink="http://www.w3.org/1999/xlink" x="0px" y="0px"
	 viewBox="0 0 350 250" style="enable-background:new 0 0 350 250;" xml:space="preserve">
<style type="text/css">
	.st0{fill:#64758A;}
</style>
<path class="st0" d="M138.6,112.5c-3.9,0-7,1.1-9.2,3.3c-2.2,2.2-3.4,5.3-3.4,9.2s1.1,6.9,3.4,9.1c2.2,2.2,5.3,3.3,9.2,3.3
	s7-1.1,9.2-3.3s3.4-5.3,3.4-9.1s-1.1-7-3.4-9.2C145.6,113.6,142.5,112.5,138.6,112.5L138.6,112.5L138.6,112.5z"/>
<path class="st0" d="M14.3,82v86h318.6V82H14.3z M69.1,142.1c-3.5,2.2-8.7,3.4-15.5,3.4s-11.4-1.2-14.9-3.6s-5.2-5.8-5.2-10.1V131
	h10v0.4c0,2.2,1,3.9,2.9,5c1.9,1.1,4.8,1.7,8.4,1.7c2.8,0,5-0.4,6.6-1.3c1.5-0.9,2.3-2,2.3-3.5c0-1.3-0.5-2.2-1.5-2.8
	c-1-0.6-3.1-1.1-6.1-1.4l-6.9-0.7c-5-0.5-8.8-1.7-11.2-3.4s-3.6-4.3-3.6-7.5c0-3.8,1.7-6.9,5.1-9.4s8-3.6,13.6-3.6
	c6.1,0,10.8,1.1,14.3,3.4c3.4,2.3,5.1,5.4,5.1,9.3v0.3H63c-0.2-1.9-1.1-3.4-2.7-4.4s-3.9-1.5-6.8-1.5c-2.7,0-4.9,0.4-6.4,1.2
	c-1.5,0.8-2.3,1.9-2.3,3.3c0,1.1,0.5,2,1.3,2.5s3.1,1,6.5,1.4l7.2,0.8c5,0.5,8.7,1.7,11,3.6c2.3,1.9,3.5,4.5,3.5,7.8
	C74.4,136.6,72.6,139.9,69.1,142.1L69.1,142.1L69.1,142.1z M113.2,113.4H99.9v31.1h-9.7v-31.1H76.9v-7.9h36.3L113.2,113.4
	L113.2,113.4z M155.6,139.9c-4.2,3.7-9.9,5.6-17,5.6s-12.8-1.9-17-5.6c-4.2-3.7-6.3-8.7-6.3-14.9s2.1-11.2,6.3-14.9
	c4.2-3.7,9.9-5.6,17-5.6s12.8,1.9,17,5.6c4.2,3.7,6.3,8.7,6.3,14.9S159.8,136.2,155.6,139.9z M178.4,144.5h-9.8v-39h9.8V144.5z
	 M207.6,144.5h-9.9l-16.9-39h10.8l11.2,27.9l11.4-27.9h10.7L207.6,144.5L207.6,144.5z M261.6,144.5H227v-7.9h34.6V144.5z
	 M261.6,129.2H227v-7.9h34.6V129.2z M261.6,113.4H227v-7.9h34.6V113.4z M296.5,144.5c-0.3-0.4-0.5-0.9-0.6-1.4
	c-0.1-0.5-0.2-1.1-0.2-1.6v-2.6c0-3.6-0.5-5.9-1.4-7c-0.9-1.1-2.7-1.6-5.4-1.6h-5.1v-8h4.8c2.9,0,5-0.4,6.1-1.1s1.8-1.9,1.8-3.5
	s-0.6-2.7-1.6-3.3c-1.1-0.6-3.3-0.9-6.7-0.9h-10.6v31.2H268v-38.9h24c5.2,0,9,0.9,11.5,2.6c2.5,1.7,3.7,4.4,3.7,7.9
	c0,2.3-0.6,4.3-1.7,6.1c-1.1,1.8-2.7,3-4.8,3.8c1.7,0.7,2.9,1.6,3.6,2.7s1.1,2.9,1.2,5.6c0,0.3,0,0.6,0,1.1c0.2,4.8,0.9,7.9,2,9.2
	L296.5,144.5L296.5,144.5z"/>
</svg>
