<?xml version="1.0" encoding="utf-8"?>
<!-- Generator: Adobe Illustrator 28.2.0, SVG Export Plug-In . SVG Version: 6.00 Build 0)  -->
<svg version="1.1" id="Layer_1" xmlns="http://www.w3.org/2000/svg" xmlns:xlink="http://www.w3.org/1999/xlink" x="0px" y="0px"
	 viewBox="0 0 350 250" style="enable-background:new 0 0 350 250;" xml:space="preserve">
<style type="text/css">
	.st0{fill:#64758A;}
</style>
<path class="st0" d="M140.7,163h68.5h81.6l20.9-76h-38l0,0h-64.4h-68.5H76.3l0,0H59.1l-20.9,76h38H140.7z M258.5,105.8l1.4,9.5
	c0.2,1,0.3,2.1,0.3,3.3v0.9h0.1c0.1-0.4,0.4-1,0.7-1.8c0.3-0.8,0.7-1.4,1-1.9s2.6-3.8,6.7-10h13.2L267,125.1l6.7,18.4h-12.8
	l-2.1-9.8c-0.2-0.8-0.3-1.9-0.3-3.2v-0.8h-0.1c-0.5,1.4-1.1,2.6-1.8,3.7l-6.4,10.1h-14.1l15.5-19.5l-6.4-18.2H258.5z M240.7,105.8
	l-8,37.7h-11.4l8-37.7H240.7z M192.2,105.8l1.3,22.5c0,1.1,0,2.3-0.1,3.5h0.2c0.3-0.8,0.6-1.7,0.9-2.6c0.3-0.9,0.6-1.8,1-2.5l9.2-21
	H222l-8,37.7h-11.2l4.7-22.2l1.2-5.7h-0.2l0,0l-2,4.7l-10.6,23.2h-10.4l-1.3-21.9c-0.1-1.5-0.2-3.5-0.2-6h-0.2
	c-0.5,3.9-1.1,7.4-1.8,10.6l-3.7,17.2h-10.1l8-37.7h16V105.8z M168.9,105.8l-8,37.7h-11.4l8-37.7H168.9z M122.9,105.8l10.5,17.5
	c0.2,0.3,0.5,0.9,0.9,1.6c0.4,0.8,0.6,1.4,0.8,2h0.1c0-0.6,0.2-1.3,0.3-2.1l4-19.1H150l-8,37.7l0,0h-8.9l-10.9-18.5
	c-1-1.7-1.6-3-2-3.9h-0.1c-0.3,2.1-0.7,4.2-1.2,6.3l-3.4,16.1H105l8-37.7L122.9,105.8L122.9,105.8z M68.1,131c0-1.6,0.3-3.9,0.9-7
	l3.9-18.2h11.4l-3.9,18.3c-0.2,1.1-0.4,2.1-0.6,3c-0.2,1-0.3,1.8-0.3,2.5c0,1.5,0.4,2.7,1.2,3.5c0.8,0.8,1.9,1.3,3.3,1.3
	c1.6,0,3-0.6,4-1.7c1-1.1,1.8-3,2.3-5.6l4.6-21.4h11.4l-4.7,22c-1,4.3-2.2,7.6-3.8,9.8c-1.6,2.3-3.6,3.9-6.1,4.9s-5.5,1.6-9,1.6
	c-4.7,0-8.3-1.1-10.8-3.4l0,0C69.3,138.6,68.1,135.3,68.1,131z"/>
</svg>
