<?xml version="1.0" encoding="utf-8"?>
<!-- Generator: Adobe Illustrator 28.2.0, SVG Export Plug-In . SVG Version: 6.00 Build 0)  -->
<svg version="1.1" id="Layer_1" xmlns="http://www.w3.org/2000/svg" xmlns:xlink="http://www.w3.org/1999/xlink" x="0px" y="0px"
	 viewBox="0 0 350 250" style="enable-background:new 0 0 350 250;" xml:space="preserve">
<style type="text/css">
	.st0{fill:#64758A;}
</style>
<path class="st0" d="M251.9,99.6c-5,0-10,0-15,0c-0.3,0.1-0.3,0.5-0.4,0.8c-4.2,11.6-8.5,23.2-12.7,34.8c-0.9,2.4-1.8,4.9-2.7,7.5
	c-0.2-0.4-0.3-0.6-0.3-0.9c-1.1-3.2-2.2-6.5-3.3-9.7c-3.6-10.5-7.2-21-10.7-31.6c-0.2-0.6-0.5-0.9-1.2-0.9c-4.5,0.1-9.1,0-13.6,0
	c-0.7,0-0.9,0.1-0.9,0.8c0,26.4,0,52.9,0,79.3c0,0.7,0.2,0.9,0.9,0.9c4.5,0,9,0,13.5,0c0.8,0,1-0.2,1-1c0-11.8,0-23.6,0-35.4V143
	c0.1,0,0.1,0,0.2,0c4.7,12.3,9.4,24.6,14.1,36.9c0.1,0,0.2,0,0.2,0c5.2-13,10.4-26,15.7-38.9c0.1,0,0.1,0,0.2,0.1c0,0.3,0,0.6,0,1
	c0,12.5,0,25.1,0,37.6c0,0.8,0.2,1,1,1c4.5,0,9,0,13.5,0c0.7,0,0.9-0.2,0.9-0.9c0-26.4,0-52.8,0-79.2
	C252.1,100.2,252.2,99.8,251.9,99.6L251.9,99.6z"/>
<path class="st0" d="M186,179.6c-0.2-1.9-0.4-3.8-0.5-5.7c-0.4-5.2-0.9-10.5-1.3-15.7c-0.6-6.7-1.2-13.4-1.7-20.2
	c-0.5-5.9-1-11.9-1.5-17.9c-0.5-6.2-1.1-12.5-1.6-18.8c-0.1-0.6,0.1-1.2-0.3-1.8c-10.1,0-20.2,0-30.4,0c-0.6,0-0.6,0.3-0.6,0.7
	c-0.2,0.7-0.1,1.4-0.2,2c-0.5,6.1-1.1,12.2-1.6,18.3c-0.4,5.2-0.9,10.4-1.3,15.6c-0.5,6.1-1,12.2-1.6,18.3c-0.3,3.9-0.7,7.8-1,11.7
	c-0.4,4.5-0.7,8.9-1.1,13.4c-0.1,0.7,0.1,0.9,0.8,0.9c4.6,0,9.1,0,13.7,0c0.7,0,0.9-0.2,0.9-0.8c0-1.2,0.1-2.3,0.2-3.5
	c0.4-5.3,0.9-10.7,1.4-16c0.4-4.6,0.8-9.1,1.1-13.7c0.4-5.2,0.9-10.5,1.3-15.7c0.4-4.6,0.8-9.2,1.2-13.9c0.2-2.2,0.2-2.2,2.5-2.2
	c0.6,0,0.8,0.2,0.8,0.8c0.5,6.4,1.1,12.8,1.6,19.2c0.5,6,1,12.1,1.5,18.1c0.8,9,1.5,17.9,2.3,26.9c0.1,0.6,0.3,0.8,0.9,0.8
	c4.6,0,9.1,0,13.7,0C185.9,180.5,186.1,180.3,186,179.6L186,179.6z"/>
<path class="st0" d="M129.3,69.9c0-0.2,0.1-0.5-0.3-0.3c-0.1,0-0.2,0-0.3,0.1c-8.1,3.1-16.1,6.2-24.2,9.3c-0.5,0.2-0.5,0.5-0.5,1
	c0,3.8,0,7.5,0,11.2c0,0.7,0.1,0.9,0.8,0.6c4-1.6,8-3.1,12-4.6c4.1-1.6,8.2-3.2,12.3-4.8c0.3-0.1,0.2-0.3,0.2-0.5
	C129.3,77.8,129.3,73.9,129.3,69.9L129.3,69.9z"/>
<path class="st0" d="M90,143.3c0-0.6-0.2-0.8-0.7-1c-3-1.1-5.9-2.2-9.1-3.4c3.2-1.2,6.2-2.4,9.2-3.4c0.5-0.2,0.7-0.4,0.7-1
	c0-11.4,0-22.8,0-34.2c0-0.6-0.2-0.7-0.8-0.7c-13.5,0-27,0-40.5,0c-0.7,0-0.9,0.2-0.9,0.9c0,26.4,0,52.8,0,79.2
	c0,0.7,0.2,0.9,0.9,0.9c13.5,0,26.9,0,40.4,0c0.7,0,0.8-0.2,0.8-0.8C90,167.5,90,155.4,90,143.3L90,143.3z M63.9,114.7
	c3.4,0,6.8,0,10.3,0c0.4,0,0.6,0.1,0.6,0.6c0,3.7,0,7.4,0,11.1c0,0.3-0.1,0.5-0.4,0.7c-3.6,1.4-7.3,2.7-11,4.2c0-5.4,0-10.6,0-15.8
	C63.3,114.9,63.4,114.7,63.9,114.7L63.9,114.7z M74.7,164.6c0,0.5-0.1,0.7-0.7,0.7c-3.4,0-6.7,0-10.1,0c-0.6,0-0.7-0.2-0.7-0.7
	c0-2.7,0-5.5,0-8.2c0-2.7,0-5.4,0-8c0-0.6,0.1-0.8,0.8-0.6c3.3,1.3,6.7,2.5,10,3.8c0.5,0.2,0.7,0.4,0.7,1
	C74.7,156.6,74.7,160.6,74.7,164.6L74.7,164.6z"/>
<path class="st0" d="M302.1,179.7c-0.3-3.2-0.6-6.3-0.8-9.5c-0.4-4.5-0.7-8.9-1.1-13.4c-0.5-6.1-1-12.1-1.5-18.2
	c-0.4-5.2-0.9-10.4-1.3-15.6c-0.5-6.2-1-12.4-1.6-18.7c-0.1-1.6-0.1-3.1-0.5-4.6c-0.2,0-0.4-0.1-0.5-0.1c-9.9,0-19.8,0-29.8,0
	c-0.2,0-0.4,0-0.6,0.1c-0.3,0.6-0.2,1.2-0.2,1.7c-0.8,9.5-1.6,19-2.4,28.4c-0.6,6.8-1.1,13.5-1.7,20.3c-0.8,9.9-1.7,19.8-2.5,29.7
	c-0.1,0.7,0.1,0.7,0.7,0.7c4.6,0,9.2,0,13.8,0c0.6,0,0.8-0.1,0.9-0.8c0.4-5.3,0.9-10.6,1.3-15.8c0-0.6,0.2-0.8,0.8-0.8
	c3.2,0,6.4,0,9.6,0c0.6,0,0.8,0.1,0.9,0.8c0.4,5.3,0.9,10.6,1.3,15.9c0,0.6,0.3,0.7,0.8,0.7c4.6,0,9.2,0,13.8,0
	C302,180.5,302.1,180.3,302.1,179.7L302.1,179.7z M283.3,148c-1.2-0.1-2.4,0-3.6,0c-1.2,0-2.4,0-3.7,0c-0.5,0-0.6-0.1-0.6-0.7
	c0.5-5.6,1-11.2,1.4-16.8c0.4-4.5,0.8-9,1.1-13.5c0.1-0.7-0.1-1.7,0.3-2.1c0.4-0.5,1.4-0.1,2-0.2c0.7-0.1,0.9,0.1,1,0.8
	c0.3,3.8,0.6,7.6,1,11.4c0.6,6.7,1.1,13.4,1.7,20.2C284,147.8,283.9,148,283.3,148L283.3,148z"/>
<path class="st0" d="M137,100.6c0-0.8-0.2-1.1-1.1-1.1c-12.9,0-25.8,0-38.7,0c-0.9,0-1.1,0.2-1.1,1.1c0,13.1,0,26.3,0,39.5
	s0,26.3,0,39.5c0,0.8,0.2,1,1,1c12.9,0,25.8,0,38.8,0c0.9,0,1.1-0.2,1.1-1.1C137,153.1,137,126.9,137,100.6L137,100.6z M121.9,115.5
	c0-0.1,0-0.2,0-0.2C121.9,115.3,121.9,115.4,121.9,115.5z M121.9,115.1c0,0.1,0,0.1,0,0.2C121.9,115.2,121.9,115.1,121.9,115.1z
	 M112.2,165.3c-0.8,0-0.7-0.4-0.7-0.9c0-11.6,0-23.3,0-34.9c0-4.6,0-9.3,0-13.9c0-0.3-0.1-0.7,0.2-1l0,0l0,0c0.3,0.2,0.6,0.1,1,0.1
	c2.2,0,4.4,0,6.6,0c0.7,0,1.4,0.1,2.1-0.1l0.1,0c0.1,0.1,0.2,0.1,0.2,0.1c0,6.8,0,13.6,0,20.4c0,10,0,20.1,0,30.1
	C118.5,165.3,115.4,165.3,112.2,165.3L112.2,165.3z"/>
</svg>
